<!-- Generator: Adobe Illustrator 23.1.0, SVG Export Plug-In  -->
<svg version="1.1" xmlns="http://www.w3.org/2000/svg" xmlns:xlink="http://www.w3.org/1999/xlink" x="0px" y="0px"
	 width="613.353px" height="155.294px" viewBox="0 0 613.353 155.294" enable-background="new 0 0 613.353 155.294"
	 xml:space="preserve">
<defs>
</defs>
<g>
	<path fill="#FFFFFF" d="M11.103,0h6.399l-5.239,22.461c3.397-2.808,6.461-3.069,8.094-3.069c5.027,0,6.704,2.612,7.228,3.722
		c1.12,2.481,0.438,5.68-0.019,7.639L23.636,47.6h-6.398l3.792-16.259c0.381-1.632,0.792-3.395-0.128-4.766
		c-0.536-0.783-1.624-1.437-3.256-1.437c-2.155,0-4.097,1.045-5.234,2.286c-1.219,1.306-2.098,3.396-2.92,6.921L6.399,47.6H0
		L11.103,0z"/>
	<path fill="#FFFFFF" d="M57.09,41.331c-1.662,2.089-3.787,3.918-5.809,5.028c-2.555,1.437-5.646,2.089-8.583,2.089
		c-3.656,0-6.447-0.914-8.449-3.526c-2.003-2.612-2.556-6.398-1.597-10.512c0.99-4.244,3.452-8.358,7.01-11.296
		c2.818-2.286,6.157-3.722,10.074-3.722c4.375,0,6.741,1.894,7.977,3.591c2.673,3.657,1.812,8.75,1.142,11.623l-0.183,0.784H38.953
		c-0.326,1.958,0.005,4.179,1.056,5.55c1.152,1.501,2.919,1.763,4.486,1.763c1.763,0,3.16-0.392,4.694-1.372
		c1.309-0.849,2.416-1.958,3.248-3.003L57.09,41.331z M53.361,30.166c0.088-1.502-0.325-2.808-1.091-3.722
		c-0.666-0.784-1.854-1.567-3.944-1.567c-2.22,0-3.869,0.915-4.916,1.763c-1.112,0.849-2.134,2.154-2.781,3.526H53.361z"/>
	<path fill="#FFFFFF" d="M79.984,0L68.882,47.6h-6.399L73.585,0H79.984z"/>
	<path fill="#FFFFFF" d="M94.477,0L83.374,47.6h-6.398L88.078,0H94.477z"/>
	<path fill="#FFFFFF" d="M122.612,33.887c-1.965,8.423-9.795,14.561-18.087,14.561s-13.26-6.138-11.295-14.561
		c1.98-8.488,9.78-14.495,18.072-14.495S124.592,25.399,122.612,33.887z M116.067,33.953c1.462-6.269-2.057-8.815-6.104-8.815
		c-4.049,0-8.756,2.547-10.219,8.815c-1.233,5.289,1.094,8.75,6.122,8.75S114.834,39.242,116.067,33.953z"/>
	<path fill="#FFFFFF" d="M161.103,15.54h4.439l-5.607,13.124c-0.425,0.979-0.833,1.894-1.077,2.938
		c-0.472,2.024,0.631,2.612,1.479,2.612c1.502,0,3.484-1.501,4.527-2.612c2.1-2.285,3.808-6.529,4.341-8.814
		c1.691-7.248-1.417-15.475-12.648-15.475c-10.512,0-20.643,8.162-23.141,18.871c-1.751,7.508,0.844,14.299,7.271,16.977
		c2.072,0.914,4.462,1.306,7.139,1.306c3.068,0,8.333-0.457,13.878-2.677l0.166,4.049c-2.076,0.783-7.45,2.546-14.632,2.546
		c-6.007,0-11.076-1.502-14.567-5.29c-2.444-2.677-5.52-7.966-3.418-16.976c3.062-13.125,14.963-22.723,28.022-22.723
		c11.427,0,18.942,7.248,16.125,19.327c-0.838,3.591-2.818,8.162-5.723,11.1c-2.216,2.22-5.465,4.114-8.468,4.114
		c-2.808,0-4.095-1.763-4.019-4.049c-2.851,3.265-6.52,4.44-9.131,4.44c-3.591,0-8.643-2.416-6.769-10.447
		c2.025-8.685,9.198-13.125,14.487-13.125c3.068,0,5.28,1.437,5.881,4.179L161.103,15.54z M156.885,24.942
		c0.929-3.983-1.106-5.615-3.652-5.615c-3.591,0-7.622,3.003-8.901,8.488c-0.944,4.049,0.899,5.942,3.445,5.942
		C151.304,33.757,155.637,30.296,156.885,24.942z"/>
	<path fill="#FFFFFF" d="M180.275,20.11h6.399l-0.579,2.481c0.916-0.849,2.174-1.763,3.21-2.285c1.408-0.718,2.693-0.914,4.13-0.914
		c1.567,0,3.204,0.261,4.723,1.306l-3.967,5.811c-1.223-0.914-2.383-0.979-3.036-0.979c-1.371,0-2.788,0.196-4.333,1.502
		c-2.205,1.894-2.813,4.505-3.24,6.333l-3.32,14.234h-6.399L180.275,20.11z"/>
	<path fill="#FFFFFF" d="M220.689,20.11h6.398L220.676,47.6h-6.398l0.67-2.873c-3.569,3.265-7.137,3.722-9.095,3.722
		c-8.488,0-11.675-7.052-9.909-14.626c2.086-8.945,9.503-14.43,16.751-14.43c2.023,0,5.428,0.523,7.248,3.918L220.689,20.11z
		 M202.442,33.953c-1.111,4.767,0.963,8.75,5.599,8.75c4.048,0,8.455-2.939,9.795-8.685c1.401-6.007-1.65-8.88-5.698-8.88
		C207.503,25.138,203.585,29.056,202.442,33.953z"/>
	<path fill="#FFFFFF" d="M241.581,20.11L235.169,47.6h-6.398l6.412-27.489H241.581z M241.991,4.636c2.351,0,3.703,1.763,3.155,4.113
		c-0.548,2.351-2.723,4.114-5.074,4.114s-3.702-1.763-3.154-4.114C237.467,6.399,239.641,4.636,241.991,4.636z"/>
	<path fill="#FFFFFF" d="M249.61,20.11h6.399l-0.594,2.547c3.458-3.069,6.637-3.265,8.205-3.265c5.093,0,6.653,2.546,7.228,3.722
		c0.695,1.501,0.906,3.395-0.083,7.639L266.835,47.6h-6.399l3.563-15.279c1.63-6.987-0.936-7.183-3.352-7.183
		c-2.873,0-5.902,0.392-7.974,9.272L249.598,47.6h-6.399L249.61,20.11z"/>
	<path fill="#FFFFFF" d="M291.664,27.358c-0.409-1.044-1.345-2.35-3.369-2.35c-0.914,0-1.644,0.326-2.126,0.718
		c-0.402,0.327-0.786,0.849-0.923,1.437c-0.167,0.719,0.053,1.176,0.548,1.567c0.332,0.261,0.693,0.392,1.896,1.11l2.884,1.632
		c1.269,0.718,2.473,1.437,3.258,2.546c1.151,1.502,1.278,3.199,0.836,5.093c-0.579,2.481-1.995,4.636-3.878,6.269
		c-2.703,2.351-5.547,3.069-8.42,3.069c-1.763,0-3.922-0.261-5.53-1.763c-1.293-1.176-2.157-3.069-2.354-5.028l5.802-2.481
		c0.113,0.914,0.427,2.089,0.893,2.611c0.3,0.392,1.062,1.045,2.563,1.045c0.979,0,2.1-0.326,2.825-0.914
		c0.645-0.522,1.234-1.372,1.417-2.155c0.183-0.783,0.074-1.436-0.361-2.089c-0.601-0.783-1.408-1.24-2.346-1.697l-2.092-1.11
		c-1.103-0.588-2.438-1.306-3.239-2.351c-1.117-1.372-1.289-2.873-0.877-4.636c0.518-2.22,1.869-4.375,3.656-5.876
		c1.546-1.306,3.939-2.612,7.334-2.612c1.959,0,3.434,0.392,4.758,1.437c0.777,0.588,1.773,1.633,2.342,3.396L291.664,27.358z"/>
	<path fill="#FFFFFF" d="M309.534,0h6.399l-5.239,22.461c3.397-2.808,6.461-3.069,8.094-3.069c5.027,0,6.704,2.612,7.228,3.722
		c1.12,2.481,0.438,5.68-0.019,7.639L322.067,47.6h-6.398l3.792-16.259c0.381-1.632,0.792-3.395-0.128-4.766
		c-0.536-0.783-1.624-1.437-3.256-1.437c-2.155,0-4.097,1.045-5.234,2.286c-1.219,1.306-2.098,3.396-2.92,6.921L304.831,47.6h-6.399
		L309.534,0z"/>
	<path fill="#FFFFFF" d="M356.685,20.11h6.398L356.671,47.6h-6.398l0.67-2.873c-3.569,3.265-7.137,3.722-9.095,3.722
		c-8.488,0-11.675-7.052-9.909-14.626c2.086-8.945,9.503-14.43,16.751-14.43c2.023,0,5.428,0.523,7.248,3.918L356.685,20.11z
		 M338.438,33.953c-1.111,4.767,0.963,8.75,5.599,8.75c4.048,0,8.455-2.939,9.795-8.685c1.401-6.007-1.65-8.88-5.698-8.88
		C343.498,25.138,339.58,29.056,338.438,33.953z"/>
	<path fill="#FFFFFF" d="M395.978,0h6.398l-11.103,47.6h-6.398l0.67-2.873c-3.569,3.265-7.137,3.722-9.095,3.722
		c-8.488,0-11.675-7.052-9.909-14.626c2.086-8.945,9.503-14.43,16.751-14.43c2.023,0,5.428,0.523,7.248,3.918L395.978,0z
		 M373.04,33.953c-1.111,4.767,0.963,8.75,5.599,8.75c4.048,0,8.455-2.939,9.795-8.685c1.401-6.007-1.65-8.88-5.698-8.88
		C378.101,25.138,374.183,29.056,373.04,33.953z"/>
	<path fill="#FFFFFF" d="M425.445,41.331c-1.662,2.089-3.787,3.918-5.809,5.028c-2.555,1.437-5.646,2.089-8.583,2.089
		c-3.656,0-6.447-0.914-8.449-3.526c-2.003-2.612-2.556-6.398-1.597-10.512c0.99-4.244,3.452-8.358,7.01-11.296
		c2.818-2.286,6.157-3.722,10.074-3.722c4.375,0,6.741,1.894,7.977,3.591c2.673,3.657,1.812,8.75,1.142,11.623l-0.183,0.784h-19.719
		c-0.326,1.958,0.005,4.179,1.056,5.55c1.152,1.501,2.919,1.763,4.486,1.763c1.763,0,3.16-0.392,4.694-1.372
		c1.309-0.849,2.416-1.958,3.248-3.003L425.445,41.331z M421.717,30.166c0.088-1.502-0.325-2.808-1.091-3.722
		c-0.666-0.784-1.854-1.567-3.944-1.567c-2.22,0-3.869,0.915-4.916,1.763c-1.112,0.849-2.134,2.154-2.781,3.526H421.717z"/>
	<path fill="#FFFFFF" d="M436.269,40.547c2.154,0,3.507,1.763,3.004,3.918c-0.502,2.154-2.678,3.918-4.832,3.918
		s-3.505-1.764-3.003-3.918C431.94,42.311,434.114,40.547,436.269,40.547z"/>
	<path fill="#FFFFFF" d="M477.719,0h6.398l-11.103,47.6h-6.398l0.67-2.873c-3.569,3.265-7.137,3.722-9.095,3.722
		c-8.488,0-11.675-7.052-9.909-14.626c2.086-8.945,9.503-14.43,16.751-14.43c2.023,0,5.428,0.523,7.248,3.918L477.719,0z
		 M454.781,33.953c-1.111,4.767,0.963,8.75,5.599,8.75c4.048,0,8.455-2.939,9.795-8.685c1.401-6.007-1.65-8.88-5.698-8.88
		C459.842,25.138,455.924,29.056,454.781,33.953z"/>
	<path fill="#FFFFFF" d="M507.187,41.331c-1.662,2.089-3.787,3.918-5.809,5.028c-2.555,1.437-5.646,2.089-8.583,2.089
		c-3.656,0-6.447-0.914-8.449-3.526c-2.003-2.612-2.556-6.398-1.597-10.512c0.99-4.244,3.452-8.358,7.01-11.296
		c2.818-2.286,6.157-3.722,10.074-3.722c4.375,0,6.741,1.894,7.977,3.591c2.673,3.657,1.812,8.75,1.142,11.623l-0.183,0.784H489.05
		c-0.326,1.958,0.005,4.179,1.056,5.55c1.152,1.501,2.919,1.763,4.486,1.763c1.763,0,3.16-0.392,4.694-1.372
		c1.309-0.849,2.416-1.958,3.248-3.003L507.187,41.331z M503.458,30.166c0.088-1.502-0.325-2.808-1.091-3.722
		c-0.666-0.784-1.854-1.567-3.944-1.567c-2.22,0-3.869,0.915-4.916,1.763c-1.112,0.849-2.134,2.154-2.781,3.526H503.458z"/>
	<path fill="#FFFFFF" d="M529.313,27.358c-0.409-1.044-1.345-2.35-3.369-2.35c-0.914,0-1.644,0.326-2.126,0.718
		c-0.402,0.327-0.786,0.849-0.923,1.437c-0.167,0.719,0.053,1.176,0.548,1.567c0.332,0.261,0.693,0.392,1.896,1.11l2.884,1.632
		c1.269,0.718,2.473,1.437,3.258,2.546c1.151,1.502,1.278,3.199,0.836,5.093c-0.579,2.481-1.995,4.636-3.878,6.269
		c-2.703,2.351-5.547,3.069-8.42,3.069c-1.763,0-3.922-0.261-5.53-1.763c-1.293-1.176-2.157-3.069-2.354-5.028l5.802-2.481
		c0.113,0.914,0.427,2.089,0.893,2.611c0.3,0.392,1.062,1.045,2.563,1.045c0.979,0,2.1-0.326,2.825-0.914
		c0.645-0.522,1.234-1.372,1.417-2.155c0.183-0.783,0.074-1.436-0.361-2.089c-0.601-0.783-1.408-1.24-2.346-1.697l-2.092-1.11
		c-1.103-0.588-2.438-1.306-3.239-2.351c-1.117-1.372-1.289-2.873-0.877-4.636c0.518-2.22,1.869-4.375,3.656-5.876
		c1.546-1.306,3.939-2.612,7.334-2.612c1.959,0,3.434,0.392,4.758,1.437c0.777,0.588,1.773,1.633,2.342,3.396L529.313,27.358z"/>
	<path fill="#FFFFFF" d="M548.894,20.11L542.481,47.6h-6.399l6.412-27.489H548.894z M549.303,4.636c2.351,0,3.703,1.763,3.155,4.113
		c-0.548,2.351-2.723,4.114-5.074,4.114s-3.702-1.763-3.154-4.114C544.778,6.399,546.952,4.636,549.303,4.636z"/>
	<path fill="#FFFFFF" d="M577.098,20.11h6.398l-5.895,25.269c-1.508,6.464-3.307,11.1-7.84,14.299
		c-2.098,1.437-5.321,2.938-9.826,2.938c-3.2,0-6.216-0.784-8.219-3.395c-1.552-2.024-2.373-5.224-2.052-8.554h6.202
		c-0.089,1.501,0.283,3.264,1.019,4.309c0.585,0.849,1.909,1.894,4.52,1.894c2.678,0,4.488-1.045,5.454-1.828
		c2.562-2.024,3.232-4.897,3.704-6.921l0.838-3.591c-3.807,3.722-7.443,3.918-9.271,3.918c-3.525,0-6.235-0.979-8.207-3.722
		c-1.872-2.612-2.637-6.333-1.571-10.904c1.173-5.028,3.874-8.488,6.531-10.643c3.397-2.807,6.89-3.787,10.22-3.787
		c2.742,0,5.598,0.914,7.293,3.722L577.098,20.11z M563.288,26.966c-1.982,1.501-3.752,4.048-4.438,6.987
		c-0.64,2.742-0.219,5.419,1.128,6.921c0.932,1.045,2.512,1.829,4.471,1.829c2.023,0,3.924-0.588,5.872-2.22
		c2.365-2.024,3.436-4.375,3.924-6.464c0.716-3.069,0.269-5.354-0.997-6.921c-1.202-1.567-2.873-1.959-4.701-1.959
		C566.784,25.138,565.044,25.595,563.288,26.966z"/>
	<path fill="#FFFFFF" d="M591.524,20.11h6.399l-0.594,2.547c3.458-3.069,6.637-3.265,8.205-3.265c5.093,0,6.653,2.546,7.228,3.722
		c0.695,1.501,0.906,3.395-0.083,7.639L608.749,47.6h-6.399l3.563-15.279c1.63-6.987-0.936-7.183-3.352-7.183
		c-2.873,0-5.902,0.392-7.974,9.272L591.512,47.6h-6.399L591.524,20.11z"/>
</g>
<g>
	<path fill="#FFFFFF" d="M59.737,155.294c-1.054-4.44-1.4-8.554-1.364-13.189c0.061-6.138,0.815-10.773,2.187-16.65
		c1.417-6.072,2.935-10.904,5.864-17.303c2.142-4.701,4.265-8.488,7.279-12.732l5.343,2.286c-2.596,3.852-5.053,8.227-6.674,11.818
		c-2.141,4.701-4.003,10.447-5.283,15.932c-1.66,7.118-2.05,12.145-2.093,15.41c-0.003,3.657,0.416,8.292,1.15,12.145
		L59.737,155.294z"/>
	<path fill="#FFFFFF" d="M84.232,111.286c1.019-3.526,3.222-6.53,5.702-8.488c3.674-2.873,7.437-3.33,10.31-3.33
		c3.33,0,6.442,0.653,8.565,3.591c1.737,2.351,1.931,5.159,1.2,8.292c-0.488,2.09-1.306,3.918-2.842,5.746
		c-1.617,1.894-3.377,3.003-4.77,3.657c2.021,0.849,3.042,2.35,3.501,3.46c0.815,1.828,0.838,4.244,0.26,6.726
		c-1.005,4.309-3.414,7.639-5.991,9.729c-3.865,3.134-8.13,3.787-11.526,3.787c-3.33,0-6.769-0.653-8.875-3.656
		c-1.472-2.089-2.1-5.55-1.65-8.88h6.398c-0.13,1.959,0.388,3.657,1.254,4.701c0.716,0.849,2.09,1.959,4.832,1.959
		c2.024,0,4.101-0.783,5.52-1.828c1.514-1.175,3.031-3.2,3.717-6.138c0.335-1.437,0.562-3.526-0.756-5.158
		c-1.467-1.828-3.787-1.958-5.158-1.958h-1.306l1.31-5.616h0.914c2.808,0,4.784-0.914,5.992-1.893
		c1.289-1.045,2.323-2.677,2.78-4.636c0.533-2.285-0.127-3.656-0.678-4.375c-1.166-1.437-2.949-1.632-4.255-1.632
		c-1.566,0-3.456,0.261-5.242,1.763c-1.868,1.567-2.742,3.917-2.803,4.179H84.232z"/>
	<path fill="#FFFFFF" d="M146.533,102.275l-13.443,13.124c1.025-0.196,1.889-0.261,2.803-0.261c5.093,0,7.774,2.22,9.11,4.048
		c1.772,2.481,2.406,6.203,1.477,10.186c-0.898,3.853-3.26,8.097-6.868,10.97c-4.494,3.591-9.317,4.113-12.189,4.113
		c-3.787,0-7.718-0.783-10.241-4.244c-1.722-2.416-2.477-5.615-1.487-9.859c0.747-3.199,2.043-5.681,4.039-8.358
		c2.395-3.265,4.548-5.224,7.102-7.77l15.704-15.54L146.533,102.275z M126.43,123.235c-1.755,1.371-3.414,3.722-4.054,6.464
		c-0.518,2.22-0.278,4.832,1.038,6.464c1.066,1.306,3.42,2.416,5.705,2.416c2.024,0,4.688-0.783,6.701-2.416
		c2.013-1.632,3.536-4.244,4.054-6.464c0.518-2.22,0.213-4.832-1.038-6.464c-1.151-1.501-3.354-2.416-5.574-2.416
		S128.348,121.733,126.43,123.235z"/>
	<path fill="#FFFFFF" d="M156.004,139.754c-3.352-5.224-2.732-12.08-1.407-17.76c1.31-5.615,3.919-12.602,9.708-17.825
		c3.474-3.134,7.104-4.701,10.956-4.701s6.752,1.567,8.763,4.701c3.352,5.224,2.702,12.21,1.392,17.825
		c-1.325,5.681-3.904,12.537-9.692,17.76c-3.473,3.134-7.038,4.701-10.956,4.701C160.85,144.455,158.016,142.889,156.004,139.754z
		 M167.177,108.935c-3.254,3.592-5.152,9.207-6.035,12.994c-0.898,3.852-1.605,9.402-0.042,13.059
		c1.224,2.873,3.341,3.591,5.038,3.591s4.15-0.718,6.714-3.591c3.269-3.656,5.151-9.207,6.05-13.059
		c0.883-3.787,1.605-9.402,0.027-12.994c-1.224-2.873-3.341-3.591-5.039-3.591S169.74,106.063,167.177,108.935z"/>
	<path fill="#FFFFFF" d="M185.231,153.009c2.53-3.852,5.114-8.488,6.815-12.145c1.479-3.265,3.436-8.292,5.096-15.41
		c1.279-5.484,2.097-11.23,2.149-15.932c0.054-3.591-0.362-7.966-1.161-11.818l6.409-2.286c1.035,4.244,1.392,8.031,1.34,12.732
		c-0.056,6.399-0.792,11.23-2.208,17.303c-1.371,5.877-2.779,10.513-5.582,16.65c-2.125,4.636-4.392,8.75-7.516,13.189
		L185.231,153.009z"/>
	<path fill="#FFFFFF" d="M254.599,124.606c1.129,2.155,0.893,4.57,0.436,6.53c-1.036,4.44-3.435,7.443-5.624,9.271
		c-2.527,2.155-6.233,4.048-11.195,4.048s-7.785-1.893-9.307-4.048c-1.336-1.828-2.333-4.832-1.297-9.271
		c0.457-1.959,1.347-4.375,3.481-6.53c1.299-1.371,3.171-2.677,5.394-3.525c-1.646-0.784-2.582-2.09-3.091-3.265
		c-0.699-1.763-0.639-3.983-0.182-5.941c0.807-3.461,2.81-6.726,5.773-9.076c1.676-1.306,4.955-3.33,9.722-3.33
		s7.103,2.024,8.169,3.33c1.868,2.35,2.346,5.615,1.539,9.076c-0.457,1.958-1.432,4.179-2.953,5.941
		c-1.058,1.175-2.603,2.481-4.613,3.265C252.676,121.929,253.938,123.235,254.599,124.606z M237.367,125.977
		c-1.61,1.306-2.815,3.396-3.257,5.289c-0.396,1.697-0.201,3.657,0.77,5.093c0.67,1.044,2.029,2.22,4.706,2.22
		s4.584-1.175,5.742-2.22c1.641-1.437,2.751-3.396,3.147-5.093c0.441-1.894,0.21-3.983-0.791-5.289
		c-1.001-1.306-2.792-2.024-4.686-2.024S238.978,124.671,237.367,125.977z M242.161,107.107c-1.368,1.11-2.499,2.873-2.955,4.832
		c-0.472,2.024-0.054,3.591,0.696,4.571c0.886,1.241,2.678,1.958,4.375,1.958s3.823-0.718,5.289-1.958
		c1.208-0.979,2.357-2.546,2.829-4.571c0.457-1.959,0.149-3.722-0.701-4.832c-0.867-1.045-2.331-1.763-4.355-1.763
		S243.515,106.063,242.161,107.107z"/>
	<path fill="#FFFFFF" d="M264.659,141.648l13.313-13.125c-0.895,0.196-1.627,0.261-2.412,0.261c-5.157,0-7.889-2.285-9.241-4.048
		c-1.702-2.22-2.718-5.42-1.667-9.925c1.021-4.375,3.616-8.228,6.854-10.904c3.396-2.808,7.434-4.44,12.265-4.44
		c5.942,0,8.839,2.416,10.226,4.31c1.386,1.894,2.614,5.027,1.487,9.859c-0.731,3.134-2.028,5.615-4.023,8.292
		c-2.394,3.264-4.548,5.224-7.102,7.77l-15.704,15.54L264.659,141.648z M284.808,120.493c2.028-1.698,3.521-4.179,4.054-6.464
		c0.548-2.351,0.167-4.636-1.099-6.203c-1.268-1.567-3.405-2.481-5.625-2.481c-2.416,0-5.025,1.11-6.782,2.481
		c-1.771,1.437-3.414,3.722-4.039,6.399c-0.563,2.416-0.213,4.832,1.038,6.464c1.117,1.371,3.158,2.416,5.574,2.416
		C280.15,123.104,282.698,122.255,284.808,120.493z"/>
	<path fill="#FFFFFF" d="M301.336,139.754c-3.352-5.224-2.732-12.08-1.407-17.76c1.31-5.615,3.919-12.602,9.708-17.825
		c3.474-3.134,7.104-4.701,10.956-4.701s6.752,1.567,8.763,4.701c3.352,5.224,2.702,12.21,1.392,17.825
		c-1.325,5.681-3.904,12.537-9.692,17.76c-3.473,3.134-7.038,4.701-10.956,4.701C306.182,144.455,303.348,142.889,301.336,139.754z
		 M312.509,108.935c-3.254,3.592-5.152,9.207-6.035,12.994c-0.898,3.852-1.605,9.402-0.042,13.059
		c1.224,2.873,3.341,3.591,5.038,3.591s4.15-0.718,6.714-3.591c3.269-3.656,5.151-9.207,6.05-13.059
		c0.883-3.787,1.605-9.402,0.027-12.994c-1.224-2.873-3.341-3.591-5.039-3.591S315.072,106.063,312.509,108.935z"/>
	<path fill="#FFFFFF" d="M378.778,124.606c1.129,2.155,0.893,4.57,0.436,6.53c-1.036,4.44-3.435,7.443-5.624,9.271
		c-2.527,2.155-6.233,4.048-11.195,4.048s-7.785-1.893-9.307-4.048c-1.336-1.828-2.333-4.832-1.297-9.271
		c0.457-1.959,1.347-4.375,3.481-6.53c1.299-1.371,3.171-2.677,5.394-3.525c-1.646-0.784-2.582-2.09-3.091-3.265
		c-0.699-1.763-0.639-3.983-0.182-5.941c0.807-3.461,2.81-6.726,5.773-9.076c1.676-1.306,4.955-3.33,9.722-3.33
		s7.103,2.024,8.169,3.33c1.868,2.35,2.346,5.615,1.539,9.076c-0.457,1.958-1.432,4.179-2.953,5.941
		c-1.058,1.175-2.603,2.481-4.613,3.265C376.855,121.929,378.118,123.235,378.778,124.606z M361.547,125.977
		c-1.61,1.306-2.815,3.396-3.257,5.289c-0.396,1.697-0.201,3.657,0.77,5.093c0.67,1.044,2.029,2.22,4.706,2.22
		s4.584-1.175,5.742-2.22c1.641-1.437,2.751-3.396,3.147-5.093c0.441-1.894,0.21-3.983-0.791-5.289
		c-1.001-1.306-2.792-2.024-4.686-2.024S363.157,124.671,361.547,125.977z M366.34,107.107c-1.368,1.11-2.499,2.873-2.955,4.832
		c-0.472,2.024-0.054,3.591,0.696,4.571c0.886,1.241,2.678,1.958,4.375,1.958s3.823-0.718,5.289-1.958
		c1.208-0.979,2.357-2.546,2.829-4.571c0.457-1.959,0.149-3.722-0.701-4.832c-0.867-1.045-2.331-1.763-4.355-1.763
		S367.694,106.063,366.34,107.107z"/>
	<path fill="#FFFFFF" d="M388.838,141.648l13.313-13.125c-0.895,0.196-1.627,0.261-2.412,0.261c-5.157,0-7.889-2.285-9.241-4.048
		c-1.702-2.22-2.718-5.42-1.667-9.925c1.021-4.375,3.616-8.228,6.854-10.904c3.396-2.808,7.434-4.44,12.266-4.44
		c5.941,0,8.838,2.416,10.225,4.31c1.386,1.894,2.614,5.027,1.487,9.859c-0.731,3.134-2.028,5.615-4.023,8.292
		c-2.394,3.264-4.548,5.224-7.102,7.77l-15.704,15.54L388.838,141.648z M408.986,120.493c2.028-1.698,3.521-4.179,4.054-6.464
		c0.548-2.351,0.167-4.636-1.099-6.203c-1.268-1.567-3.405-2.481-5.625-2.481c-2.416,0-5.025,1.11-6.782,2.481
		c-1.771,1.437-3.414,3.722-4.039,6.399c-0.563,2.416-0.213,4.832,1.038,6.464c1.117,1.371,3.158,2.416,5.574,2.416
		C404.329,123.104,406.877,122.255,408.986,120.493z"/>
	<path fill="#FFFFFF" d="M425.922,141.648l13.313-13.125c-0.895,0.196-1.627,0.261-2.412,0.261c-5.157,0-7.889-2.285-9.241-4.048
		c-1.702-2.22-2.718-5.42-1.667-9.925c1.021-4.375,3.616-8.228,6.854-10.904c3.396-2.808,7.434-4.44,12.266-4.44
		c5.941,0,8.838,2.416,10.225,4.31c1.386,1.894,2.614,5.027,1.487,9.859c-0.731,3.134-2.028,5.615-4.023,8.292
		c-2.394,3.264-4.548,5.224-7.102,7.77l-15.704,15.54L425.922,141.648z M446.07,120.493c2.028-1.698,3.521-4.179,4.054-6.464
		c0.548-2.351,0.167-4.636-1.099-6.203c-1.268-1.567-3.405-2.481-5.625-2.481c-2.416,0-5.025,1.11-6.782,2.481
		c-1.771,1.437-3.414,3.722-4.039,6.399c-0.563,2.416-0.213,4.832,1.038,6.464c1.117,1.371,3.158,2.416,5.574,2.416
		C441.413,123.104,443.961,122.255,446.07,120.493z"/>
	<path fill="#FFFFFF" d="M484.371,106.324h-21.416l1.432-6.138h32.386l-37.932,45.053l-4.462-3.264L484.371,106.324z"/>
</g>
</svg>
