<!-- Generator: Adobe Illustrator 24.0.1, SVG Export Plug-In  -->
<svg version="1.1" xmlns="http://www.w3.org/2000/svg" xmlns:xlink="http://www.w3.org/1999/xlink" x="0px" y="0px" width="36.3px"
	 height="38.5px" viewBox="0 0 36.3 38.5" style="enable-background:new 0 0 36.3 38.5;" xml:space="preserve">
<defs>
</defs>
<path d="M0,16.7v18.9c0,1.6,1.3,2.9,2.9,2.9l10,0c0.9,0,1.6-0.8,1.6-1.8V26c0-1,0.7-1.8,1.6-1.8H20c0.9,0,1.6,0.8,1.6,1.8v10.7
	c0,1,0.7,1.8,1.6,1.8l10.1,0c1.6,0,2.9-1.3,2.9-2.9V16.7c0-0.8-0.3-1.6-0.9-2.1L20.1,0.7c-1.1-1-2.8-1-3.9,0L0.9,14.6
	C0.3,15.1,0,15.9,0,16.7z"/>
</svg>
