<!-- Generator: Adobe Illustrator 24.0.1, SVG Export Plug-In  -->
<svg version="1.1" xmlns="http://www.w3.org/2000/svg" xmlns:xlink="http://www.w3.org/1999/xlink" x="0px" y="0px" width="7.4px"
	 height="6.1px" viewBox="0 0 7.4 6.1" style="enable-background:new 0 0 7.4 6.1;" xml:space="preserve">
<defs>
</defs>
<g>
	<path d="M6.4,6.1H1c-0.6,0-1-0.5-1-1V1c0-0.6,0.5-1,1-1h5.4c0.6,0,1,0.5,1,1v4C7.4,5.6,6.9,6.1,6.4,6.1z M1,0.7
		C0.8,0.7,0.7,0.8,0.7,1v4c0,0.2,0.2,0.3,0.3,0.3h5.4c0.2,0,0.3-0.2,0.3-0.3V1c0-0.2-0.2-0.3-0.3-0.3H1z"/>
</g>
<g>
	<path d="M3.7,3.7c-0.1,0-0.1,0-0.2-0.1L0.1,1.3C0,1.2,0,1,0.1,0.8c0.1-0.2,0.3-0.2,0.5-0.1L3.7,3l3.2-2.2C7,0.6,7.2,0.7,7.3,0.8
		C7.4,1,7.4,1.2,7.3,1.3L3.9,3.6C3.8,3.7,3.8,3.7,3.7,3.7z"/>
</g>
</svg>
