<!-- Generator: Adobe Illustrator 24.0.1, SVG Export Plug-In  -->
<svg version="1.1" xmlns="http://www.w3.org/2000/svg" xmlns:xlink="http://www.w3.org/1999/xlink" x="0px" y="0px" width="159.5px"
	 height="100.8px" viewBox="0 0 159.5 100.8" style="enable-background:new 0 0 159.5 100.8;" xml:space="preserve">
<style type="text/css">
	.st0{fill:#64C6C2;}
	.st1{fill:none;}
	.st2{fill:#FEF08A;}
</style>
<defs>
</defs>
<g>
	<g>
		<g>
			<g>
				<path class="st0" d="M86.2,13.7c-1,0-1.8,0.8-1.8,1.9v15.6h-8.1v-7.9c0-1-0.8-1.9-1.8-1.9s-1.8,0.8-1.8,1.9v29.9
					c0,1,0.8,1.9,1.8,1.9s1.8-0.8,1.8-1.9V34.9h8.1v18.3c0,1,0.8,1.9,1.8,1.9s1.8-0.8,1.8-1.9V15.5C88,14.5,87.1,13.7,86.2,13.7z"/>
			</g>
			<g>
				<path class="st0" d="M45.1,13.7c-3.8,0-7.7,2.9-7.7,8.5v25.9c0,4.5,3.8,6.9,7.7,6.9s7.7-2.4,7.7-6.9v-26
					C52.7,16.6,48.9,13.7,45.1,13.7z M49.1,48.1c0,2.5-2.6,3.2-4.1,3.2s-4.1-0.7-4.1-3.2v-26c0-3.3,2-4.8,4.1-4.8s4.1,1.5,4.1,4.8
					V48.1z"/>
			</g>
			<g>
				<path class="st0" d="M76.1,15.8c0-1-0.8-1.9-1.8-1.9H56c-1,0-1.8,0.8-1.8,1.9c0,1,0.8,1.9,1.8,1.9h3.8v35.7c0,1,0.8,1.9,1.8,1.9
					s1.8-0.8,1.8-1.9V17.7h10.9C75.3,17.7,76.1,16.9,76.1,15.8z"/>
			</g>
			<g>
				<path class="st0" d="M34.8,51.6h-9.9h-0.1v-36c0-1-0.8-1.9-1.8-1.9s-1.8,0.8-1.8,1.9v36.7c0,1.8,1.6,3.1,3.7,3.1h9.9
					c1,0,1.8-0.8,1.8-1.9C36.6,52.4,35.7,51.6,34.8,51.6z"/>
			</g>
		</g>
		<g>
			<g>
				<path d="M3.7,40.1c-1-0.1-1.9,0.2-2.6,0.9C0.4,41.7,0,42.6,0,43.5v55.6c0,1,0.7,1.7,1.7,1.7c0.9,0,1.7-0.8,1.7-1.7v-28
					c8.8-0.8,13.2-8,13.5-14.6C17.2,49.1,12.8,41.1,3.7,40.1z M13.5,56.3C13.2,61.6,10,66.9,3.3,67.6V43.5
					C10.7,44.4,13.8,50.7,13.5,56.3z"/>
			</g>
			<g>
				<path d="M26.8,62c-1.2,0-2.3,0.3-3.4,1c-0.3-0.6-0.8-1-1.5-1c-0.9,0-1.7,0.8-1.7,1.7v34.6c0,1,0.8,1.7,1.7,1.7s1.7-0.8,1.7-1.7
					v-29c0-2.7,1.6-3.9,3.2-3.9s3.2,1.2,3.2,3.9c0,1,0.8,1.7,1.7,1.7c0.9,0,1.7-0.8,1.7-1.7C33.4,64.5,30.1,62,26.8,62z"/>
			</g>
			<g>
				<path d="M45.2,62c-3.3,0-5.9,3.6-5.9,8.3v21.8c0,4.8,2.7,8.5,6.1,8.5h0.7c2.8,0,5.1-3.1,5.1-7v-2.8c0-1-0.8-1.7-1.7-1.7
					s-1.7,0.8-1.7,1.7v2.8c0,2.1-1,3.5-1.7,3.5h-0.7c-1.3,0-2.8-2.1-2.8-5.1V81.4h4.8c2,0,3.6-2.1,3.6-4.8v-6.4
					C51.2,65.6,48.6,62,45.2,62z M47.8,76.6c0,0.7-0.3,1.2-0.4,1.3h-4.8v-7.7c0-2.7,1.4-4.8,2.6-4.8s2.6,2.1,2.6,4.8L47.8,76.6
					L47.8,76.6z"/>
			</g>
			<g>
				<path d="M63.4,77.1c-2.7-1.6-3.5-5.9-2.5-8.7c0.6-1.6,1.9-3.4,4.9-2.9c0.9,0.2,1.8-0.5,1.9-1.4c0.1-0.9-0.4-1.8-1.3-2
					c-4-0.7-7.3,1.2-8.6,5.1c-1.5,4.2-0.4,10.3,4,12.9c5.5,3.3,6,10.2,4.3,13.9c-0.8,1.6-2.6,4.1-6.3,2.5c-0.9-0.3-1.8,0.1-2.2,1
					c-0.3,0.9,0.1,1.9,0.9,2.3c1.2,0.5,2.4,0.7,3.5,0.7c3,0,5.6-1.8,7.1-5C71.6,89.8,70,81.1,63.4,77.1z"/>
			</g>
			<g>
				<path d="M82.5,62h-0.9c-3.3,0-6.1,3.3-6.1,7.4v23.8c0,4.1,2.7,7.4,6.1,7.4h0.9c3.3,0,6.1-3.3,6.1-7.4V92c0-1-0.8-1.7-1.7-1.7
					s-1.7,0.8-1.7,1.7v1.2c0,2.1-1.3,3.9-2.7,3.9h-0.9c-1.5,0-2.7-1.8-2.7-3.9V69.3c0-2.1,1.3-3.9,2.7-3.9h0.9
					c1.5,0,2.7,1.8,2.7,3.9v1c0,1,0.8,1.7,1.7,1.7s1.7-0.8,1.7-1.7v-1C88.6,65.3,85.9,62,82.5,62z"/>
			</g>
			<g>
				<path d="M119.4,62h-0.9c-3.4,0-6.1,3.3-6.1,7.4v23.8c0,4.1,2.7,7.4,6.1,7.4h0.9c3.4,0,6.1-3.3,6.1-7.4V69.3
					C125.4,65.3,122.7,62,119.4,62z M122.1,93.2c0,2.1-1.3,3.9-2.7,3.9h-0.9c-1.5,0-2.7-1.8-2.7-3.9V69.3c0-2.1,1.3-3.9,2.7-3.9h0.9
					c1.5,0,2.7,1.8,2.7,3.9V93.2z"/>
			</g>
			<g>
				<path d="M137.8,62h-0.9c-3.4,0-6.1,3.3-6.1,7.4v23.8c0,4.1,2.7,7.4,6.1,7.4h0.9c3.4,0,6.1-3.3,6.1-7.4V69.3
					C143.9,65.3,141.1,62,137.8,62z M140.5,93.2c0,2.1-1.3,3.9-2.7,3.9h-0.9c-1.5,0-2.7-1.8-2.7-3.9V69.3c0-2.1,1.3-3.9,2.7-3.9h0.9
					c1.5,0,2.7,1.8,2.7,3.9V93.2z"/>
			</g>
			<g>
				<path d="M101,62h-0.9c-1,0-1.9,0.3-2.7,0.8V41.3c0-1-0.8-1.7-1.7-1.7S94,40.4,94,41.3v28v29c0,1,0.8,1.7,1.7,1.7
					s1.7-0.8,1.7-1.7v-29c0-2.1,1.3-3.9,2.7-3.9h0.9c1.5,0,2.7,1.8,2.7,3.9v29c0,1,0.8,1.7,1.7,1.7s1.7-0.8,1.7-1.7v-29
					C107,65.3,104.3,62,101,62z"/>
			</g>
			<g>
				<path d="M157.9,92.7c-1,0-1.8,0.8-1.8,1.8c0,1.8-1.1,2.4-1.9,2.4s-1.9-0.6-1.9-2.4V41.3c0-1-0.8-1.8-1.8-1.8s-1.8,0.8-1.8,1.8
					v53.2c0,4,2.7,6.1,5.4,6.1s5.4-2.1,5.4-6.1C159.7,93.5,158.9,92.7,157.9,92.7z"/>
			</g>
		</g>
		<g>
			<path class="st1" d="M132.5,57.5"/>
		</g>
		<g>
			<path class="st1" d="M127.1,57.9"/>
		</g>
		<g>
			<path class="st2" d="M145.5,42.2c-0.3-1-1.2-1.6-2.2-1.3l-6.8,1.9c-0.6-1.6-1.3-3.2-2.1-4.7l10.3-6.2c0.9-0.5,1.1-1.7,0.7-2.5
				c-0.5-0.9-1.6-1.2-2.4-0.7l-10.3,6.2c-1-1.6-2.1-3-3.3-4.5l5.8-4.6c0.8-0.6,0.9-1.8,0.3-2.6c-0.6-0.8-1.7-1-2.5-0.3l-6,4.8
				c-1.1-1.1-2.3-2.2-3.5-3.2L134,11.8c0.6-0.8,0.6-2-0.2-2.6c-0.8-0.7-1.9-0.6-2.5,0.2l-10.7,12.9c-1.4-1-2.9-1.9-4.4-2.7l3.1-5.5
				c0.5-0.9,0.2-2-0.6-2.6c-0.9-0.5-2-0.2-2.5,0.7l-3.3,5.8c-1.2-0.5-2.4-1-3.8-1.5l4.6-14c0.3-1-0.2-2-1.1-2.4
				c-0.9-0.3-2,0.2-2.3,1.2l-4.7,14.3c-1.8-0.5-3.6-0.8-5.4-1.1l0.9-6.3c0.1-1-0.6-2-1.5-2.1c-1-0.1-1.9,0.6-2,1.6l-0.9,6.4
				c-1.3-0.1-2.5-0.2-3.8-0.2c-1,0-1.8,0.8-1.8,1.9s0.8,1.9,1.8,1.9c6.9,0,14.2,1.6,19.9,4.4c2.4,1.2,4.7,2.6,6.8,4.2l0,0
				c0.1,0.1,0.2,0.1,0.3,0.2c1.9,1.5,3.8,3.1,5.4,4.9c0,0,0,0,0.1,0.1s0.2,0.2,0.3,0.3c1.8,2,3.4,4.2,4.8,6.6c0,0,0,0.1,0.1,0.1
				l0.1,0.1c1.3,2.2,2.3,4.6,3.1,7l0,0c0,0,0,0.1,0.1,0.2c1.2,3.8,1.9,7.8,1.9,11.9c0,1,0.8,1.9,1.8,1.9s1.8-0.8,1.8-1.9
				c0-3.8-0.5-7.6-1.5-11.2l6.6-1.8C145.2,44.2,145.7,43.2,145.5,42.2z"/>
		</g>
	</g>
</g>
</svg>
