<?xml version="1.0" encoding="utf-8"?>
<!-- Generator: Adobe Illustrator 23.0.1, SVG Export Plug-In . SVG Version: 6.00 Build 0)  -->
<svg version="1.1" id="Layer_1" xmlns="http://www.w3.org/2000/svg" xmlns:xlink="http://www.w3.org/1999/xlink" x="0px" y="0px"
	 viewBox="0 0 210 156.3" style="enable-background:new 0 0 210 156.3;" xml:space="preserve">
<style type="text/css">
	.st0{fill:#64C6C2;}
	.st1{fill:none;}
	.st2{fill:#FEF087;}
</style>
<g>
	<g>
		<g>
			<path class="st0" d="M197.1,4c4.9,0,8.8,4,8.8,8.9v130.6c0,2.4-0.9,4.6-2.6,6.3c-1.7,1.7-3.9,2.6-6.3,2.6H12.9
				c-4.9,0-8.9-4-8.9-8.9V12.9C4,8,8,4,12.9,4H197.1 M197.1,0H12.9C5.8,0,0,5.8,0,12.9v130.6c0,7.1,5.8,12.9,12.8,12.9h184.3
				c7.1,0,12.9-5.8,12.8-12.9V12.9C209.9,5.8,204.2,0,197.1,0L197.1,0z"/>
		</g>
	</g>
	<g>
		<g>
			<g>
				<path class="st0" d="M111.9,37.1c-1,0-1.8,0.8-1.8,1.9v15.6H102v-7.9c0-1-0.8-1.9-1.8-1.9s-1.8,0.8-1.8,1.9v29.9
					c0,1,0.8,1.9,1.8,1.9s1.8-0.8,1.8-1.9V58.3h8.1v18.3c0,1,0.8,1.9,1.8,1.9c1,0,1.8-0.8,1.8-1.9V38.9
					C113.7,37.9,112.8,37.1,111.9,37.1z"/>
			</g>
			<g>
				<path class="st0" d="M70.8,37.1c-3.8,0-7.7,2.9-7.7,8.5v25.9c0,4.5,3.8,6.9,7.7,6.9s7.7-2.4,7.7-6.9V45.5
					C78.4,40,74.6,37.1,70.8,37.1z M74.8,71.5c0,2.5-2.6,3.2-4.1,3.2s-4.1-0.7-4.1-3.2V45.5c0-3.3,2-4.8,4.1-4.8s4.1,1.5,4.1,4.8
					V71.5z"/>
			</g>
			<g>
				<path class="st0" d="M101.8,39.2c0-1-0.8-1.9-1.8-1.9H81.7c-1,0-1.8,0.8-1.8,1.9c0,1,0.8,1.9,1.8,1.9h3.8v35.7
					c0,1,0.8,1.9,1.8,1.9c1,0,1.8-0.8,1.8-1.9V41.1H100C101,41.1,101.8,40.3,101.8,39.2z"/>
			</g>
			<g>
				<path class="st0" d="M60.5,75h-9.9c0,0-0.1,0-0.1,0v-36c0-1-0.8-1.9-1.8-1.9c-1,0-1.8,0.8-1.8,1.9v36.7c0,1.8,1.6,3.1,3.7,3.1
					h9.9c1,0,1.8-0.8,1.8-1.9C62.3,75.8,61.4,75,60.5,75z"/>
			</g>
		</g>
		<g>
			<g>
				<path d="M29.4,63.5c-1-0.1-1.9,0.2-2.6,0.9c-0.7,0.7-1.1,1.6-1.1,2.5v55.6c0,1,0.7,1.7,1.7,1.7c0.9,0,1.7-0.8,1.7-1.7V94.5
					c8.8-0.8,13.2-8,13.5-14.6C42.9,72.5,38.5,64.5,29.4,63.5z M39.2,79.7C38.9,85,35.7,90.3,29,91l0-24.1
					C36.4,67.8,39.5,74.1,39.2,79.7z"/>
			</g>
			<g>
				<path d="M52.5,85.4c-1.2,0-2.3,0.3-3.4,1c-0.3-0.6-0.8-1-1.5-1c-0.9,0-1.7,0.8-1.7,1.7v34.6c0,1,0.8,1.7,1.7,1.7
					s1.7-0.8,1.7-1.7v-29c0-2.7,1.6-3.9,3.2-3.9s3.2,1.2,3.2,3.9c0,1,0.8,1.7,1.7,1.7c0.9,0,1.7-0.8,1.7-1.7
					C59.1,87.9,55.8,85.4,52.5,85.4z"/>
			</g>
			<g>
				<path d="M70.9,85.4c-3.3,0-5.9,3.6-5.9,8.3v21.8c0,4.8,2.7,8.5,6.1,8.5h0.7c2.8,0,5.1-3.1,5.1-7v-2.8c0-1-0.8-1.7-1.7-1.7
					s-1.7,0.8-1.7,1.7v2.8c0,2.1-1,3.5-1.7,3.5h-0.7c-1.3,0-2.8-2.1-2.8-5.1v-10.6h4.8c2,0,3.6-2.1,3.6-4.8v-6.4
					C76.9,89,74.3,85.4,70.9,85.4z M73.5,100c0,0.7-0.3,1.2-0.4,1.3h-4.8v-7.7c0-2.7,1.4-4.8,2.6-4.8s2.6,2.1,2.6,4.8L73.5,100
					L73.5,100z"/>
			</g>
			<g>
				<path d="M89.1,100.5c-2.7-1.6-3.5-5.9-2.5-8.7c0.6-1.6,1.9-3.4,4.9-2.9c0.9,0.2,1.8-0.5,1.9-1.4s-0.4-1.8-1.3-2
					c-4-0.7-7.3,1.2-8.6,5.1c-1.5,4.2-0.4,10.3,4,12.9c5.5,3.3,6,10.2,4.3,13.9c-0.8,1.6-2.6,4.1-6.3,2.5c-0.9-0.3-1.8,0.1-2.2,1
					c-0.3,0.9,0.1,1.9,0.9,2.3c1.2,0.5,2.4,0.7,3.5,0.7c3,0,5.6-1.8,7.1-5C97.3,113.2,95.7,104.5,89.1,100.5z"/>
			</g>
			<g>
				<path d="M108.2,85.4h-0.9c-3.3,0-6.1,3.3-6.1,7.4v23.8c0,4.1,2.7,7.4,6.1,7.4h0.9c3.3,0,6.1-3.3,6.1-7.4v-1.2
					c0-1-0.8-1.7-1.7-1.7s-1.7,0.8-1.7,1.7v1.2c0,2.1-1.3,3.9-2.7,3.9h-0.9c-1.5,0-2.7-1.8-2.7-3.9V92.7c0-2.1,1.3-3.9,2.7-3.9h0.9
					c1.5,0,2.7,1.8,2.7,3.9v1c0,1,0.8,1.7,1.7,1.7s1.7-0.8,1.7-1.7v-1C114.3,88.7,111.6,85.4,108.2,85.4z"/>
			</g>
			<g>
				<path d="M145.1,85.4h-0.9c-3.4,0-6.1,3.3-6.1,7.4v23.8c0,4.1,2.7,7.4,6.1,7.4h0.9c3.4,0,6.1-3.3,6.1-7.4V92.7
					C151.1,88.7,148.4,85.4,145.1,85.4z M147.8,116.6c0,2.1-1.3,3.9-2.7,3.9h-0.9c-1.5,0-2.7-1.8-2.7-3.9V92.7
					c0-2.1,1.3-3.9,2.7-3.9h0.9c1.5,0,2.7,1.8,2.7,3.9V116.6z"/>
			</g>
			<g>
				<path d="M163.5,85.4h-0.9c-3.4,0-6.1,3.3-6.1,7.4v23.8c0,4.1,2.7,7.4,6.1,7.4h0.9c3.4,0,6.1-3.3,6.1-7.4V92.7
					C169.6,88.7,166.8,85.4,163.5,85.4z M166.2,116.6c0,2.1-1.3,3.9-2.7,3.9h-0.9c-1.5,0-2.7-1.8-2.7-3.9V92.7
					c0-2.1,1.3-3.9,2.7-3.9h0.9c1.5,0,2.7,1.8,2.7,3.9V116.6z"/>
			</g>
			<g>
				<path d="M126.7,85.4h-0.9c-1,0-1.9,0.3-2.7,0.8V64.7c0-1-0.8-1.7-1.7-1.7s-1.7,0.8-1.7,1.7v28v29c0,1,0.8,1.7,1.7,1.7
					s1.7-0.8,1.7-1.7v-29c0-2.1,1.3-3.9,2.7-3.9h0.9c1.5,0,2.7,1.8,2.7,3.9v29c0,1,0.8,1.7,1.7,1.7s1.7-0.8,1.7-1.7v-29
					C132.7,88.7,130,85.4,126.7,85.4z"/>
			</g>
			<g>
				<path d="M183.6,116.1c-1,0-1.8,0.8-1.8,1.8c0,1.8-1.1,2.4-1.9,2.4s-1.9-0.6-1.9-2.4V64.7c0-1-0.8-1.8-1.8-1.8s-1.8,0.8-1.8,1.8
					v53.2c0,4,2.7,6.1,5.4,6.1s5.4-2.1,5.4-6.1C185.4,116.9,184.6,116.1,183.6,116.1z"/>
			</g>
		</g>
		<g>
			<path class="st1" d="M158.2,80.9"/>
		</g>
		<g>
			<path class="st1" d="M152.8,81.3"/>
		</g>
		<g>
			<path class="st2" d="M171.2,65.6c-0.3-1-1.2-1.6-2.2-1.3l-6.8,1.9c-0.6-1.6-1.3-3.2-2.1-4.7l10.3-6.2c0.9-0.5,1.1-1.7,0.7-2.5
				c-0.5-0.9-1.6-1.2-2.4-0.7l-10.3,6.2c-1-1.6-2.1-3-3.3-4.5l5.8-4.6c0.8-0.6,0.9-1.8,0.3-2.6c-0.6-0.8-1.7-1-2.5-0.3l-6,4.8
				c-1.1-1.1-2.3-2.2-3.5-3.2l10.5-12.7c0.6-0.8,0.6-2-0.2-2.6c-0.8-0.7-1.9-0.6-2.5,0.2l-10.7,12.9c-1.4-1-2.9-1.9-4.4-2.7l3.1-5.5
				c0.5-0.9,0.2-2-0.6-2.6c-0.9-0.5-2-0.2-2.5,0.7l-3.3,5.8c-1.2-0.5-2.4-1-3.8-1.5l4.6-14c0.3-1-0.2-2-1.1-2.4
				c-0.9-0.3-2,0.2-2.3,1.2l-4.7,14.3c-1.8-0.5-3.6-0.8-5.4-1.1l0.9-6.3c0.1-1-0.6-2-1.5-2.1c-1-0.1-1.9,0.6-2,1.6l-0.9,6.4
				c-1.3-0.1-2.5-0.2-3.8-0.2c-1,0-1.8,0.8-1.8,1.9s0.8,1.9,1.8,1.9c6.9,0,14.2,1.6,19.9,4.4c2.4,1.2,4.7,2.6,6.8,4.2l0,0
				c0.1,0.1,0.2,0.1,0.3,0.2c1.9,1.5,3.8,3.1,5.4,4.9c0,0,0,0,0.1,0.1c0.1,0.1,0.2,0.2,0.3,0.3c1.8,2,3.4,4.2,4.8,6.6
				c0,0,0,0.1,0.1,0.1c0,0,0.1,0.1,0.1,0.1c1.3,2.2,2.3,4.6,3.1,7c0,0,0,0,0,0c0,0,0,0.1,0.1,0.2c1.2,3.8,1.9,7.8,1.9,11.9
				c0,1,0.8,1.9,1.8,1.9s1.8-0.8,1.8-1.9c0-3.8-0.5-7.6-1.5-11.2l6.6-1.8C170.9,67.6,171.4,66.6,171.2,65.6z"/>
		</g>
	</g>
</g>
</svg>
