<!-- Generator: Adobe Illustrator 24.0.1, SVG Export Plug-In  -->
<svg version="1.1" xmlns="http://www.w3.org/2000/svg" xmlns:xlink="http://www.w3.org/1999/xlink" x="0px" y="0px"
	 width="210.54px" height="210.54px" viewBox="0 0 210.54 210.54" enable-background="new 0 0 210.54 210.54" xml:space="preserve">
<defs>
</defs>
<g>
	<rect fill="none" width="210.54" height="210.54"/>
	<g>
		<g>
			<path d="M111.718,71.873c-0.801,0-1.442,0.641-1.442,1.522v12.493h-6.487v-6.327c0-0.801-0.641-1.522-1.442-1.522
				c-0.801,0-1.442,0.641-1.442,1.522v23.946c0,0.801,0.641,1.522,1.442,1.522c0.801,0,1.442-0.641,1.442-1.522V88.851h6.487v14.656
				c0,0.801,0.641,1.522,1.442,1.522c0.801,0,1.442-0.641,1.442-1.522V73.315C113.16,72.514,112.439,71.873,111.718,71.873z"/>
		</g>
		<g>
			<path d="M78.803,71.873c-3.043,0-6.167,2.323-6.167,6.807v20.742c0,3.604,3.043,5.526,6.167,5.526s6.167-1.922,6.167-5.526V78.6
				C84.889,74.195,81.846,71.873,78.803,71.873z M82.006,99.423c0,2.002-2.082,2.563-3.284,2.563s-3.284-0.561-3.284-2.563V78.6
				c0-2.643,1.602-3.844,3.284-3.844s3.284,1.201,3.284,3.844V99.423z"/>
		</g>
		<g>
			<path d="M103.63,73.555c0-0.801-0.641-1.522-1.442-1.522H87.532c-0.801,0-1.442,0.641-1.442,1.522
				c0,0.801,0.641,1.522,1.442,1.522h3.043v28.591c0,0.801,0.641,1.522,1.442,1.522s1.442-0.641,1.442-1.522V75.076h8.729
				C102.989,75.076,103.63,74.436,103.63,73.555z"/>
		</g>
		<g>
			<path d="M70.554,102.226h-7.929h-0.08V73.395c0-0.801-0.641-1.522-1.442-1.522s-1.442,0.641-1.442,1.522v29.392
				c0,1.442,1.281,2.483,2.963,2.483h7.929c0.801,0,1.442-0.641,1.442-1.522S71.275,102.226,70.554,102.226z"/>
		</g>
	</g>
	<g>
		<g>
			<path d="M45.647,93.016c-0.801-0.08-1.522,0.16-2.082,0.721c-0.561,0.561-0.881,1.281-0.881,2.002v44.528
				c0,0.801,0.561,1.361,1.361,1.361c0.721,0,1.361-0.641,1.361-1.361v-22.424c7.048-0.641,10.571-6.407,10.812-11.693
				C56.459,100.223,52.935,93.817,45.647,93.016z M53.496,105.99c-0.24,4.245-2.803,8.489-8.169,9.05V95.739
				C51.253,96.459,53.736,101.505,53.496,105.99z"/>
		</g>
		<g>
			<path d="M64.147,110.555c-0.961,0-1.842,0.24-2.723,0.801c-0.24-0.481-0.641-0.801-1.201-0.801c-0.721,0-1.361,0.641-1.361,1.361
				v27.71c0,0.801,0.641,1.361,1.361,1.361s1.361-0.641,1.361-1.361v-23.225c0-2.162,1.281-3.123,2.563-3.123
				c1.281,0,2.563,0.961,2.563,3.123c0,0.801,0.641,1.361,1.361,1.361c0.721,0,1.361-0.641,1.361-1.361
				C69.433,112.557,66.79,110.555,64.147,110.555z"/>
		</g>
		<g>
			<path d="M78.883,110.555c-2.643,0-4.725,2.883-4.725,6.647v17.459c0,3.844,2.162,6.807,4.885,6.807h0.561
				c2.242,0,4.084-2.483,4.084-5.606v-2.242c0-0.801-0.641-1.361-1.361-1.361s-1.361,0.641-1.361,1.361v2.242
				c0,1.682-0.801,2.803-1.361,2.803h-0.561c-1.041,0-2.242-1.682-2.242-4.084v-8.489h3.844c1.602,0,2.883-1.682,2.883-3.844v-5.126
				C83.688,113.438,81.606,110.555,78.883,110.555z M80.965,122.247c0,0.561-0.24,0.961-0.32,1.041h-3.844v-6.167
				c0-2.162,1.121-3.844,2.082-3.844s2.082,1.682,2.082,3.844L80.965,122.247L80.965,122.247z"/>
		</g>
		<g>
			<path d="M93.459,122.648c-2.162-1.281-2.803-4.725-2.002-6.967c0.481-1.281,1.522-2.723,3.924-2.323
				c0.721,0.16,1.442-0.4,1.522-1.121c0.08-0.721-0.32-1.442-1.041-1.602c-3.203-0.561-5.846,0.961-6.887,4.084
				c-1.201,3.364-0.32,8.249,3.203,10.331c4.405,2.643,4.805,8.169,3.444,11.132c-0.641,1.281-2.082,3.284-5.045,2.002
				c-0.721-0.24-1.442,0.08-1.762,0.801c-0.24,0.721,0.08,1.522,0.721,1.842c0.961,0.4,1.922,0.561,2.803,0.561
				c2.403,0,4.485-1.442,5.686-4.004C100.026,132.819,98.744,125.851,93.459,122.648z"/>
		</g>
		<g>
			<path d="M108.755,110.555h-0.721c-2.643,0-4.885,2.643-4.885,5.926v19.061c0,3.284,2.162,5.926,4.885,5.926h0.721
				c2.643,0,4.885-2.643,4.885-5.926v-0.961c0-0.801-0.641-1.361-1.361-1.361s-1.361,0.641-1.361,1.361v0.961
				c0,1.682-1.041,3.123-2.162,3.123h-0.721c-1.201,0-2.162-1.442-2.162-3.123v-19.141c0-1.682,1.041-3.123,2.162-3.123h0.721
				c1.201,0,2.162,1.442,2.162,3.123v0.801c0,0.801,0.641,1.361,1.361,1.361s1.361-0.641,1.361-1.361v-0.801
				C113.64,113.197,111.478,110.555,108.755,110.555z"/>
		</g>
		<g>
			<path d="M138.307,110.555h-0.721c-2.723,0-4.885,2.643-4.885,5.926v19.061c0,3.284,2.162,5.926,4.885,5.926h0.721
				c2.723,0,4.885-2.643,4.885-5.926v-19.141C143.112,113.197,140.95,110.555,138.307,110.555z M140.469,135.541
				c0,1.682-1.041,3.123-2.162,3.123h-0.721c-1.201,0-2.162-1.442-2.162-3.123v-19.141c0-1.682,1.041-3.123,2.162-3.123h0.721
				c1.201,0,2.162,1.442,2.162,3.123V135.541z"/>
		</g>
		<g>
			<path d="M153.043,110.555h-0.721c-2.723,0-4.885,2.643-4.885,5.926v19.061c0,3.284,2.162,5.926,4.885,5.926h0.721
				c2.723,0,4.885-2.643,4.885-5.926v-19.141C157.928,113.197,155.686,110.555,153.043,110.555z M155.205,135.541
				c0,1.682-1.041,3.123-2.162,3.123h-0.721c-1.201,0-2.162-1.442-2.162-3.123v-19.141c0-1.682,1.041-3.123,2.162-3.123h0.721
				c1.201,0,2.162,1.442,2.162,3.123V135.541z"/>
		</g>
		<g>
			<path d="M123.571,110.555h-0.721c-0.801,0-1.522,0.24-2.162,0.641V93.977c0-0.801-0.641-1.361-1.361-1.361
				s-1.361,0.641-1.361,1.361v22.424v23.225c0,0.801,0.641,1.361,1.361,1.361s1.361-0.641,1.361-1.361v-23.225
				c0-1.682,1.041-3.123,2.162-3.123h0.721c1.201,0,2.162,1.442,2.162,3.123v23.225c0,0.801,0.641,1.361,1.361,1.361
				c0.721,0,1.361-0.641,1.361-1.361v-23.225C128.376,113.197,126.214,110.555,123.571,110.555z"/>
		</g>
		<g>
			<path d="M169.14,135.141c-0.801,0-1.442,0.641-1.442,1.442c0,1.442-0.881,1.922-1.522,1.922c-0.641,0-1.522-0.481-1.522-1.922
				V93.977c0-0.801-0.641-1.442-1.442-1.442c-0.801,0-1.442,0.641-1.442,1.442v42.606c0,3.203,2.162,4.885,4.325,4.885
				s4.325-1.682,4.325-4.885C170.582,135.782,169.941,135.141,169.14,135.141z"/>
		</g>
	</g>
	<g>
		<path d="M148.798,106.951"/>
	</g>
	<g>
		<path d="M144.473,107.271"/>
	</g>
	<g>
		<path d="M159.209,94.698c-0.24-0.801-0.961-1.281-1.762-1.041l-5.446,1.522c-0.481-1.281-1.041-2.563-1.682-3.764l8.249-4.965
			c0.721-0.4,0.881-1.361,0.561-2.002c-0.4-0.721-1.281-0.961-1.922-0.561l-8.249,4.965c-0.801-1.281-1.682-2.403-2.643-3.604
			l4.645-3.684c0.641-0.481,0.721-1.442,0.24-2.082c-0.481-0.641-1.361-0.801-2.002-0.24l-4.805,3.844
			c-0.881-0.881-1.842-1.762-2.803-2.563l8.409-10.171c0.481-0.641,0.481-1.602-0.16-2.082c-0.641-0.561-1.522-0.481-2.002,0.16
			l-8.569,10.331c-1.121-0.801-2.322-1.522-3.524-2.162l2.483-4.405c0.4-0.721,0.16-1.602-0.481-2.082
			c-0.721-0.4-1.602-0.16-2.002,0.561l-2.643,4.645c-0.961-0.4-1.922-0.801-3.043-1.201l3.684-11.212
			c0.24-0.801-0.16-1.602-0.881-1.922c-0.721-0.24-1.602,0.16-1.842,0.961l-3.764,11.452c-1.442-0.4-2.883-0.641-4.325-0.881
			l0.721-5.045c0.08-0.801-0.481-1.602-1.201-1.682c-0.801-0.08-1.522,0.481-1.602,1.281l-0.721,5.126
			c-1.041-0.08-2.002-0.16-3.043-0.16c-0.801,0-1.442,0.641-1.442,1.522c0,0.881,0.641,1.522,1.442,1.522
			c5.526,0,11.372,1.281,15.937,3.524c1.922,0.961,3.764,2.082,5.446,3.364l0,0c0.08,0.08,0.16,0.08,0.24,0.16
			c1.522,1.201,3.043,2.483,4.325,3.924c0,0,0,0,0.08,0.08c0.08,0.08,0.16,0.16,0.24,0.24c1.442,1.602,2.723,3.364,3.844,5.286
			c0,0,0,0.08,0.08,0.08l0.08,0.08c1.041,1.762,1.842,3.684,2.483,5.606l0,0c0,0,0,0.08,0.08,0.16
			c0.961,3.043,1.522,6.247,1.522,9.53c0,0.801,0.641,1.522,1.442,1.522c0.801,0,1.442-0.641,1.442-1.522
			c0-3.043-0.4-6.087-1.201-8.97l5.286-1.442C158.969,96.299,159.369,95.498,159.209,94.698z"/>
	</g>
</g>
</svg>
