<!-- Generator: Adobe Illustrator 24.0.1, SVG Export Plug-In  -->
<svg version="1.1" xmlns="http://www.w3.org/2000/svg" xmlns:xlink="http://www.w3.org/1999/xlink" x="0px" y="0px"
	 width="210.54px" height="210.54px" viewBox="0 0 210.54 210.54" enable-background="new 0 0 210.54 210.54" xml:space="preserve">
<defs>
</defs>
<rect fill="#373D72" width="210.54" height="210.54"/>
<g>
	<g>
		<path fill="#FFFFFF" d="M74.513,93.189c-0.092-0.092-0.184-0.092-0.276-0.092c-0.276,0-0.643,0.276-0.643,0.643v35.37
			c0,0.184,0.092,0.459,0.367,0.551l31.236,18.098c0.092,0,0.184,0.092,0.276,0.092c0.092,0,0.184,0,0.276-0.092l31.236-18.006
			c0.184-0.092,0.276-0.367,0.276-0.551V93.74c0-0.367-0.276-0.643-0.643-0.643c-0.092,0-0.184,0-0.276,0.092l-6.431,3.767
			c-0.827-1.378-1.654-2.572-2.664-3.767l6.798-3.859c0.735-0.459,1.746-0.735,2.572-0.735c2.94,0,5.328,2.297,5.328,5.237v35.37
			c0,1.837-1.011,3.583-2.572,4.502l-31.236,18.006c-0.735,0.459-1.746,0.735-2.572,0.735c-0.919,0-1.837-0.276-2.572-0.735
			l-31.236-18.006c-1.562-0.919-2.572-2.664-2.572-4.502V93.74c0-2.848,2.389-5.237,5.237-5.237c0.919,0,1.837,0.276,2.572,0.735
			l11.576,6.615c2.94-3.307,6.798-5.696,11.208-6.798c1.194-0.276,2.021-1.378,2.021-2.664V75.642c0-0.735-0.643-1.378-1.378-1.378
			l-4.318,0.092v-8.268l4.41-0.276c0.735,0,1.286-0.643,1.286-1.378V58.83l7.533-0.735v5.696c0,0.735,0.643,1.378,1.47,1.378
			l5.053-0.276v9.187l-5.145,0.092c-0.735,0-1.378,0.643-1.378,1.378v10.932c0,1.194,0.827,2.297,2.021,2.664
			c5.788,1.562,10.749,5.512,13.78,10.657l-2.756,1.562c-2.48,1.47-5.604,1.102-7.717-0.827c-2.48-2.113-5.696-3.491-9.279-3.491
			c-3.491,0-6.615,1.286-9.095,3.399l0,0l5.145,2.94c1.194-0.643,2.572-1.011,4.042-1.011c3.215,0,5.972,1.746,7.533,4.318
			l-6.798,3.859c-0.459,0.276-1.011,0.276-1.47,0L74.513,93.189z"/>
	</g>
	<g>
		<path fill="#FFFFFF" d="M125.868,123.965l-2.94-1.654c-0.459-0.276-1.011-0.276-1.562,0l-2.94,1.654v-11.759
			c0-2.48,1.378-4.869,3.491-6.063l3.859-2.205L125.868,123.965L125.868,123.965z"/>
	</g>
</g>
</svg>
