<?xml version="1.0" encoding="utf-8"?>
<!-- Generator: Adobe Illustrator 24.0.1, SVG Export Plug-In . SVG Version: 6.00 Build 0)  -->
<svg version="1.1" id="Layer_1" xmlns="http://www.w3.org/2000/svg" xmlns:xlink="http://www.w3.org/1999/xlink" x="0px" y="0px"
	 width="210.5px" height="210.5px" viewBox="0 0 210.5 210.5" style="enable-background:new 0 0 210.5 210.5;" xml:space="preserve"
	>
<style type="text/css">
	.st0{fill:none;}
</style>
<g>
	<rect class="st0" width="210.5" height="210.5"/>
	<rect x="95.6" y="107.2" width="2.7" height="35.8"/>
	<polygon points="103.2,67.6 100.6,67.6 100.6,101.2 100.6,103.9 103.2,103.9 118.2,103.9 118.2,101.2 103.2,101.2 	"/>
	<path d="M102,107.2h-1.6v35.8h2.7v-11.6c4.7-0.2,8.6-1.4,11.4-3.6c2.8-2.2,4.4-5.2,4.4-8.5C118.9,113.5,113.6,107.2,102,107.2z
		 M112.9,125.8c-2.4,1.9-5.8,2.9-9.8,3.1v-18.9c9,0.3,13.2,5.1,13.2,9.5C116.3,121.8,115,124.1,112.9,125.8z"/>
	<rect x="95.7" y="67.6" width="2.7" height="36.3"/>
	<path d="M146.7,91.5h0.8V63.6h-5.6h-1.7h-32.5v1.7h32.5v20.9h1.7V65.3h3.9v24.5c-3.4,0.2-6.3,1.7-8.4,4.4c-2,2.5-3,5.9-3,9.5
		s1.1,7,3,9.5c2.1,2.7,5,4.2,8.4,4.4v27.5h-3.9v-23.3h-1.7v23.3h-32.5v1.7h32.5h1.7h5.6v-29.1v-1v-0.6h-0.8
		c-7.3,0-10.6-6.4-10.6-12.3c0-3.3,1-6.3,2.7-8.5C140.7,92.8,143.4,91.5,146.7,91.5z"/>
	<path d="M96.6,145.2H71.7v-23.7H70v23.7h-4.7v-27.5c3.7-0.2,6.8-1.7,9-4.4c2.1-2.5,3.3-5.9,3.3-9.6c0-3.6-1.2-7-3.3-9.6
		c-2.2-2.7-5.3-4.2-9-4.4V65.3h4.4v20.9h1.7V65.3h31.9v-1.7H71.4h-1.7h-6.1v27.8h0.8c7.8,0,11.4,6.4,11.4,12.3c0,3.3-1,6.3-2.9,8.5
		c-2.1,2.5-5,3.8-8.5,3.8h-0.8v0.6v1v29.1h33h0.9h5.8v-1.7h-5.8L96.6,145.2C96.6,145.2,96.6,145.2,96.6,145.2z"/>
</g>
</svg>
