<!-- Generator: Adobe Illustrator 23.1.0, SVG Export Plug-In  -->
<svg version="1.1" xmlns="http://www.w3.org/2000/svg" xmlns:xlink="http://www.w3.org/1999/xlink" x="0px" y="0px"
	 width="493.277px" height="143.953px" viewBox="0 0 493.277 143.953" enable-background="new 0 0 493.277 143.953"
	 xml:space="preserve">
<defs>
</defs>
<path fill="#AA5B5D" d="M9.222,2.417H0V48.89h1.586c11.893,0,17.312,10.467,17.312,20.194c0,5.359-1.561,10.332-4.393,14.01
	c-3.122,4.048-7.59,6.189-12.914,6.189H0.005v51.422h56.58v-3.172H12.394V98.9H9.222v38.633H3.172V92.391
	c5.472-0.295,10.536-2.988,13.84-7.36c3.257-4.228,5.054-9.887,5.054-15.941s-1.796-11.718-5.054-15.941
	c-3.306-4.368-8.369-7.057-13.84-7.35V5.589h6.044v34.645h3.172V5.589H56.58V2.417H9.222z"/>
<path fill="#FFEAC0" d="M132.014,1.931l-23.702,61.939h3.352l20.344-53.173l2.001,5.244l-18.338,47.929h3.352l6.049-15.816h21.22
	l6.049,15.816h3.352L132.014,1.931z M126.18,45.197l9.507-24.873l9.507,24.873H126.18z"/>
<path fill="#FFEAC0" d="M180.208,91.986l-17.182,47.169h-4.003l20.079-55.119l-1.791-4.288l-22.806,62.575h10.743l6.049-16.612
	h21.22l6.049,16.612h3.352l-19.914-54.619L180.208,91.986z M172.368,122.712l9.507-26.124l9.507,26.124H172.368z"/>
<path fill="#FFEAC0" d="M77.825,80.743h-0.881h-2.292v58.061h-4.168V80.728l-3.172-0.025v61.274H77.82v-20.229
	c16.637-0.36,24.227-10.788,24.227-20.515S94.457,81.103,77.825,80.743z M77.825,118.554V83.93
	c14.445,0.35,21.06,9.127,21.06,17.312s-6.615,16.962-21.06,17.317V118.554z"/>
<polygon fill="#FFEAC0" points="122.432,80.337 119.26,80.337 119.26,139.199 115.092,139.199 115.092,80.337 111.92,80.337
	111.92,142.371 119.26,142.371 122.432,142.371 145.163,142.371 145.163,139.199 122.432,139.199 "/>
<polygon fill="#FFEAC0" points="168.22,5.059 172.388,5.059 172.388,63.921 175.56,63.921 175.56,36.206 196.49,63.555
	200.483,63.555 177.041,32.918 201.599,1.931 197.551,1.931 175.56,29.681 175.56,5.059 175.56,1.886 172.388,1.886 168.22,1.886
	165.048,1.886 165.048,5.059 165.048,63.921 168.22,63.921 "/>
<polygon fill="#FFEAC0" points="70.485,5.059 74.648,5.059 74.648,63.921 100.557,63.921 100.557,60.748 77.82,60.748 77.82,1.886
	67.313,1.886 67.313,63.921 70.485,63.921 "/>
<polygon fill="#FFEAC0" points="215.008,5.059 218.711,5.059 218.711,23.262 218.711,26.434 218.711,60.748 218.711,62.334
	218.711,63.921 257.564,63.921 257.564,60.748 221.878,60.748 221.878,26.434 235.428,26.434 235.428,23.262 221.878,23.262
	221.878,5.059 250.033,5.059 250.033,1.886 211.836,1.886 211.836,63.921 215.008,63.921 "/>
<path fill="#FFEAC0" d="M333.433,1.581h-3.367l-15.366,43.296l-8.081-17.452l-6.274,12.709l0,0L291.718,56.5L272.324,1.886h-10.708
	l22.276,62.76h3.367L266.11,5.054h3.973l21.055,59.327l10.507-19.969l9.392,20.219L333.433,1.581z M303.511,40.859l3.002-6.084
	l6.66,14.38l-2.502,7.095L303.511,40.859z"/>
<path fill="#FFEAC0" d="M384.619,33.589C384.619,15.076,373.156,0,359.066,0s-25.548,15.066-25.548,33.589
	c0,13.244,5.929,25.288,15.111,30.677c3.154,1.895,6.763,2.901,10.442,2.912c4.631-0.049,9.116-1.621,12.764-4.473
	C379.721,56.735,384.619,45.577,384.619,33.589z M342.244,13.575v40.069c-3.502-5.444-5.559-12.509-5.559-20.014
	c0.005-7.705,2.107-14.715,5.559-20.069V13.575z M359.066,64.021c-3.115-0.014-6.168-0.87-8.836-2.477l0,0
	c-1.778-1.063-3.4-2.368-4.818-3.878V9.507c3.783-3.968,8.506-6.34,13.65-6.34c12.339,0,22.381,13.645,22.381,30.417
	c0,11.008-4.418,21.205-11.508,26.594c-3.103,2.436-6.923,3.781-10.868,3.828V64.021z"/>
<path fill="#FFEAC0" d="M326.232,78.971c-12.859,0-23.322,14.335-23.322,31.958c0,12.589,5.399,24.017,13.75,29.171
	c2.866,1.809,6.183,2.776,9.572,2.792c4.271-0.054,8.396-1.563,11.693-4.278c7.17-5.684,11.628-16.292,11.628-27.68
	C349.554,93.332,339.092,78.971,326.232,78.971z M311.887,90.745v40.354c-3.648-5.289-5.804-12.474-5.804-20.169
	c0-7.856,2.217-14.981,5.799-20.184H311.887z M335.959,136.127c-2.738,2.268-6.167,3.535-9.722,3.593
	c-2.802-0.018-5.543-0.822-7.911-2.322c-1.174-0.733-2.268-1.589-3.262-2.552V86.992c3.202-3.057,7.045-4.848,11.178-4.848
	c11.113,0,20.149,12.914,20.149,28.786c-0.015,10.422-4.018,20.099-10.437,25.198L335.959,136.127z"/>
<path fill="#FFEAC0" d="M419.879,0.766c-14.09,0-25.553,14.68-25.553,32.723c0,12.909,5.939,24.648,15.126,29.896
	c3.165,1.844,6.76,2.819,10.422,2.827c4.607-0.042,9.077-1.566,12.749-4.348c7.896-5.819,12.804-16.697,12.804-28.38
	C445.447,15.461,433.969,0.766,419.879,0.766z M403.057,14.03v38.933c-3.503-5.289-5.559-12.159-5.559-19.474
	c0-7.43,2.101-14.235,5.559-19.439V14.03z M430.747,59.317c-3.128,2.377-6.939,3.684-10.868,3.728
	c-3.111-0.01-6.165-0.842-8.851-2.412c-1.764-1.025-3.379-2.287-4.798-3.753V10.097c3.783-3.858,8.506-6.159,13.65-6.159
	c12.339,0,22.381,13.259,22.381,29.551c0,10.718-4.413,20.615-11.513,25.848V59.317z"/>
<path fill="#FFEAC0" d="M459.022,4.113h4.168V62.97h1.586c8.806,0,16.212-3.382,21.415-9.782c4.568-5.619,7.085-13.159,7.085-21.235
	s-2.502-15.616-7.085-21.235c-4.888-6.004-11.718-9.362-19.829-9.742v-0.04h-10.507V62.98h3.172L459.022,4.113z M490.099,31.958
	c0,13.009-7.44,26.954-23.737,27.805V4.153C482.659,5.004,490.099,18.959,490.099,31.958z"/>
<polygon fill="#FFEAC0" points="286.744,109.348 262.907,109.348 262.907,80.337 259.735,80.337 259.735,109.348 259.735,112.52
	259.735,139.199 255.682,139.199 255.682,80.337 252.51,80.337 252.51,142.371 254.096,142.371 255.682,142.371 259.735,142.371
	261.321,142.371 262.907,142.371 262.907,112.52 286.744,112.52 286.744,142.897 289.917,142.897 289.917,112.52 289.917,109.348
	289.917,80.868 286.744,80.868 "/>
<path fill="#FFEAC0" d="M424.177,108.342c-1.666-0.126-3.306-0.483-4.873-1.061V85.936c4.398-1.906,10.227-2.402,16.962-1.386
	l1.566,0.235l0.475-3.137l-1.566-0.235c-7.005-1.061-13.229-0.58-18.093,1.356l-0.035-0.075l-1.426,0.696l-1.426,0.696l0.03,0.065
	c-4.278,2.542-7.005,6.45-7.55,10.858h-0.105v1.586v1.586h0.11c0.69,6.129,5.654,12.509,15.786,13.35
	c2.674,0.029,5.323,0.525,7.826,1.466v24.317c-5.419,2.622-12.569,2.162-20.294-1.456l-1.436-0.67l-1.346,2.872l1.436,0.67
	c5.404,2.502,10.007,3.442,13.845,3.442c7.14,0,11.633-3.172,13.665-5.054c5.074-4.698,6.935-11.944,4.638-18.013
	C439.858,112.505,433.204,108.592,424.177,108.342z M411.298,96.599c0.025-3.502,1.756-6.655,4.833-8.911v17.938
	c-2.985-2.031-4.79-5.391-4.833-9.001V96.599z M435.545,134.776c-0.175,0.16-0.36,0.305-0.54,0.455v-20.54
	c1.983,1.347,3.507,3.267,4.368,5.504c1.846,4.908,0.31,10.773-3.828,14.6V134.776z"/>
<polygon fill="#FFEAC0" points="462.8,138.719 459.022,138.719 459.022,79.862 455.85,79.862 455.85,141.891 462.8,141.891
	462.8,141.951 493.272,141.951 493.272,138.779 465.972,138.779 465.972,104.404 478.936,104.404 478.936,101.232 465.972,101.232
	465.972,83.089 493.272,83.089 493.272,79.917 462.8,79.917 "/>
<polygon fill="#FFEAC0" points="224.735,103.028 214.998,79.742 211.556,79.742 223.134,107.417 223.134,138.954 219.081,138.954
	219.081,109.193 206.762,79.742 203.325,79.742 215.909,109.828 215.909,142.126 226.306,142.126 226.306,107.497 237.915,79.742
	234.477,79.742 "/>
<path fill="#FFEAC0" d="M394.806,127.661c0,7.235-5.334,13.119-11.893,13.119h-7.135c-1.192-0.001-2.375-0.199-3.502-0.585V81.988
	h-3.172v56.51c-3.339-2.597-5.268-6.608-5.214-10.838V81.923h-3.172v45.738c0,9.006,6.76,16.292,15.066,16.292h7.12
	c8.306,0,15.066-7.31,15.066-16.292V81.923h-3.172L394.806,127.661z"/>
</svg>
