<!-- Generator: Adobe Illustrator 24.1.2, SVG Export Plug-In  -->
<svg version="1.1" xmlns="http://www.w3.org/2000/svg" xmlns:xlink="http://www.w3.org/1999/xlink" x="0px" y="0px"
	 width="453.057px" height="549.622px" viewBox="0 0 453.057 549.622"
	 overflow="visible" enable-background="new 0 0 453.057 549.622" xml:space="preserve">
<defs>
</defs>
<path fill="#E0EDC4" d="M302.84,527.993c-0.757-1.1-2.261-1.373-3.358-0.62l-6.769,4.66l-9.529-9.161l2.955-2.176
	c3.383-2.489,5.402-6.483,5.402-10.685v-2.503c0-5.095-4.844-9.239-10.798-9.239h-1.754c-5.953,0-10.797,4.145-10.797,9.239v2.002
	c0,3.589,1.484,7.075,4.072,9.565l3.439,3.306l-4.563,3.358c-2.702,1.989-4.316,5.182-4.316,8.538v2.102
	c0,5.095,4.844,9.24,10.797,9.24c2.533,0,4.976-0.76,7.062-2.196l7.522-5.179l6.971,6.701c0.469,0.45,1.071,0.674,1.674,0.674
	c0.634,0,1.267-0.249,1.741-0.741c0.924-0.962,0.894-2.49-0.067-3.415l-6.258-6.015l5.953-4.098
	C303.319,530.594,303.596,529.091,302.84,527.993z M275.613,515.594c-1.646-1.584-2.59-3.801-2.59-6.084v-2.002
	c0-2.391,2.732-4.409,5.967-4.409h1.754c3.235,0,5.968,2.019,5.968,4.409v2.503c0,2.672-1.284,5.212-3.436,6.796l-3.625,2.669
	L275.613,515.594z M281.946,539.446c-1.277,0.879-2.772,1.344-4.323,1.344c-3.234,0-5.967-2.02-5.967-4.41v-2.102
	c0-1.828,0.878-3.565,2.35-4.649l5.231-3.852l9.416,9.051L281.946,539.446z"/>
<path fill="#E0EDC4" d="M329.031,481.413c-1.334,0-2.415,1.081-2.415,2.415v47.604c0,1.334,1.081,2.415,2.415,2.415
	s2.415-1.081,2.415-2.415v-47.604C331.446,482.494,330.365,481.413,329.031,481.413z"/>
<path fill="#E0EDC4" d="M329.031,536.922c-1.334,0-2.415,1.081-2.415,2.415v3.867c0,1.334,1.081,2.415,2.415,2.415
	s2.415-1.081,2.415-2.415v-3.867C331.446,538.003,330.365,536.922,329.031,536.922z"/>
<path fill="#E0EDC4" d="M26.98,481.528h-2.969c-11.254,0-20.07,6.038-20.07,13.746v36.865c0,7.708,8.816,13.747,20.07,13.747h2.969
	c5.352,0,10.373-1.399,14.14-3.94c1.105-0.746,1.397-2.247,0.651-3.353c-0.747-1.106-2.248-1.397-3.353-0.651
	c-2.934,1.979-7.103,3.114-11.438,3.114h-2.969c-8.262,0-15.24-4.083-15.24-8.917v-36.865c0-4.833,6.979-8.916,15.24-8.916h2.969
	c8.262,0,15.24,4.083,15.24,8.916v34.123c-2.497-0.713-3.898-2.399-4.438-3.187v-25.681c0-4.848-4.986-8.646-11.352-8.646h-1.87
	c-6.364,0-11.351,3.798-11.351,8.646c0,1.334,1.081,2.415,2.415,2.415s2.415-1.081,2.415-2.415c0-1.805,2.678-3.815,6.521-3.815
	h1.87c3.844,0,6.521,2.011,6.521,3.815v7.354h-6.549c-7.397,0-13.193,3.747-13.193,8.529v10.474c0,4.848,4.986,8.646,11.351,8.646
	h1.87c4.14,0,7.685-1.612,9.666-4.068c1.841,1.576,4.623,3.092,8.539,3.092c1.334,0,2.415-1.081,2.415-2.415v-36.865
	C47.05,487.566,38.234,481.528,26.98,481.528z M32.951,526.885c0,1.805-2.678,3.815-6.521,3.815h-1.87
	c-3.843,0-6.521-2.011-6.521-3.815v-10.474c0-1.509,3.258-3.699,8.363-3.699h6.549V526.885z"/>
<path fill="#E0EDC4" d="M447.632,481.438c-1.182-0.613-2.642-0.155-3.256,1.029l-31.425,60.453
	c-0.615,1.183-0.154,2.641,1.029,3.256c0.355,0.185,0.736,0.272,1.111,0.272c0.872,0,1.715-0.474,2.145-1.302l31.425-60.453
	C449.277,483.511,448.816,482.053,447.632,481.438z"/>
<path fill="#E0EDC4" d="M441.576,516.549h-1.034c-4.057,0-7.356,2.889-7.356,6.438v17.021c0,3.551,3.3,6.439,7.356,6.439h1.034
	c4.057,0,7.357-2.889,7.357-6.439v-17.021C448.934,519.438,445.633,516.549,441.576,516.549z M444.104,540.009
	c0,0.76-1.081,1.609-2.527,1.609h-1.034c-1.446,0-2.526-0.85-2.526-1.609v-17.021c0-0.76,1.08-1.608,2.526-1.608h1.034
	c1.446,0,2.527,0.849,2.527,1.608V540.009z"/>
<path fill="#E0EDC4" d="M420.035,511.065h1.034c4.057,0,7.357-2.889,7.357-6.439v-17.021c0-3.55-3.301-6.438-7.357-6.438h-1.034
	c-4.057,0-7.356,2.889-7.356,6.438v17.021C412.679,508.176,415.979,511.065,420.035,511.065z M417.509,487.604
	c0-0.76,1.08-1.608,2.526-1.608h1.034c1.446,0,2.527,0.849,2.527,1.608v17.021c0,0.76-1.081,1.609-2.527,1.609h-1.034
	c-1.446,0-2.526-0.85-2.526-1.609V487.604z"/>
<path fill="#E0EDC4" d="M79.14,486.358c1.334,0,2.415-1.081,2.415-2.415s-1.081-2.415-2.415-2.415
	c-5.954,0-10.798,4.145-10.798,9.239v45.993c0,5.095,4.844,9.24,10.798,9.24c1.334,0,2.415-1.081,2.415-2.415
	s-1.081-2.415-2.415-2.415c-3.235,0-5.968-2.02-5.968-4.41v-45.993C73.172,488.376,75.905,486.358,79.14,486.358z"/>
<path fill="#E0EDC4" d="M95.071,481.528c-1.334,0-2.415,1.081-2.415,2.415s1.081,2.415,2.415,2.415c3.235,0,5.968,2.019,5.968,4.409
	v45.993c0,2.391-2.732,4.41-5.968,4.41c-1.334,0-2.415,1.081-2.415,2.415S93.737,546,95.071,546c5.954,0,10.798-4.146,10.798-9.24
	v-45.993C105.868,485.672,101.025,481.528,95.071,481.528z"/>
<path fill="#E0EDC4" d="M244.694,505.776v-15.123c0-5.095-4.844-9.24-10.797-9.24c-1.334,0-2.415,1.081-2.415,2.415
	s1.081,2.415,2.415,2.415c3.234,0,5.967,2.02,5.967,4.41v16.161c0,0.663,0.272,1.297,0.754,1.753l5.363,5.083l-5.363,5.082
	c-0.481,0.456-0.754,1.09-0.754,1.753v16.161c0,2.391-2.732,4.41-5.967,4.41c-1.334,0-2.415,1.081-2.415,2.415
	s1.081,2.415,2.415,2.415c5.953,0,10.797-4.146,10.797-9.24v-15.123l6.458-6.12c0.481-0.456,0.754-1.09,0.754-1.753
	s-0.272-1.297-0.754-1.753L244.694,505.776z"/>
<path fill="#E0EDC4" d="M211.007,506.814v-16.161c0-2.391,2.732-4.41,5.968-4.41c1.334,0,2.415-1.081,2.415-2.415
	s-1.081-2.415-2.415-2.415c-5.954,0-10.798,4.146-10.798,9.24v15.123l-6.458,6.121c-0.481,0.456-0.754,1.09-0.754,1.753
	s0.272,1.297,0.754,1.753l6.458,6.12v15.123c0,5.095,4.844,9.24,10.798,9.24c1.334,0,2.415-1.081,2.415-2.415
	s-1.081-2.415-2.415-2.415c-3.235,0-5.968-2.02-5.968-4.41v-16.161c0-0.663-0.272-1.297-0.754-1.753l-5.363-5.082l5.363-5.083
	C210.735,508.111,211.007,507.477,211.007,506.814z"/>
<path fill="#E0EDC4" d="M144.703,486.243c1.334,0,2.415-1.081,2.415-2.415s-1.081-2.415-2.415-2.415h-8.382
	c-1.334,0-2.415,1.081-2.415,2.415v59.644c0,1.334,1.081,2.415,2.415,2.415h8.382c1.334,0,2.415-1.081,2.415-2.415
	s-1.081-2.415-2.415-2.415h-5.967v-54.813h5.967V486.243z"/>
<path fill="#E0EDC4" d="M171.751,481.413h-8.383c-1.334,0-2.415,1.081-2.415,2.415s1.081,2.415,2.415,2.415h5.968v54.813h-5.968
	c-1.334,0-2.415,1.081-2.415,2.415s1.081,2.415,2.415,2.415h8.383c1.334,0,2.415-1.081,2.415-2.415v-59.644
	C174.166,482.494,173.085,481.413,171.751,481.413z"/>
<path fill="#E0EDC4" d="M375.033,508.42v-21.703c1.386,0.153,2.822,0.582,4.272,1.298c1.197,0.588,2.644,0.098,3.234-1.098
	c0.59-1.196,0.099-2.644-1.098-3.234c-2.131-1.051-4.297-1.646-6.409-1.805v-2.917c0-1.334-1.081-2.415-2.415-2.415
	s-2.415,1.081-2.415,2.415v3.366c-1.416,0.388-2.77,0.996-4.021,1.841c-4.346,2.932-6.799,8.067-6.401,13.403
	c0.432,5.799,4.205,10.826,10.423,13.859v29.132c-2.654,0.155-5.435-0.54-8.184-2.088c-1.163-0.654-2.635-0.244-3.289,0.918
	c-0.655,1.162-0.243,2.635,0.918,3.289c3.223,1.815,6.575,2.724,9.833,2.724c0.241,0,0.481-0.015,0.722-0.025v1.827
	c0,1.334,1.081,2.415,2.415,2.415s2.415-1.081,2.415-2.415v-2.736c1.283-0.441,2.529-1.031,3.717-1.789
	c5.754-3.668,9.13-10.44,8.603-17.254C387.028,521.237,384.935,513.741,375.033,508.42z M364.596,497.213
	c-0.265-3.558,1.418-7.106,4.287-9.041c0.423-0.286,0.867-0.519,1.32-0.724v18.451C366.824,503.682,364.854,500.664,364.596,497.213
	z M376.154,538.611c-0.367,0.234-0.742,0.439-1.12,0.632v-25.164c4.524,3.093,7.15,7.139,7.505,11.724
	C382.93,530.861,380.424,535.889,376.154,538.611z"/>
<path fill="#E0EDC4" d="M103.457,349.483v-1.507c0-1.334-1.081-2.415-2.415-2.415s-2.415,1.081-2.415,2.415v1.507
	c0,2.391-2.732,4.41-5.967,4.41h-1.754c-3.235,0-5.968-2.02-5.968-4.41v-46.644c0-2.391,2.732-4.409,5.968-4.409h1.754
	c3.234,0,5.967,2.019,5.967,4.409v1.22c0,1.334,1.081,2.415,2.415,2.415s2.415-1.081,2.415-2.415v-1.22
	c0-5.095-4.844-9.239-10.797-9.239h-1.754c-5.954,0-10.798,4.145-10.798,9.239v46.644c0,5.095,4.844,9.24,10.798,9.24h1.754
	C98.614,358.723,103.457,354.578,103.457,349.483z"/>
<path fill="#E0EDC4" d="M341.741,293.6l-9.259-0.082c-0.008,0-0.015,0-0.021,0c-1.324,0-2.403,1.067-2.415,2.394
	c-0.012,1.334,1.061,2.424,2.394,2.437l6.865,0.061v51.074c0,2.391-2.732,4.41-5.967,4.41h-1.755c-3.234,0-5.967-2.02-5.967-4.41
	v-1.507c0-1.334-1.081-2.415-2.415-2.415s-2.415,1.081-2.415,2.415v1.507c0,5.095,4.844,9.24,10.797,9.24h1.755
	c5.953,0,10.797-4.146,10.797-9.24v-53.468C344.135,294.69,343.067,293.612,341.741,293.6z"/>
<path fill="#E0EDC4" d="M65.86,313.262l-0.018-9.818c0-6.503-5.863-9.912-11.657-9.92h-9.276c-1.334,0-2.415,1.081-2.415,2.415
	l0.018,29.937v24.13l-0.018,6.089c-0.002,0.642,0.252,1.258,0.705,1.712s1.068,0.71,1.71,0.71h10.153
	c5.954,0,10.798-4.146,10.798-9.24v-23.402c0-2.638-1.167-4.712-2.97-6.206C64.704,318.123,65.86,315.827,65.86,313.262z
	 M61.03,349.276c0,2.391-2.732,4.41-5.968,4.41H47.33l0.011-27.813v-0.001v-0.001l-0.003-4.195h6.846
	c2.752,0,6.845,1.117,6.845,4.197L61.03,349.276L61.03,349.276z M47.335,316.846l-0.012-18.492h6.858
	c2.537,0.003,6.83,1.078,6.83,5.094l0.018,9.818c0,1.975-1.606,3.58-3.581,3.58h-3.264L47.335,316.846L47.335,316.846z"/>
<path fill="#E0EDC4" d="M138.073,349.276l-0.017-45.832c0-6.503-5.863-9.912-11.657-9.92h-9.276c-1.334,0-2.415,1.081-2.415,2.415
	l0.017,54.066l-0.017,6.089c-0.001,0.642,0.252,1.258,0.705,1.712s1.068,0.71,1.71,0.71h10.153
	C133.229,358.516,138.073,354.371,138.073,349.276z M127.276,353.686h-7.732l0.011-27.813c0-0.001,0-0.001,0-0.002l-0.017-27.518
	h6.858c2.537,0.003,6.83,1.078,6.83,5.091l0.017,45.831C133.242,351.667,130.51,353.686,127.276,353.686z"/>
<path fill="#E0EDC4" d="M172.267,298.348c1.334-0.006,2.41-1.092,2.404-2.426c-0.006-1.33-1.086-2.404-2.415-2.404
	c-0.003,0-0.007,0-0.011,0l-18.519,0.082c-1.329,0.006-2.404,1.086-2.404,2.415v60.293c0,1.334,1.081,2.415,2.415,2.415h18.519
	c1.334,0,2.415-1.081,2.415-2.415s-1.081-2.415-2.415-2.415h-16.104v-32.216l8.458-0.001c1.334-0.001,2.415-1.082,2.415-2.415
	c-0.001-1.334-1.082-2.415-2.415-2.415l-8.458,0.001v-18.428L172.267,298.348z"/>
<path fill="#E0EDC4" d="M199.287,321.676c1.334-0.001,2.415-1.082,2.415-2.415c-0.001-1.334-1.082-2.415-2.415-2.415l-8.528,0.001
	v-18.499h16.104c1.334,0,2.415-1.081,2.415-2.415s-1.081-2.415-2.415-2.415h-18.519c-1.334,0-2.415,1.081-2.415,2.415v60.375
	c0,1.334,1.081,2.415,2.415,2.415s2.415-1.081,2.415-2.415v-34.631L199.287,321.676z"/>
<path fill="#E0EDC4" d="M233.087,358.723c5.954,0,10.798-4.146,10.798-9.24v-18.317c0-1.334-1.081-2.415-2.415-2.415h-9.26
	c-1.334,0-2.415,1.081-2.415,2.415s1.081,2.415,2.415,2.415h6.845v15.902c0,2.391-2.732,4.41-5.968,4.41h-1.754
	c-3.234,0-5.967-2.02-5.967-4.41v-46.644c0-2.391,2.732-4.409,5.967-4.409h1.754c3.235,0,5.968,2.019,5.968,4.409v1.22
	c0,1.334,1.081,2.415,2.415,2.415s2.415-1.081,2.415-2.415v-1.22c0-5.095-4.844-9.239-10.798-9.239h-1.754
	c-5.953,0-10.797,4.145-10.797,9.239v46.644c0,5.095,4.844,9.24,10.797,9.24L233.087,358.723L233.087,358.723z"/>
<path fill="#E0EDC4" d="M275.978,321.677v34.631c0,1.334,1.081,2.415,2.415,2.415s2.415-1.081,2.415-2.415v-60.375
	c0-1.334-1.081-2.415-2.415-2.415s-2.415,1.081-2.415,2.415v20.914l-12.321-0.001v-20.913c0-1.334-1.081-2.415-2.415-2.415
	s-2.415,1.081-2.415,2.415v60.375c0,1.334,1.081,2.415,2.415,2.415s2.415-1.081,2.415-2.415v-34.632L275.978,321.677z"/>
<path fill="#E0EDC4" d="M377.326,293.367c-1.334,0-2.415,1.081-2.415,2.415v18.753c0,5.946-3.522,9.788-8.975,9.788h-4.714v-28.541
	c0-1.334-1.081-2.415-2.415-2.415s-2.415,1.081-2.415,2.415v60.526c0,1.334,1.081,2.415,2.415,2.415s2.415-1.081,2.415-2.415
	v-27.155h4.714c5.893,0,8.975,5.293,8.975,10.522v16.633c0,1.334,1.081,2.415,2.415,2.415s2.415-1.081,2.415-2.415v-16.633
	c0-5.472-2.32-10.103-5.983-12.806c3.715-2.505,5.983-6.9,5.983-12.335v-18.753C379.741,294.448,378.66,293.367,377.326,293.367z"/>
<path fill="#E0EDC4" d="M395.366,358.723h18.519c1.334,0,2.415-1.081,2.415-2.415s-1.081-2.415-2.415-2.415h-16.102l0.047-57.958
	c0.001-1.334-1.079-2.416-2.413-2.417c-0.001,0-0.001,0-0.002,0c-1.333,0-2.414,1.08-2.415,2.413l-0.049,60.375
	c0,0.641,0.254,1.256,0.707,1.709S394.726,358.723,395.366,358.723z"/>
<path fill="#E0EDC4" d="M451.854,356.308v-60.375c0-1.198-0.879-2.215-2.063-2.389c-1.184-0.173-2.318,0.546-2.664,1.693
	l-6.94,23.093l-6.952-23.241c-0.344-1.148-1.474-1.861-2.663-1.697c-1.186,0.174-2.065,1.191-2.065,2.39v60.526
	c0,1.334,1.081,2.415,2.415,2.415s2.415-1.081,2.415-2.415V312.28l4.531,15.15c0.306,1.021,1.245,1.722,2.312,1.723
	c0.001,0,0.001,0,0.002,0c1.065,0,2.006-0.699,2.313-1.72l4.531-15.077v43.952c0,1.334,1.081,2.415,2.415,2.415
	S451.854,357.642,451.854,356.308z"/>
<path fill="#E0EDC4" d="M24.829,358.298c1.334,0,2.415-1.081,2.415-2.415v-52.445c0-6.512-5.873-9.919-11.675-9.919
	c-5.801,0-11.674,3.407-11.674,9.919v52.445c0,1.334,1.081,2.415,2.415,2.415s2.415-1.081,2.415-2.415v-33.498h13.688v33.498
	C22.414,357.217,23.495,358.298,24.829,358.298z M8.726,317.555v-14.117c0-4.026,4.477-5.09,6.844-5.09
	c2.368,0,6.845,1.063,6.845,5.09v14.117H8.726z"/>
<path fill="#E0EDC4" d="M307.636,298.348c1.334,0,2.415-1.081,2.415-2.415s-1.081-2.415-2.415-2.415h-6.127h-5.825
	c-1.334,0-2.415,1.081-2.415,2.415s1.081,2.415,2.415,2.415h3.41v55.545h-3.41c-1.334,0-2.415,1.081-2.415,2.415
	s1.081,2.415,2.415,2.415h5.825h6.127c1.334,0,2.415-1.081,2.415-2.415s-1.081-2.415-2.415-2.415h-3.712v-55.545L307.636,298.348
	L307.636,298.348z"/>
<path fill="#E0EDC4" d="M190.528,65.79c1.334,0,2.415-1.081,2.415-2.415V23.259h6.845c1.334,0,2.415-1.081,2.415-2.415
	s-1.081-2.415-2.415-2.415h-6.845V9.371c0-3.473,4.477-4.391,6.845-4.391c2.367,0,6.844,0.918,6.844,4.391
	c0,1.334,1.081,2.415,2.415,2.415s2.415-1.081,2.415-2.415c0-6.053-5.873-9.22-11.674-9.22c-5.802,0-11.675,3.167-11.675,9.22
	v54.004C188.113,64.709,189.194,65.79,190.528,65.79z"/>
<path fill="#E0EDC4" d="M15.399,65.355h1.754c5.953,0,10.797-4.145,10.797-9.239V27.245c0-5.095-4.844-9.24-10.797-9.24h-1.754
	c-5.954,0-10.798,4.146-10.798,9.24c0,1.334,1.081,2.415,2.415,2.415s2.415-1.081,2.415-2.415c0-2.391,2.732-4.41,5.968-4.41h1.754
	c3.234,0,5.967,2.02,5.967,4.41v8.285h-5.993c-7.023,0-12.525,4.003-12.525,9.112v11.474C4.602,61.211,9.445,65.355,15.399,65.355z
	 M9.432,44.643c0-2.025,3.16-4.282,7.695-4.282h5.993v15.756c0,2.391-2.732,4.409-5.967,4.409h-1.754
	c-3.235,0-5.968-2.019-5.968-4.409V44.643H9.432z"/>
<path fill="#E0EDC4" d="M159.069,65.355h2.612c5.235,0,8.893-3.228,8.893-7.849v-2.512c0-1.334-1.081-2.415-2.415-2.415
	s-2.415,1.081-2.415,2.415v2.512c0,2.801-3.109,3.019-4.063,3.019h-2.612c-1.991,0-4.639-0.51-4.639-4.92v-13.46h9.991
	c3.393,0,6.152-2.725,6.152-6.072V28.32c0-5.688-4.705-10.314-10.487-10.314S149.6,22.633,149.6,28.32v27.286
	C149.601,61.619,153.229,65.355,159.069,65.355z M154.431,28.319c0-3.024,2.537-5.484,5.656-5.484s5.657,2.46,5.657,5.484v7.753
	c0,0.686-0.593,1.242-1.322,1.242h-9.991V28.319z"/>
<path fill="#E0EDC4" d="M87.488,65.355h1.754c5.954,0,10.798-4.145,10.798-9.239v-1.507c0-1.334-1.081-2.415-2.415-2.415
	s-2.415,1.081-2.415,2.415v1.507c0,2.391-2.732,4.409-5.968,4.409h-1.754c-3.234,0-5.967-2.019-5.967-4.409V27.245
	c0-2.391,2.732-4.41,5.967-4.41h1.754c3.235,0,5.968,2.02,5.968,4.41v1.22c0,1.334,1.081,2.415,2.415,2.415s2.415-1.081,2.415-2.415
	v-1.22c0-5.095-4.844-9.24-10.798-9.24h-1.754c-5.953,0-10.797,4.146-10.797,9.24v28.871C76.691,61.211,81.535,65.355,87.488,65.355
	z"/>
<path fill="#E0EDC4" d="M262.326,62.378V27.245c0-2.391,2.732-4.41,5.967-4.41h1.755c3.234,0,5.967,2.02,5.967,4.41v35.133
	c0,1.334,1.081,2.415,2.415,2.415s2.415-1.081,2.415-2.415V27.245c0-5.095-4.844-9.24-10.797-9.24h-1.755
	c-2.205,0-4.256,0.571-5.967,1.546V2.566c0-1.334-1.081-2.415-2.415-2.415s-2.415,1.081-2.415,2.415v24.679v35.133
	c0,1.334,1.081,2.415,2.415,2.415S262.326,63.712,262.326,62.378z"/>
<path fill="#E0EDC4" d="M386.281,0.151c-1.334,0-2.415,1.081-2.415,2.415V62.94c0,1.334,1.081,2.415,2.415,2.415
	s2.415-1.081,2.415-2.415V2.566C388.696,1.232,387.615,0.151,386.281,0.151z"/>
<path fill="#E0EDC4" d="M51.127,65.355h1.754c5.954,0,10.798-4.145,10.798-9.239V27.245c0-5.095-4.844-9.24-10.798-9.24h-1.754
	c-2.205,0-4.256,0.571-5.967,1.546V2.566c0-1.334-1.081-2.415-2.415-2.415S40.33,1.232,40.33,2.566v24.679v28.871
	C40.33,61.211,45.174,65.355,51.127,65.355z M51.127,22.835h1.754c3.235,0,5.968,2.02,5.968,4.41v28.871
	c0,2.391-2.732,4.409-5.968,4.409h-1.754c-3.234,0-5.967-2.019-5.967-4.409V27.245C45.16,24.854,47.893,22.835,51.127,22.835z"/>
<path fill="#E0EDC4" d="M122.85,65.355h1.754c5.953,0,10.797-4.145,10.797-9.239V27.245V2.566c0-1.334-1.081-2.415-2.415-2.415
	s-2.415,1.081-2.415,2.415v16.985c-1.711-0.975-3.762-1.546-5.967-1.546h-1.754c-5.954,0-10.798,4.146-10.798,9.24v28.871
	C112.052,61.211,116.895,65.355,122.85,65.355z M116.882,27.245c0-2.391,2.732-4.41,5.968-4.41h1.754c3.234,0,5.967,2.02,5.967,4.41
	v28.871c0,2.391-2.732,4.409-5.967,4.409h-1.754c-3.235,0-5.968-2.019-5.968-4.409C116.882,56.116,116.882,27.245,116.882,27.245z"
	/>
<path fill="#E0EDC4" d="M232.319,89.267c5.953,0,10.797-4.169,10.797-9.293V59.063c0-0.126-0.019-0.247-0.037-0.368
	c0.016-0.209,0.037-0.417,0.037-0.63V26.521c0-0.306-0.057-0.598-0.16-0.867c-0.885-4.339-5.317-7.648-10.637-7.648h-1.754
	c-5.954,0-10.798,4.146-10.798,9.24v30.819c0,5.124,4.844,9.294,10.798,9.294h1.754c2.205,0,4.256-0.575,5.967-1.555v14.171
	c0,2.419-2.732,4.463-5.967,4.463h-1.754c-3.235,0-5.968-2.044-5.968-4.463c0-1.334-1.081-2.415-2.415-2.415
	s-2.415,1.081-2.415,2.415c0,5.124,4.844,9.293,10.798,9.293L232.319,89.267L232.319,89.267z M232.319,62.528h-1.754
	c-3.235,0-5.968-2.044-5.968-4.464V27.245c0-2.391,2.732-4.41,5.968-4.41h1.754c3.234,0,5.967,2.02,5.967,4.41v30.819
	C238.286,60.484,235.554,62.528,232.319,62.528z"/>
<path fill="#E0EDC4" d="M320.525,29.216c-1.334,0-2.415,1.081-2.415,2.415v48.343c0,2.419-2.732,4.463-5.968,4.463h-1.754
	c-3.234,0-5.967-2.044-5.967-4.463c0-1.334-1.081-2.415-2.415-2.415s-2.415,1.081-2.415,2.415c0,5.124,4.844,9.293,10.797,9.293
	h1.754c5.954,0,10.798-4.169,10.798-9.293V31.631C322.94,30.297,321.859,29.216,320.525,29.216z"/>
<path fill="#E0EDC4" d="M320.525,17.463c-1.334,0-2.415,1.081-2.415,2.415v3.867c0,1.334,1.081,2.415,2.415,2.415
	s2.415-1.081,2.415-2.415v-3.867C322.94,18.544,321.859,17.463,320.525,17.463z"/>
<path fill="#E0EDC4" d="M360.489,51.133v11.938c0,1.334,1.081,2.415,2.415,2.415s2.415-1.081,2.415-2.415V51.133
	c0-3.474-2.171-6.514-5.61-8.49c3.439-2.041,5.61-5.182,5.61-8.769V21.431c0-1.334-1.081-2.415-2.415-2.415
	s-2.415,1.081-2.415,2.415v12.442c0,3.466-4.735,6.394-10.342,6.394h-4.713V2.415c0-1.334-1.081-2.415-2.415-2.415
	s-2.415,1.081-2.415,2.415v60.656c0,1.334,1.081,2.415,2.415,2.415s2.415-1.081,2.415-2.415V45.097h4.713
	C355.657,45.097,360.489,47.917,360.489,51.133z"/>
<path fill="#E0EDC4" d="M299.246,64.793c1.334,0,2.415-1.081,2.415-2.415V31.631c0-1.334-1.081-2.415-2.415-2.415
	s-2.415,1.081-2.415,2.415v30.747C296.831,63.712,297.912,64.793,299.246,64.793z"/>
<path fill="#E0EDC4" d="M299.246,26.14c1.334,0,2.415-1.081,2.415-2.415v-3.867c0-1.334-1.081-2.415-2.415-2.415
	s-2.415,1.081-2.415,2.415v3.867C296.831,25.059,297.912,26.14,299.246,26.14z"/>
<path fill="#E0EDC4" d="M409.767,65.074c1.334,0,2.415-1.081,2.415-2.415V26.964c0-2.391,2.732-4.41,5.967-4.41h1.754
	c3.235,0,5.968,2.02,5.968,4.41v35.695c0,1.334,1.081,2.415,2.415,2.415s2.415-1.081,2.415-2.415V26.964
	c0-2.391,2.732-4.41,5.967-4.41h1.754c3.235,0,5.968,2.02,5.968,4.41v35.695c0,1.334,1.081,2.415,2.415,2.415
	s2.415-1.081,2.415-2.415V26.964c0-5.095-4.844-9.24-10.798-9.24h-1.754c-3.379,0-6.4,1.336-8.382,3.423
	c-1.981-2.087-5.003-3.423-8.383-3.423h-1.754c-5.953,0-10.797,4.146-10.797,9.24v35.695
	C407.352,63.993,408.433,65.074,409.767,65.074z"/>
<path fill="#E0EDC4" d="M263.023,388.559h-17.097c-1.247,0-2.29,0.95-2.404,2.192l-2.689,29.082
	c-0.094,1.014,0.457,1.977,1.378,2.408c0.926,0.435,2.015,0.241,2.733-0.479c2.152-2.15,3.589-3.576,8.334-3.385
	c0.095,0.004,0.189,0.002,0.283-0.006c1.057-0.085,3.264,0.416,4.663,1.746c0.778,0.74,1.145,1.593,1.116,2.672v21.885
	c0,2.391-2.732,4.409-5.967,4.409h-1.755c-3.234,0-5.967-2.019-5.967-4.409c0-1.334-1.081-2.415-2.415-2.415
	s-2.415,1.081-2.415,2.415c0,5.095,4.844,9.239,10.797,9.239h1.755c5.953,0,10.797-4.145,10.797-9.239l-0.001-21.821
	c0.063-2.393-0.843-4.549-2.619-6.236c-2.426-2.306-5.929-3.2-8.211-3.07c-3.136-0.105-5.378,0.38-7.191,1.252l1.98-21.41h14.895
	c1.334,0,2.415-1.081,2.415-2.415S264.357,388.559,263.023,388.559z"/>
<path fill="#E0EDC4" d="M147.652,449.085l-16.052-0.064c0.63-10.585,5.373-17.362,9.972-23.931
	c4.358-6.228,8.477-12.109,8.477-20.379v-6.836c0-5.095-4.844-9.24-10.797-9.24h-1.754c-5.954,0-10.798,4.146-10.798,9.24
	c0,1.334,1.081,2.415,2.415,2.415c1.334,0,2.415-1.081,2.415-2.415c0-2.391,2.732-4.41,5.968-4.41h1.754
	c3.234,0,5.967,2.02,5.967,4.41v6.836c0,6.747-3.523,11.781-7.604,17.609c-5.116,7.309-10.915,15.593-10.915,29.104
	c0,0.025,0.001,0.051,0.002,0.075c0,0.001,0,0.001,0,0.001c0,0.001,0,0.002,0,0.003v0.001c0,0.001,0,0.002,0,0.003
	c0,0,0,0.001,0,0.002v0.001c0,0.001,0,0.002,0,0.003v0.001c0,0.001,0,0.002,0,0.003c0,0,0,0,0,0.001
	c0.013,0.318,0.086,0.622,0.211,0.897c0.001,0.002,0.002,0.005,0.003,0.007c-0.001,0.003,0.001,0.003,0.001,0.003
	c0.001,0.001,0.001,0.002,0.001,0.002c0,0.001,0.001,0.001,0.001,0.002s0.001,0.003,0.001,0.003
	c0.001,0.001,0.001,0.001,0.001,0.001c0,0.001,0.001,0.002,0.001,0.003c0.129,0.277,0.308,0.526,0.525,0.734
	c0.001,0.001,0.002,0.002,0.003,0.003c0.001,0,0.001,0.001,0.002,0.002c0,0,0.001,0.001,0.003,0.003
	c0.004,0,0.003,0.002,0.003,0.002c0.004,0.003,0.003,0.003,0.003,0.003c0,0.001,0.001,0.001,0.002,0.002c0,0,0,0,0.001,0.001
	l0.001,0.001c0.001,0.001,0.001,0.001,0.001,0.001c0.001,0.001,0.001,0.001,0.002,0.002c-0.001,0,0.002,0.002,0.003,0.002
	l0.002,0.002c0.001,0.001,0.001,0.001,0.002,0.002c0,0,0,0.001,0.001,0.001l0.001,0.001c0.001,0.001,0.001,0.001,0.001,0.001
	c0.001,0.001,0.002,0.002,0.002,0.002c-0.001-0.001,0.002,0.002,0.003,0.003s0.002,0.001,0.003,0.002
	c0.003,0.003,0.003,0.003,0.003,0.003c0.001,0.001,0.001,0.001,0.002,0.002s0.002,0.002,0.003,0.003
	c0.425,0.385,0.986,0.621,1.604,0.626c-0.001,0,0.005,0,0.008,0l18.527,0.075c0.003,0,0.007,0,0.01,0
	c1.329,0,2.409-1.075,2.415-2.405c0-0.004,0-0.008,0-0.012C150.057,450.17,148.982,449.091,147.652,449.085z"/>
<path fill="#E0EDC4" d="M292.258,413.551h-1.754c-2.205,0-4.256,0.571-5.967,1.546v-17.222c0-2.391,2.732-4.41,5.967-4.41h1.754
	c3.234,0,5.967,2.02,5.967,4.41c0,1.334,1.081,2.415,2.415,2.415s2.415-1.081,2.415-2.415c0-5.095-4.844-9.24-10.797-9.24h-1.754
	c-5.953,0-10.797,4.146-10.797,9.24v24.916v21.885c0,5.095,4.844,9.239,10.797,9.239h1.754c5.953,0,10.797-4.145,10.797-9.239
	l0.001-21.885C303.056,417.696,298.212,413.551,292.258,413.551z M298.225,444.676c0,2.391-2.732,4.409-5.967,4.409h-1.754
	c-3.234,0-5.967-2.019-5.967-4.409v-21.885c0-2.391,2.732-4.41,5.967-4.41h1.754c3.235,0,5.968,2.02,5.968,4.41L298.225,444.676z"/>
<path fill="#E0EDC4" d="M404.009,388.635h-1.754c-5.953,0-10.797,4.146-10.797,9.24v21.885c0,5.095,4.844,9.24,10.797,9.24h1.754
	c2.206,0,4.257-0.571,5.968-1.546v17.222c0,2.391-2.732,4.409-5.968,4.409h-1.754c-3.234,0-5.967-2.019-5.967-4.409
	c0-1.334-1.081-2.415-2.415-2.415s-2.415,1.081-2.415,2.415c0,5.095,4.844,9.239,10.797,9.239h1.754
	c5.954,0,10.798-4.145,10.798-9.239V419.76v-21.885C414.807,392.78,409.963,388.635,404.009,388.635z M404.009,424.17h-1.754
	c-3.234,0-5.967-2.02-5.967-4.41v-21.885c0-2.391,2.732-4.41,5.967-4.41h1.754c3.235,0,5.968,2.02,5.968,4.41v21.885
	C409.977,422.15,407.244,424.17,404.009,424.17z"/>
<path fill="#E0EDC4" d="M365.759,388.635h-1.754c-5.954,0-10.798,4.146-10.798,9.24v12.314c0,2.787,1.455,5.283,3.742,6.979
	c-2.287,1.696-3.742,4.192-3.742,6.979v20.982c0,5.095,4.844,9.24,10.798,9.24h1.754c5.953,0,10.797-4.146,10.797-9.24v-20.982
	c0-2.787-1.455-5.283-3.742-6.979c2.287-1.696,3.742-4.192,3.742-6.979v-12.314C376.556,392.78,371.712,388.635,365.759,388.635z
	 M358.037,397.875c0-2.391,2.732-4.41,5.968-4.41h1.754c3.234,0,5.967,2.02,5.967,4.41v12.314c0,2.391-2.732,4.41-5.967,4.41h-1.754
	c-3.235,0-5.968-2.02-5.968-4.41V397.875z M371.726,445.13c0,2.391-2.732,4.41-5.967,4.41h-1.754c-3.235,0-5.968-2.02-5.968-4.41
	v-20.982c0-2.391,2.732-4.41,5.968-4.41h1.754c3.234,0,5.967,2.02,5.967,4.41V445.13z"/>
<path fill="#E0EDC4" d="M177.785,388.439h-2.311c-5.954,0-10.798,4.145-10.798,9.239c0,1.334,1.081,2.415,2.415,2.415
	s2.415-1.081,2.415-2.415c0-2.391,2.732-4.409,5.968-4.409h2.311c3.234,0,5.967,2.019,5.967,4.409v16.533
	c0,2.563-2.085,4.648-4.647,4.648h-3.842c-1.334,0-2.415,1.081-2.415,2.415s1.081,2.415,2.415,2.415h3.842
	c2.563,0,4.647,2.085,4.647,4.648v16.337c0,2.391-2.732,4.409-5.967,4.409h-2.311c-3.235,0-5.968-2.019-5.968-4.409
	c0-1.334-1.081-2.415-2.415-2.415s-2.415,1.081-2.415,2.415c0,5.095,4.844,9.239,10.798,9.239h2.311
	c5.953,0,10.797-4.145,10.797-9.239v-16.337c0-2.804-1.224-5.326-3.165-7.063c1.941-1.737,3.165-4.26,3.165-7.063v-16.533
	C188.582,392.584,183.738,388.439,177.785,388.439z"/>
<path fill="#E0EDC4" d="M442.26,388.537h-1.754c-5.954,0-10.798,4.146-10.798,9.24v46.725c0,5.095,4.844,9.24,10.798,9.24h1.754
	c5.953,0,10.797-4.146,10.797-9.24v-46.725C453.057,392.682,448.213,388.537,442.26,388.537z M448.227,444.502
	c0,2.391-2.732,4.41-5.967,4.41h-1.754c-3.235,0-5.968-2.02-5.968-4.41v-46.725c0-2.391,2.732-4.41,5.968-4.41h1.754
	c3.234,0,5.967,2.02,5.967,4.41V444.502z"/>
<path fill="#E0EDC4" d="M105.235,388.611c-1.15-0.211-2.284,0.442-2.697,1.531c-0.134,0.354-1.415,3.451-5.085,3.451
	c-1.334,0-2.415,1.081-2.415,2.415s1.081,2.415,2.415,2.415c2.003,0,3.63-0.496,4.937-1.216v54.217c0,1.334,1.081,2.415,2.415,2.415
	s2.415-1.081,2.415-2.415v-60.45C107.22,389.808,106.382,388.822,105.235,388.611z"/>
<path fill="#E0EDC4" d="M222.507,421.496h-2.8V391.05c0-1.124-0.776-2.1-1.871-2.353c-1.091-0.253-2.221,0.282-2.714,1.293
	l-16.038,32.861c-0.365,0.749-0.319,1.633,0.122,2.339s1.215,1.136,2.048,1.136h13.623V451.5c0,1.334,1.081,2.415,2.415,2.415
	s2.415-1.081,2.415-2.415v-25.174h2.8c1.334,0,2.415-1.081,2.415-2.415S223.841,421.496,222.507,421.496z M214.877,421.496h-9.758
	l9.758-19.993V421.496z"/>
<path fill="#E0EDC4" d="M339.891,388.439h-18.519c-1.334,0-2.415,1.081-2.415,2.415s1.081,2.415,2.415,2.415h14.771
	c-3.468,8.156-11.33,29.783-11.33,58.155c0,1.334,1.081,2.415,2.415,2.415s2.415-1.081,2.415-2.415
	c0-34.415,12.28-59.237,12.404-59.484c0.377-0.748,0.339-1.64-0.102-2.353C341.506,388.875,340.729,388.439,339.891,388.439z"/>
<path fill="#E0EDC4" d="M44.967,413.996c1.334,0,2.415-1.081,2.415-2.415s-1.081-2.415-2.415-2.415h-8.674l1.94-17.72
	c0.146-1.325-0.812-2.518-2.138-2.663c-1.322-0.147-2.518,0.813-2.663,2.138l-1.997,18.245H18.178l1.939-17.72
	c0.146-1.325-0.812-2.518-2.138-2.663c-1.314-0.147-2.518,0.813-2.663,2.138l-1.997,18.245H2.415c-1.334,0-2.415,1.081-2.415,2.415
	s1.081,2.415,2.415,2.415H12.79l-1.36,12.429H2.415c-1.334,0-2.415,1.081-2.415,2.415s1.081,2.415,2.415,2.415h8.486l-1.86,16.997
	c-0.146,1.325,0.812,2.518,2.138,2.663c0.089,0.01,0.178,0.015,0.266,0.015c1.216,0,2.262-0.916,2.397-2.152l1.918-17.522h13.256
	l-1.861,16.997c-0.146,1.325,0.812,2.518,2.138,2.663c0.089,0.01,0.178,0.015,0.266,0.015c1.216,0,2.262-0.916,2.397-2.152
	l1.918-17.522h11.093c1.334,0,2.415-1.081,2.415-2.415s-1.081-2.415-2.415-2.415H34.403l1.361-12.429h9.203V413.996z
	 M29.545,426.425H16.289l1.36-12.429h13.257L29.545,426.425z"/>
<path fill="#E0EDC4" d="M70.756,387.471h-1.755c-5.953,0-10.797,4.145-10.797,9.239c0,1.334,1.081,2.415,2.415,2.415
	s2.415-1.081,2.415-2.415c0-2.391,2.732-4.409,5.967-4.409h1.755c3.234,0,5.967,2.019,5.967,4.409
	c0,8.826-1.861,12.516-4.017,16.789c-2.457,4.872-5.243,10.395-5.243,23.747c0,1.334,1.081,2.415,2.415,2.415
	s2.415-1.081,2.415-2.415c0-12.203,2.402-16.966,4.726-21.572c2.229-4.419,4.534-8.989,4.534-18.964
	C81.553,391.615,76.709,387.471,70.756,387.471z"/>
<path fill="#E0EDC4" d="M72.853,449.661c-0.08-0.2-0.18-0.39-0.3-0.56c-0.11-0.18-0.25-0.34-0.4-0.49c-1.2-1.2-3.35-1.2-4.55,0
	c-0.15,0.15-0.29,0.311-0.4,0.49c-0.119,0.17-0.22,0.359-0.3,0.56c-0.08,0.19-0.14,0.391-0.18,0.601
	c-0.05,0.199-0.07,0.42-0.07,0.63s0.021,0.42,0.07,0.63c0.04,0.2,0.1,0.4,0.18,0.6c0.08,0.19,0.181,0.38,0.3,0.551
	c0.12,0.18,0.25,0.34,0.4,0.489c0.6,0.601,1.43,0.95,2.28,0.95c0.2,0,0.42-0.03,0.62-0.07c0.21-0.04,0.409-0.1,0.609-0.18
	c0.19-0.08,0.38-0.18,0.55-0.3c0.181-0.11,0.341-0.25,0.49-0.4c0.15-0.149,0.28-0.31,0.4-0.489c0.12-0.171,0.22-0.36,0.3-0.551
	c0.08-0.199,0.14-0.399,0.18-0.6c0.04-0.21,0.061-0.42,0.061-0.63s-0.021-0.431-0.061-0.63
	C72.992,450.052,72.933,449.851,72.853,449.661z"/>
<path fill="#E0EDC4" d="M206.517,246.646c0.431-8.968-3.8-16.753-11.53-21.312c-5.74-3.685-6.07-9.641-5.945-12.031
	c0.214-4.083,2.059-7.684,4.592-8.958c1.675-0.845,3.568-0.58,5.618,0.781c1.111,0.736,2.609,0.437,3.348-0.676
	c0.737-1.111,0.435-2.609-0.676-3.348c-3.5-2.324-7.215-2.706-10.461-1.071c-4.095,2.06-6.938,7.171-7.243,13.02
	c-0.352,6.731,2.698,12.843,8.236,16.396c8.823,5.205,9.399,13.6,9.237,16.967c-0.275,5.743-3.069,10.97-6.795,12.709
	c-2.466,1.154-5.107,0.687-7.845-1.39c-1.062-0.805-2.576-0.597-3.383,0.465c-0.806,1.063-0.598,2.577,0.465,3.383
	c2.609,1.979,5.373,2.984,8.084,2.984c1.607,0,3.196-0.354,4.723-1.066C202.306,260.994,206.153,254.221,206.517,246.646z"/>
<path fill="#E0EDC4" d="M53.313,264.127c5.953,0,10.797-4.146,10.797-9.24v-46.725c0-5.095-4.844-9.24-10.797-9.24h-1.755
	c-5.953,0-10.797,4.146-10.797,9.24v46.725c0,5.095,4.844,9.24,10.797,9.24H53.313z M45.592,254.887v-46.725
	c0-2.391,2.732-4.41,5.967-4.41h1.755c3.234,0,5.967,2.02,5.967,4.41v46.725c0,2.391-2.732,4.41-5.967,4.41h-1.755
	C48.324,259.297,45.592,257.278,45.592,254.887z"/>
<path fill="#E0EDC4" d="M382.837,199.307c-1.278-0.38-2.621,0.355-2.997,1.636l-6.943,23.633l-6.942-23.633
	c-0.376-1.28-1.719-2.017-2.997-1.636c-1.279,0.375-2.012,1.718-1.636,2.997l9.05,30.81l-9.035,28.379
	c-0.404,1.271,0.298,2.629,1.568,3.033c0.243,0.078,0.49,0.114,0.733,0.114c1.022,0,1.973-0.655,2.3-1.683l6.958-21.855
	l6.959,21.855c0.404,1.271,1.766,1.974,3.033,1.568c1.271-0.404,1.973-1.763,1.568-3.033l-9.036-28.379l9.051-30.81
	C384.848,201.025,384.116,199.683,382.837,199.307z"/>
<path fill="#E0EDC4" d="M450.636,259.735h-15.255l17.563-57.405c0.225-0.731,0.088-1.526-0.367-2.143
	c-0.455-0.615-1.176-0.979-1.941-0.979h-18.519c-1.334,0-2.415,1.081-2.415,2.415s1.081,2.415,2.415,2.415h15.255l-17.563,57.405
	c-0.225,0.731-0.088,1.526,0.367,2.143c0.455,0.615,1.176,0.979,1.941,0.979h18.519c1.334,0,2.415-1.081,2.415-2.415
	S451.97,259.735,450.636,259.735z"/>
<path fill="#E0EDC4" d="M166.109,245.079l-0.009,16.633c0,1.333,1.08,2.415,2.414,2.416h0.001c1.333,0,2.414-1.081,2.415-2.414
	l0.009-16.634c0-5.472-2.32-10.103-5.983-12.806c3.716-2.505,5.983-6.901,5.983-12.339l-0.019-11.772
	c0-6.062-5.867-9.236-11.664-9.24h-9.269c-2.416,0-2.417,2.351-2.417,3.48l0.011,59.31c0.001,1.334,1.082,2.415,2.415,2.415
	c1.334-0.001,2.415-1.082,2.415-2.415l-0.005-27.155h4.728C163.027,234.557,166.109,239.85,166.109,245.079z M152.406,229.727
	l-0.003-21.566c0,0-0.003-2.451-0.003-4.408h6.854c2.365,0.001,6.836,0.925,6.836,4.414l0.019,11.772
	c0,5.946-3.522,9.788-8.975,9.788H152.406z"/>
<path fill="#E0EDC4" d="M23.674,245.567L9.879,200.48c-0.349-1.145-1.481-1.862-2.666-1.682c-1.183,0.177-2.058,1.192-2.058,2.388
	v60.526c0,1.334,1.081,2.415,2.415,2.415s2.415-1.081,2.415-2.415v-44.381l13.795,45.087c0.313,1.027,1.261,1.709,2.307,1.709
	c0.119,0,0.238-0.009,0.359-0.027c1.183-0.177,2.058-1.192,2.058-2.388v-60.526c0-1.334-1.081-2.415-2.415-2.415
	s-2.415,1.081-2.415,2.415C23.674,201.186,23.674,245.567,23.674,245.567z"/>
<path fill="#E0EDC4" d="M99.708,225.317l0.018-17.154c0-5.095-4.844-9.24-10.797-9.24H78.774c-0.642,0-1.257,0.256-1.71,0.71
	s-0.706,1.069-0.705,1.711v60.369c0,1.334,1.081,2.415,2.415,2.415s2.415-1.081,2.415-2.415v-27.155h7.722
	C94.864,234.557,99.708,230.412,99.708,225.317z M81.189,218.282l0.018-10.125l-0.012-4.404h7.733c3.234,0,5.967,2.02,5.967,4.41
	l-0.018,17.154c0,2.391-2.732,4.41-5.967,4.41h-7.722L81.189,218.282L81.189,218.282z"/>
<path fill="#E0EDC4" d="M132.982,263.803c0.38,0.22,0.795,0.324,1.205,0.324c0.834,0,1.646-0.433,2.093-1.208
	c0.667-1.154,0.271-2.632-0.884-3.298l-2.158-1.246c0.516-1.077,0.805-2.254,0.805-3.488v-46.725c0-5.095-4.844-9.24-10.797-9.24
	h-1.755c-5.953,0-10.797,4.146-10.797,9.24v46.725c0,5.095,4.844,9.24,10.797,9.24h1.755c2.557,0,4.905-0.768,6.757-2.044
	L132.982,263.803z M123.246,259.297h-1.755c-3.234,0-5.967-2.02-5.967-4.41v-46.725c0-2.391,2.732-4.41,5.967-4.41h1.755
	c3.234,0,5.967,2.02,5.967,4.41v46.725c0,0.363-0.07,0.716-0.188,1.056l-5.45-3.146c-1.154-0.668-2.631-0.273-3.298,0.884
	c-0.667,1.154-0.271,2.632,0.884,3.298l3.71,2.142C124.351,259.233,123.807,259.297,123.246,259.297z"/>
<path fill="#E0EDC4" d="M239.935,203.601c1.334,0,2.415-1.081,2.415-2.415s-1.081-2.415-2.415-2.415h-7.051h-2.415h-9.466
	c-1.334,0-2.415,1.081-2.415,2.415s1.081,2.415,2.415,2.415h7.051v58.549c0,1.334,1.081,2.415,2.415,2.415s2.415-1.081,2.415-2.415
	v-58.549H239.935z"/>
<path fill="#E0EDC4" d="M277.751,255.271v-54.085c0-1.334-1.081-2.415-2.415-2.415s-2.415,1.081-2.415,2.415v54.085
	c0,2.42-2.732,4.464-5.968,4.464h-1.754c-3.234,0-5.967-2.044-5.967-4.464v-54.085c0-1.334-1.081-2.415-2.415-2.415
	s-2.415,1.081-2.415,2.415v54.085c0,5.124,4.844,9.294,10.797,9.294h1.754C272.907,264.565,277.751,260.395,277.751,255.271z"/>
<path fill="#E0EDC4" d="M311.305,198.798c-1.328-0.204-2.55,0.706-2.75,2.025l-6.871,45.245l-6.872-45.245
	c-0.2-1.319-1.423-2.228-2.75-2.025c-1.318,0.2-2.226,1.432-2.025,2.75l9.26,60.964c0.18,1.181,1.194,2.053,2.388,2.053
	s2.208-0.872,2.388-2.053l9.259-60.964C313.53,200.23,312.623,198.998,311.305,198.798z"/>
<path fill="#E0EDC4" d="M346.549,198.771c-1.334,0-2.415,1.081-2.415,2.415v45.283l-4.542-14.326
	c-0.318-1.004-1.249-1.686-2.302-1.686c-0.001,0-0.001,0-0.002,0c-1.053,0.001-1.984,0.685-2.301,1.688l-4.541,14.397v-45.357
	c0-1.334-1.081-2.415-2.415-2.415s-2.415,1.081-2.415,2.415v61.04c0,1.191,0.87,2.205,2.048,2.387
	c0.124,0.019,0.247,0.028,0.369,0.028c1.038,0,1.98-0.672,2.301-1.688l6.962-22.072l6.951,21.924
	c0.36,1.136,1.505,1.833,2.671,1.657c1.177-0.183,2.046-1.195,2.046-2.387v-60.889C348.964,199.852,347.883,198.771,346.549,198.771
	z"/>
<path fill="#E0EDC4" d="M417.109,199.027c-1.279-0.395-2.627,0.319-3.021,1.593l-6.946,22.45l-6.958-22.595
	c-0.392-1.273-1.742-1.99-3.019-1.597c-1.274,0.393-1.989,1.744-1.597,3.019l9.152,29.722v30.607c0,1.334,1.081,2.415,2.415,2.415
	s2.415-1.081,2.415-2.415v-30.605l9.15-29.573C419.097,200.773,418.383,199.42,417.109,199.027z"/>
<path fill="#E0EDC4" d="M7.845,153.972c1.334,0,2.415-1.081,2.415-2.415v-35.695c0-2.391,2.732-4.41,5.967-4.41h1.754
	c3.234,0,5.967,2.02,5.967,4.41v35.695c0,1.334,1.081,2.415,2.415,2.415s2.415-1.081,2.415-2.415v-35.695
	c0-5.095-4.844-9.24-10.797-9.24h-1.754c-5.953,0-10.797,4.146-10.797,9.24v35.695C5.43,152.891,6.511,153.972,7.845,153.972z"/>
<path fill="#E0EDC4" d="M147.921,154.254c1.334,0,2.415-1.081,2.415-2.415v-35.996c0-3.474,4.477-4.391,6.845-4.391
	c2.367,0,6.844,0.917,6.844,4.391c0,1.334,1.081,2.415,2.415,2.415s2.415-1.081,2.415-2.415c0-6.053-5.873-9.221-11.674-9.221
	c-5.802,0-11.675,3.168-11.675,9.221v35.996C145.506,153.173,146.587,154.254,147.921,154.254z"/>
<path fill="#E0EDC4" d="M179.426,152.674c2.812,1.357,5.639,2.034,8.32,2.034c2.991,0,5.801-0.843,8.2-2.521
	c4.07-2.847,6.288-7.722,5.787-12.721c-0.609-6.079-5.029-11.339-12.064-14.4c-5.024-2.364-5.963-6.739-4.71-9.806
	c1.146-2.799,4.632-5.314,10.693-3.191c1.258,0.437,2.636-0.222,3.077-1.481c0.44-1.259-0.223-2.636-1.481-3.077
	c-8.661-3.031-14.659,0.789-16.759,5.922c-2.156,5.273-0.401,12.464,7.188,16.032c5.449,2.373,8.82,6.193,9.251,10.483
	c0.326,3.262-1.11,6.436-3.751,8.282c-3.12,2.184-7.258,2.216-11.652,0.095c-1.198-0.578-2.645-0.076-3.225,1.125
	C177.722,150.649,178.225,152.094,179.426,152.674z"/>
<path fill="#E0EDC4" d="M51.588,153.972h1.754c5.953,0,10.797-4.145,10.797-9.239v-28.871c0-5.095-4.844-9.24-10.797-9.24h-1.754
	c-5.954,0-10.798,4.146-10.798,9.24v28.871C40.79,149.828,45.634,153.972,51.588,153.972z M45.621,115.862
	c0-2.391,2.732-4.41,5.968-4.41h1.754c3.234,0,5.967,2.02,5.967,4.41v28.871c0,2.391-2.732,4.409-5.967,4.409h-1.754
	c-3.235,0-5.968-2.019-5.968-4.409V115.862z"/>
<path fill="#E0EDC4" d="M118.576,153.972h1.754c2.206,0,4.257-0.571,5.968-1.546v23.111c0,1.334,1.081,2.415,2.415,2.415
	s2.415-1.081,2.415-2.415v-30.735c0-0.009-0.002-0.017-0.002-0.026c0-0.015,0.002-0.029,0.002-0.044v-28.871
	c0-5.095-4.844-9.24-10.798-9.24h-1.754c-5.953,0-10.797,4.146-10.797,9.24v28.871C107.779,149.828,112.622,153.972,118.576,153.972
	z M112.609,115.862c0-2.391,2.732-4.41,5.967-4.41h1.754c3.235,0,5.968,2.02,5.968,4.41v28.871c0,2.391-2.732,4.409-5.968,4.409
	h-1.754c-3.234,0-5.967-2.019-5.967-4.409V115.862z"/>
<path fill="#E0EDC4" d="M77.2,177.884c1.334,0,2.415-1.081,2.415-2.415v-23.042c1.711,0.975,3.762,1.546,5.967,1.546h1.755
	c5.953,0,10.797-4.145,10.797-9.239v-28.871c0-5.095-4.844-9.24-10.797-9.24h-1.755c-5.953,0-10.797,4.146-10.797,9.24v28.871
	v30.735C74.785,176.803,75.866,177.884,77.2,177.884z M79.615,115.862c0-2.391,2.732-4.41,5.967-4.41h1.755
	c3.234,0,5.967,2.02,5.967,4.41v28.871c0,2.391-2.732,4.409-5.967,4.409h-1.755c-3.234,0-5.967-2.019-5.967-4.409V115.862z"/>
<path fill="#E0EDC4" d="M288.696,152.352c0.241,1.109,1.224,1.901,2.359,1.901s2.118-0.792,2.359-1.901l9.26-42.521
	c0.284-1.303-0.543-2.589-1.846-2.873c-1.307-0.29-2.589,0.543-2.873,1.846l-6.9,31.686l-6.899-31.686
	c-0.283-1.303-1.568-2.135-2.873-1.846c-1.303,0.284-2.13,1.57-1.846,2.873L288.696,152.352z"/>
<path fill="#E0EDC4" d="M324.116,152.757h1.754c3.38,0,6.401-1.336,8.383-3.423c1.981,2.087,5.003,3.423,8.382,3.423h1.754
	c5.954,0,10.798-4.146,10.798-9.24v-34.198c0-1.334-1.081-2.415-2.415-2.415s-2.415,1.081-2.415,2.415v34.198
	c0,2.391-2.732,4.41-5.968,4.41h-1.754c-3.234,0-5.967-2.02-5.967-4.41v-34.198c0-1.334-1.081-2.415-2.415-2.415
	s-2.415,1.081-2.415,2.415v34.198c0,2.391-2.732,4.41-5.968,4.41h-1.754c-3.234,0-5.967-2.02-5.967-4.41v-34.198
	c0-1.334-1.081-2.415-2.415-2.415s-2.415,1.081-2.415,2.415v34.198C313.319,148.611,318.163,152.757,324.116,152.757z"/>
<path fill="#E0EDC4" d="M373.185,131.261l-8.83,19.586c-0.548,1.216-0.007,2.646,1.209,3.193c1.217,0.55,2.646,0.008,3.193-1.209
	l7.059-15.656l7.058,15.656c0.402,0.894,1.282,1.423,2.202,1.423c0.332,0,0.669-0.068,0.991-0.214
	c1.216-0.548,1.757-1.978,1.209-3.193l-8.829-19.586l8.857-21.296c0.512-1.231-0.071-2.646-1.302-3.157
	c-1.234-0.511-2.646,0.071-3.157,1.302l-7.029,16.901l-7.03-16.901c-0.512-1.23-1.922-1.813-3.157-1.302
	c-1.23,0.512-1.813,1.926-1.302,3.157L373.185,131.261z"/>
<path fill="#E0EDC4" d="M431.912,111.733h14.833l-17.047,39.142c-0.325,0.746-0.252,1.606,0.194,2.287s1.205,1.092,2.02,1.092
	h18.519c1.334,0,2.415-1.081,2.415-2.415s-1.081-2.415-2.415-2.415h-14.833l17.047-39.142c0.325-0.746,0.252-1.606-0.194-2.287
	s-1.205-1.092-2.02-1.092h-18.519c-1.334,0-2.415,1.081-2.415,2.415S430.578,111.733,431.912,111.733z"/>
<path fill="#E0EDC4" d="M222.435,154.281c5.46,0,9.424-3.174,9.424-7.547c0-1.334-1.081-2.415-2.415-2.415s-2.415,1.081-2.415,2.415
	c0,1.994-2.747,2.718-4.594,2.718c-1.848,0-4.595-0.724-4.595-2.718V119.92h11.604c1.334,0,2.415-1.081,2.415-2.415
	s-1.081-2.415-2.415-2.415H217.84v-6.08c0-1.334-1.081-2.415-2.415-2.415s-2.415,1.081-2.415,2.415v37.725
	C213.01,151.107,216.974,154.281,222.435,154.281z"/>
<path fill="#E0EDC4" d="M255.184,154.422h1.755c5.953,0,10.797-4.17,10.797-9.294V109.15c0-1.334-1.081-2.415-2.415-2.415
	s-2.415,1.081-2.415,2.415v35.978c0,2.42-2.732,4.464-5.967,4.464h-1.755c-3.234,0-5.967-2.044-5.967-4.464V109.15
	c0-1.334-1.081-2.415-2.415-2.415s-2.415,1.081-2.415,2.415v35.978C244.387,150.252,249.231,154.422,255.184,154.422z"/>
<path fill="#E0EDC4" d="M408.687,171.838h-1.754c-3.235,0-5.968-2.044-5.968-4.464c0-1.334-1.081-2.415-2.415-2.415
	s-2.415,1.081-2.415,2.415c0,5.124,4.844,9.294,10.798,9.294h1.754c5.953,0,10.797-4.17,10.797-9.294v-20.911
	c0-0.126-0.019-0.247-0.037-0.368c0.017-0.209,0.037-0.417,0.037-0.63v-35.978c0-1.334-1.081-2.415-2.415-2.415
	s-2.415,1.081-2.415,2.415v35.978c0,2.419-2.732,4.463-5.967,4.463h-1.754c-3.235,0-5.968-2.044-5.968-4.463v-35.978
	c0-1.334-1.081-2.415-2.415-2.415s-2.415,1.081-2.415,2.415v35.978c0,5.124,4.844,9.293,10.798,9.293h1.754
	c2.205,0,4.256-0.574,5.967-1.555v14.17C414.654,169.794,411.921,171.838,408.687,171.838z"/>
</svg>
