<!-- Generator: Adobe Illustrator 24.0.1, SVG Export Plug-In  -->
<svg version="1.1" xmlns="http://www.w3.org/2000/svg" xmlns:xlink="http://www.w3.org/1999/xlink" x="0px" y="0px"
	 width="210.54px" height="210.54px" viewBox="0 0 210.54 210.54" enable-background="new 0 0 210.54 210.54" xml:space="preserve">
<defs>
</defs>
<rect fill="#0C4F57" width="210.54" height="210.54"/>
<g>
	<g>
		<path fill="#DE9226" d="M110.688,138.635h-10.245c-20.328,0-50.568-3.148-50.568-11.824V83.729
			c0-8.667,30.24-11.824,50.568-11.824h10.245c20.328,0,50.568,3.148,50.568,11.824v43.083
			C161.256,135.487,131.016,138.635,110.688,138.635z M100.442,75.179c-31.052,0-47.304,5.565-47.304,8.55v43.083
			c0,2.985,16.243,8.55,47.304,8.55h10.245c31.052,0,47.304-5.565,47.304-8.55V83.729c0-2.985-16.243-8.55-47.304-8.55H100.442z"/>
	</g>
	<g>
		<g>
			<g>
				<path fill="#E0EDC4" d="M129.402,123.438c-0.902,0-1.632-0.731-1.632-1.632V93.325c0-3.905,3.734-7.08,8.324-7.08h1.398
					c4.591,0,8.324,3.175,8.324,7.08c0,0.902-0.731,1.632-1.632,1.632c-0.902,0-1.632-0.731-1.632-1.632
					c0-2.101-2.264-3.815-5.051-3.815h-1.398c-2.787,0-5.051,1.714-5.051,3.815v28.481
					C131.034,122.708,130.304,123.438,129.402,123.438z"/>
			</g>
			<g>
				<path fill="#E0EDC4" stroke="#F8F5E3" stroke-width="4.1346" stroke-linecap="round" stroke-miterlimit="10" d="M144.174,93.325
					"/>
			</g>
			<g>
				<path fill="#E0EDC4" d="M144.174,123.438c-0.902,0-1.632-0.731-1.632-1.632V93.325c0-0.902,0.731-1.632,1.632-1.632
					c0.902,0,1.632,0.731,1.632,1.632v28.481C145.816,122.708,145.076,123.438,144.174,123.438z"/>
			</g>
		</g>
		<g>
			<path fill="#E0EDC4" d="M87.491,123.438h-1.398c-4.591,0-8.324-3.175-8.324-7.08V93.325c0-3.905,3.734-7.08,8.324-7.08h1.398
				c4.591,0,8.324,3.175,8.324,7.08v0.974c0,0.902-0.731,1.632-1.632,1.632s-1.632-0.731-1.632-1.632v-0.974
				c0-2.101-2.264-3.815-5.051-3.815h-1.398c-2.787,0-5.051,1.714-5.051,3.815v23.034c0,2.101,2.264,3.815,5.051,3.815H87.5
				c2.787,0,5.051-1.714,5.051-3.815v-1.2c0-0.902,0.731-1.632,1.632-1.632s1.632,0.731,1.632,1.632v1.2
				C95.816,120.264,92.082,123.438,87.491,123.438z"/>
		</g>
		<g>
			<path fill="#E0EDC4" d="M111.743,123.438h-1.398c-4.591,0-8.324-3.175-8.324-7.08V93.325c0-3.905,3.734-7.08,8.324-7.08h1.398
				c4.591,0,8.324,3.175,8.324,7.08v23.034C120.067,120.264,116.333,123.438,111.743,123.438z M110.345,89.51
				c-2.787,0-5.051,1.714-5.051,3.815v23.034c0,2.101,2.264,3.815,5.051,3.815h1.398c2.787,0,5.051-1.714,5.051-3.815V93.325
				c0-2.101-2.264-3.815-5.051-3.815H110.345z"/>
		</g>
		<g>
			<g>
				<path fill="#E0EDC4" d="M66.956,122.987c-0.902,0-1.632-0.731-1.632-1.632V96.824c0-0.902,0.731-1.632,1.632-1.632
					s1.632,0.731,1.632,1.632v24.531C68.588,122.257,67.857,122.987,66.956,122.987z"/>
			</g>
			<g>
				<path fill="#E0EDC4" d="M66.956,92.143c-0.902,0-1.632-0.731-1.632-1.632v-3.084c0-0.902,0.731-1.632,1.632-1.632
					s1.632,0.731,1.632,1.632v3.084C68.588,91.413,67.857,92.143,66.956,92.143z"/>
			</g>
		</g>
		<g>
			<g>
				<g>
					<path fill="#E0EDC4" stroke="#F8F5E3" stroke-width="20.7076" stroke-linecap="round" stroke-miterlimit="10" d="
						M143.209,93.162"/>
				</g>
			</g>
		</g>
	</g>
</g>
</svg>
