<!-- Generator: Adobe Illustrator 24.1.2, SVG Export Plug-In  -->
<svg version="1.1" xmlns="http://www.w3.org/2000/svg" xmlns:xlink="http://www.w3.org/1999/xlink" x="0px" y="0px"
	 width="284.278px" height="69.256px" viewBox="0 0 284.278 69.256" overflow="visible" enable-background="new 0 0 284.278 69.256"
	 xml:space="preserve">
<defs>
</defs>
<g>
	<g>
		<path fill="#E0EDC4" d="M141.07,57.165L141.07,57.165c-0.829,0-1.501-0.673-1.5-1.501l0.008-11.69
			c0-3.772-2.469-7.593-7.187-7.593h-4.393c-0.828,0-1.5-0.672-1.5-1.5s0.672-1.5,1.5-1.5h4.393c5.808,0,10.187,4.554,10.187,10.594
			l-0.008,11.691C142.57,56.494,141.898,57.165,141.07,57.165z"/>
	</g>
	<g>
		<path fill="#E0EDC4" d="M126.949,57.165c-0.828,0-1.5-0.671-1.5-1.5l-0.007-37.639c-0.006-5.412-0.006-5.412,0.438-5.857
			c0.281-0.281,0.663-0.439,1.062-0.439h7.067c5.037,0.003,8.554,2.592,8.554,6.297l0.015,8.274c0,5.937-4.188,10.08-10.187,10.08
			h-3.945l0.003,19.284C128.449,56.493,127.778,57.165,126.949,57.165z M128.445,33.381h3.946c4.365,0,7.187-2.778,7.187-7.077
			l-0.015-8.274c0-2.419-3.322-3.298-5.555-3.3h-5.568c0,1.401,0.002,3.295,0.002,3.295L128.445,33.381z"/>
	</g>
</g>
<g>
	<g>
		<path fill="#E0EDC4" d="M198.466,56.367c-0.828,0-1.5-0.672-1.5-1.5V29.778c0-3.473,3.54-6.298,7.893-6.298h1.337
			c4.353,0,7.893,2.825,7.893,6.298c0,0.828-0.672,1.5-1.5,1.5s-1.5-0.672-1.5-1.5c0-1.787-2.24-3.298-4.893-3.298h-1.337
			c-2.652,0-4.893,1.511-4.893,3.298v25.089C199.966,55.695,199.294,56.367,198.466,56.367z"/>
	</g>
	<g>
		<path fill="#E0EDC4" d="M212.588,29.778"/>
	</g>
	<g>
		<path fill="#E0EDC4" d="M212.588,56.367c-0.828,0-1.5-0.672-1.5-1.5V29.778c0-0.828,0.672-1.5,1.5-1.5s1.5,0.672,1.5,1.5v25.089
			C214.088,55.695,213.416,56.367,212.588,56.367z"/>
	</g>
</g>
<g>
	<g>
		<path fill="#E0EDC4" d="M82.451,53.484c-0.938,0-1.697-0.76-1.697-1.697V22.222c0-4.053,3.876-7.35,8.641-7.35h1.452
			c4.765,0,8.641,3.297,8.641,7.35c0,0.938-0.76,1.697-1.697,1.697s-1.697-0.76-1.697-1.697c0-2.181-2.354-3.955-5.246-3.955h-1.452
			c-2.893,0-5.246,1.774-5.246,3.955v29.565C84.148,52.725,83.389,53.484,82.451,53.484z"/>
	</g>
	<g>
		<path fill="#E0EDC4" d="M97.79,22.222"/>
	</g>
	<g>
		<path fill="#E0EDC4" d="M97.79,53.484c-0.938,0-1.697-0.76-1.697-1.697V22.222c0-0.938,0.76-1.697,1.697-1.697
			s1.697,0.76,1.697,1.697v29.565C99.487,52.725,98.728,53.484,97.79,53.484z"/>
	</g>
</g>
<g>
	<path fill="#E0EDC4" d="M38.953,53.484H37.5c-4.764,0-8.64-3.297-8.64-7.35V22.222c0-4.053,3.876-7.35,8.64-7.35h1.453
		c4.764,0,8.64,3.297,8.64,7.35v1.011c0,0.938-0.76,1.697-1.697,1.697s-1.697-0.76-1.697-1.697v-1.011
		c0-2.181-2.353-3.955-5.245-3.955H37.5c-2.893,0-5.245,1.774-5.245,3.955v23.913c0,2.181,2.353,3.955,5.245,3.955h1.453
		c2.893,0,5.245-1.774,5.245-3.955v-1.248c0-0.938,0.76-1.697,1.697-1.697s1.697,0.76,1.697,1.697v1.248
		C47.593,50.188,43.717,53.484,38.953,53.484z"/>
</g>
<g>
	<path fill="#E0EDC4" d="M157.617,56.367h-1.337c-4.353,0-7.893-2.824-7.893-6.297V29.778c0-3.473,3.54-6.298,7.893-6.298h1.337
		c4.353,0,7.893,2.825,7.893,6.298V50.07C165.51,53.543,161.97,56.367,157.617,56.367z M156.28,26.48
		c-2.652,0-4.893,1.511-4.893,3.298V50.07c0,1.787,2.24,3.297,4.893,3.297h1.337c2.652,0,4.893-1.51,4.893-3.297V29.778
		c0-1.787-2.24-3.298-4.893-3.298H156.28z"/>
</g>
<g>
	<path fill="#E0EDC4" d="M64.127,53.484h-1.453c-4.764,0-8.64-3.297-8.64-7.35V22.222c0-4.053,3.876-7.35,8.64-7.35h1.453
		c4.764,0,8.64,3.297,8.64,7.35v23.913C72.767,50.188,68.891,53.484,64.127,53.484z M62.674,18.267
		c-2.893,0-5.245,1.774-5.245,3.955v23.913c0,2.181,2.353,3.955,5.245,3.955h1.453c2.893,0,5.245-1.774,5.245-3.955V22.222
		c0-2.181-2.353-3.955-5.245-3.955H62.674z"/>
</g>
<g>
	<path fill="#DE9226" d="M63.121,69.256h-10.63C31.392,69.256,0,65.988,0,56.987V12.269C0,3.268,31.392,0,52.491,0h10.63
		c21.1,0,52.491,3.268,52.491,12.269v44.719C115.612,65.988,84.221,69.256,63.121,69.256z M52.491,3.395
		c-32.234,0-49.097,5.777-49.097,8.874v44.719c0,3.097,16.862,8.874,49.097,8.874h10.63c32.234,0,49.097-5.777,49.097-8.874V12.269
		c0-3.097-16.862-8.874-49.097-8.874C63.121,3.395,52.491,3.395,52.491,3.395z"/>
</g>
<g>
	<path fill="#E0EDC4" d="M276.691,57.165h-1.274c-4.184,0-7.587-2.896-7.587-6.456V29.744c0-3.56,3.403-6.456,7.587-6.456h1.274
		c4.184,0,7.587,2.896,7.587,6.456v20.965C284.278,54.269,280.875,57.165,276.691,57.165z M275.417,26.288
		c-2.529,0-4.587,1.551-4.587,3.456v20.965c0,1.905,2.058,3.456,4.587,3.456h1.274c2.529,0,4.587-1.551,4.587-3.456V29.744
		c0-1.905-2.058-3.456-4.587-3.456H275.417z"/>
</g>
<g>
	<path fill="#E0EDC4" d="M282.778,31.244c-0.828,0-1.5-0.672-1.5-1.5V11.823c0-0.828,0.672-1.5,1.5-1.5s1.5,0.672,1.5,1.5v17.921
		C284.278,30.572,283.606,31.244,282.778,31.244z"/>
</g>
<g>
	<path fill="#E0EDC4" d="M254.064,57.165h-1.896c-4.085,0-6.622-2.616-6.622-6.827V30.524c0-3.99,3.302-7.236,7.361-7.236
		c4.059,0,7.361,3.246,7.361,7.236v5.63c0,2.291-1.891,4.155-4.214,4.155h-7.509v10.028c0,2.575,1.185,3.827,3.622,3.827h1.896
		c0.535,0,3.204-0.118,3.204-2.446v-1.824c0-0.828,0.672-1.5,1.5-1.5s1.5,0.672,1.5,1.5v1.824
		C260.269,54.926,257.718,57.165,254.064,57.165z M248.546,37.31h7.509c0.669,0,1.214-0.519,1.214-1.155v-5.63
		c0-2.336-1.957-4.236-4.361-4.236s-4.361,1.9-4.361,4.236L248.546,37.31L248.546,37.31z"/>
</g>
<g>
	<path fill="#E0EDC4" d="M230.451,57.165h-1.274c-4.184,0-7.587-2.896-7.587-6.456V29.744c0-3.56,3.403-6.456,7.587-6.456h1.274
		c4.183,0,7.586,2.896,7.586,6.456v20.965C238.037,54.269,234.634,57.165,230.451,57.165z M229.177,26.288
		c-2.529,0-4.587,1.551-4.587,3.456v20.965c0,1.905,2.058,3.456,4.587,3.456h1.274c2.528,0,4.586-1.551,4.586-3.456V29.744
		c0-1.905-2.058-3.456-4.586-3.456H229.177z"/>
</g>
<g>
	<path fill="#E0EDC4" d="M236.537,31.244c-0.828,0-1.5-0.672-1.5-1.5V11.823c0-0.828,0.672-1.5,1.5-1.5s1.5,0.672,1.5,1.5v17.921
		C238.037,30.572,237.365,31.244,236.537,31.244z"/>
</g>
<g>
	<g>
		<path fill="#E0EDC4" d="M17.638,53.019c-0.938,0-1.697-0.76-1.697-1.697V25.854c0-0.938,0.76-1.697,1.697-1.697
			s1.697,0.76,1.697,1.697v25.467C19.335,52.259,18.575,53.019,17.638,53.019z"/>
	</g>
	<g>
		<path fill="#E0EDC4" d="M17.638,21.004c-0.938,0-1.697-0.76-1.697-1.697v-3.203c0-0.938,0.76-1.697,1.697-1.697
			s1.697,0.76,1.697,1.697v3.203C19.335,20.244,18.575,21.004,17.638,21.004z"/>
	</g>
</g>
<g>
	<path fill="#E0EDC4" d="M182.027,56.683h-1.338c-4.352,0-7.892-2.842-7.892-6.335V25.061c0-0.828,0.672-1.5,1.5-1.5
		s1.5,0.672,1.5,1.5v25.287c0,1.808,2.24,3.335,4.892,3.335h1.338c2.651,0,4.892-1.527,4.892-3.335V25.061
		c0-0.828,0.672-1.5,1.5-1.5s1.5,0.672,1.5,1.5v25.287C189.919,53.841,186.379,56.683,182.027,56.683z"/>
</g>
</svg>
