<!-- Generator: Adobe Illustrator 24.0.1, SVG Export Plug-In  -->
<svg version="1.1" xmlns="http://www.w3.org/2000/svg" xmlns:xlink="http://www.w3.org/1999/xlink" x="0px" y="0px"
	 width="210.54px" height="210.54px" viewBox="0 0 210.54 210.54" enable-background="new 0 0 210.54 210.54" xml:space="preserve">
<defs>
</defs>
<g>
	<rect fill="none" width="210.54" height="210.54"/>
	<g>
		<path d="M126.851,83.627l-1.586-4.478l-4.318-11.673l-3.517,9.67l-11.697,31.725l-0.457-1.178l-3.405-9.197l-11.36-31.02
			L62.68,143.064h3.862l23.962-64.861l2.387,6.369l-21.575,58.492h3.974l19.532-53.188l4.767,12.858l6.137,16.632l6.818-18.282
			l8.404-22.881l1.931,5.304l-6.473,17.577l-6.818,18.29h4.102l6.69-18.29l4.542-12.266l19.989,54.245h3.862L126.851,83.627z"/>
		<polygon points="166.324,109.6 146.343,109.6 144.869,106.283 166.324,106.283 		"/>
		<polygon points="44.806,109.6 64.795,109.6 66.261,106.283 44.806,106.283 		"/>
	</g>
</g>
</svg>
