<!-- Generator: Adobe Illustrator 24.1.2, SVG Export Plug-In  -->
<svg version="1.1" xmlns="http://www.w3.org/2000/svg" xmlns:xlink="http://www.w3.org/1999/xlink" x="0px" y="0px"
	 width="553.492px" height="752.969px" viewBox="0 0 553.492 752.969"
	 overflow="visible" enable-background="new 0 0 553.492 752.969" xml:space="preserve">
<defs>
</defs>
<path fill="#FFDDAB" d="M296.232,92.456c-8.382,6.807-18.899,7.58-27.739,2.011c-1.829-1.083-3.505-2.476-5.182-4.177V12.84
	c5.03-4.951,11.126-7.735,17.68-7.735c9.906,0,16.46,6.42,22.404,16.785h5.487C302.328,8.586,293.489,0,280.991,0
	c-20.271,0-36.883,23.924-36.883,52.08c0,20.266,8.535,38.52,21.794,46.719c4.725,2.939,9.754,4.487,15.088,4.487
	c6.401,0,12.802-2.321,18.441-6.807c4.725-3.867,8.687-8.973,11.583-15.161h-5.487C302.938,85.804,299.89,89.517,296.232,92.456z
	 M258.282,84.256c-5.639-8.353-9.145-19.801-9.145-32.177c0-12.531,3.506-24.852,9.145-33.206V84.256z"/>
<path fill="#FFDDAB" d="M8.822,101.274l32.084-86.936l3.164,8.574l-28.919,78.363h5.29l9.543-25.858h33.463l9.543,25.858h5.29
	L40.906,0L3.532,101.274H8.822z M61.723,70.744H31.708l15.007-40.665L61.723,70.744z"/>
<path fill="#FFDDAB" d="M388.966,2.302l-4.999-0.263h-11.572v99.157h4.999V7.039h6.573v94.158h2.5
	c13.889,0,25.568-5.333,33.766-15.425c7.203-8.865,11.169-20.752,11.169-33.489C431.402,29.411,418.005,3.705,388.966,2.302z
	 M416.354,82.617c-6.73,8.273-16.156,12.92-27.388,13.511V7.102c25.701,1.341,37.436,24.688,37.436,45.181
	C426.402,63.874,422.833,74.647,416.354,82.617z"/>
<polygon fill="#FFDDAB" points="541.292,7.039 541.292,2.04 485.163,2.04 485.163,101.274 490.162,101.274 490.162,7.039
	495.999,7.039 495.999,101.274 541.292,101.274 541.292,96.275 500.998,96.275 500.998,49.08 522.36,49.08 522.36,44.081
	500.998,44.081 500.998,7.039 "/>
<polygon fill="#FFDDAB" points="59.846,167.984 59.846,162.985 3.717,162.985 3.717,262.219 8.716,262.219 8.716,167.984
	14.552,167.984 14.552,262.219 19.551,262.182 19.551,210.025 40.914,210.025 40.914,205.026 19.551,205.026 19.551,167.984 "/>
<polygon fill="#FFDDAB" points="265.648,161.875 265.648,261.072 260.748,261.072 260.801,208.868 223.15,208.868 223.097,261.072
	218.068,261.072 218.068,166.904 211.75,166.904 211.75,261.072 206.722,261.072 206.722,161.875 223.097,161.875 223.15,203.839
	260.801,203.839 260.748,161.875 "/>
<path fill="#FFDDAB" d="M355.032,167.186v-4.999h-14.324h-4.999h-5.836h-4.999h-14.33v4.999h14.33v88.887h-14.33v4.999h14.33h4.999
	h5.836h4.999h14.324v-4.999h-14.324v-88.887H355.032z M335.709,256.073h-5.836v-88.887h5.836V256.073z"/>
<path fill="#FFDDAB" d="M411.268,162.585v4.9h16.376v88.376c-3.224,1.805-6.834,2.579-10.315,2.579
	c-7.995,0-16.634-4.384-19.6-14.184h-5.415c3.352,12.637,14.313,19.213,25.015,19.213c4.513,0,9.025-1.161,12.894-3.353
	c0.774-0.387,1.547-0.903,2.321-1.547c6.318-4.384,10.831-11.992,10.831-22.694v-68.39l0,0v-4.9H411.268z M438.474,235.875
	c0,7.221-2.321,12.636-5.931,16.247v-84.637h5.931V235.875z"/>
<polygon fill="#FFDDAB" points="553.492,163.043 547.108,163.043 512.427,206.801 512.427,167.973 512.427,162.974 507.428,162.974
	500.855,162.974 495.856,162.974 495.856,167.973 495.856,261.658 500.855,261.658 500.855,167.973 507.428,167.973
	507.428,261.658 512.427,261.658 512.427,217.088 545.703,261.639 552.011,261.639 514.762,211.909 "/>
<polygon fill="#FFDDAB" points="18.713,413.354 18.713,320.537 2.142,320.537 2.142,418.353 7.141,418.353 7.141,325.536
	13.714,325.536 13.714,418.353 13.721,418.353 18.713,418.353 54.563,418.353 54.563,413.354 "/>
<path fill="#FFDDAB" d="M183.999,339.432l-2.134-6.014l-5.792-15.668l-4.725,12.977l-15.698,42.572l-0.609-1.582l-4.572-12.345
	l-15.241-41.622l-37.34,101.444h5.182l32.158-87.042l3.2,8.546l-28.957,78.497h5.334l26.215-71.375l6.401,17.251l8.23,22.324
	l9.145-24.54l11.278-30.702l2.591,7.122l-8.687,23.58l-9.154,24.54h5.5l8.988-24.54l6.096-16.459l26.824,72.799h5.182
	L183.999,339.432z"/>
<path fill="#FFDDAB" d="M160.936,208.284h-5.03h-21.858v4.895h22.129c0.049,1.131,0.185,2.223,0.185,3.335
	c0,16.46-4.851,28.736-15.063,36.814c-8.382,6.706-18.899,7.316-27.739,1.981c-1.829-1.067-3.505-2.591-5.182-4.114v-77.335
	c5.03-4.725,11.127-7.62,17.68-7.62c9.144,0,17.375,5.487,23.166,14.327h5.64c-6.706-11.736-17.071-19.356-28.806-19.356
	c-20.271,0-36.884,24.602-36.884,52.34c0,19.813,8.536,37.95,21.795,46.028c4.725,2.896,9.753,4.42,15.088,4.42
	c6.401,0,12.802-2.438,18.441-6.859c11.279-8.839,16.892-22.64,16.892-40.624C161.393,213.77,161.24,211.027,160.936,208.284z
	 M103.35,245.25c-5.639-8.382-9.145-19.66-9.145-31.701c0-12.345,3.506-25.516,9.145-33.594V245.25z"/>
<path fill="#FFDDAB" d="M419.641,317.829c-20.273,0-36.782,23.824-36.782,51.614c0,19.845,8.512,39.173,21.684,47.27
	c4.747,2.921,9.822,4.401,15.098,4.401c6.498,0,12.869-2.33,18.435-6.749c11.32-8.959,18.347-26.959,18.347-44.921
	C456.423,341.653,439.914,317.829,419.641,317.829z M397.013,336.444v65.961c-5.721-8.335-9.142-20.859-9.142-32.961
	C387.871,357.068,391.374,344.641,397.013,336.444z M434.978,410.449c-8.462,6.718-18.964,7.429-27.816,2.008
	c-1.832-1.127-3.521-2.547-5.138-4.093V330.49c5.047-4.827,11.102-7.661,17.616-7.661c17.516,0,31.77,21.582,31.77,46.615
	C451.411,385.914,445.115,402.415,434.978,410.449z"/>
<path fill="#FFDDAB" d="M240.13,653.78l-33.53,89.115l-20.422-53.343l-2.592,7.01l-2.591,6.859l-14.783,38.255l-32.921-87.896
	h-16.917l37.34,99.174h5.334l-35.663-94.602h6.401l35.512,94.602h1.829l13.869-35.816l11.888,31.396l1.676,4.419h5.181
	l-16.155-42.674l2.592-6.859l19.051,49.533h2.743l37.492-99.174H240.13z"/>
<path fill="#FFDDAB" d="M83.566,653.658l-33.161,87.849l-32.88-87.849H0.504l37.394,99.197h5.286L7.463,658.659h6.318l35.722,94.196
	h1.805l37.619-99.197H83.566z"/>
<path fill="#FFDDAB" d="M73.563,535.477c0-27.791-16.508-51.615-36.782-51.615S0,507.687,0,535.477
	c0,19.845,8.512,39.173,21.684,47.27c4.747,2.921,9.822,4.401,15.098,4.401c6.498,0,12.869-2.33,18.435-6.749
	c0.336-0.266,0.579-0.679,0.907-0.959l5.517,5.554h7.092l-9.178-9.178C68.175,566.35,73.563,550.891,73.563,535.477z
	 M14.154,568.438c-5.721-8.335-9.142-20.858-9.142-32.961c0-12.376,3.503-24.803,9.142-33V568.438z M52.119,576.482
	c-8.462,6.718-18.964,7.429-27.816,2.008c-1.832-1.127-3.521-2.547-5.138-4.093v-77.874c5.047-4.827,11.102-7.662,17.616-7.662
	c17.516,0,31.77,21.582,31.77,46.616c0,14.109-4.811,28.285-12.507,36.828l-10.614-10.614h-6.963l14.167,14.241
	C52.447,576.09,52.31,576.33,52.119,576.482z"/>
<polygon fill="#FFDDAB" points="422.146,484.628 398.347,484.628 393.335,484.628 387.517,484.628 382.506,484.628 358.707,484.628
	358.707,489.627 382.506,489.627 382.506,583.916 387.517,583.916 387.517,489.627 393.335,489.627 393.335,583.916
	398.347,583.916 398.347,489.627 422.146,489.627 "/>
<polygon fill="#FFDDAB" points="316.165,703.902 343.998,653.57 338.195,653.57 313.199,698.778 291.154,658.539 288.317,653.543
	282.515,653.543 276.068,653.543 270.394,653.543 273.23,658.539 298.245,703.909 270.78,752.455 276.454,752.455 303.919,703.909
	278.904,658.539 285.351,658.539 310.362,703.902 310.344,703.935 282.879,752.481 288.681,752.481 313.18,709.058 313.199,709.026
	313.203,709.032 337.831,752.455 343.505,752.455 316.169,703.909 "/>
<g>
	<polygon fill="#FFDDAB" points="493.585,747.94 542.809,747.94 542.809,752.969 484.817,752.969 540.004,659.227 533.557,659.227
		478.37,752.969 472.567,752.969 527.755,659.227 480.259,659.227 480.259,654.199 548.773,654.199 	"/>
</g>
<polygon fill="#FFDDAB" points="325.995,319.829 325.995,419 320.775,419 275.392,330.446 275.392,419 270.35,419 270.35,324.872
	263.803,324.872 263.803,419 258.76,419 258.76,319.829 275.392,319.829 275.392,319.918 320.952,408.65 320.952,319.829 "/>
<path fill="#FFDDAB" d="M527.004,319.524h-10.3h-5.016h-11.617v98.143h5.016v-93.142h6.601v45.529v5.001v42.612h5.016v-42.612h10.3
	c14.355,0,26.039-12.443,26.039-27.758S541.359,319.524,527.004,319.524z M527.004,370.054h-10.3v-45.529h10.3
	c11.594,0,21.023,10.225,21.023,22.772S538.598,370.054,527.004,370.054z"/>
<path fill="#FFDDAB" d="M306.667,549.39c-3.962-10.821-14.478-17.222-28.653-17.68c-2.896-0.152-5.487-0.914-7.772-1.829v-37.766
	c7.01-3.048,16.155-3.963,26.823-2.286l1.067,0.153v-5.334h-0.304c-11.127-1.676-20.88-0.762-28.5,2.438l-4.573,2.286
	c-6.553,4.115-10.82,10.516-11.735,17.679l-0.153,5.182c1.067,10.059,8.84,23.287,24.843,24.659
	c4.725,0.153,8.687,1.22,12.345,2.743v39.322c-8.535,4.42-19.813,3.81-32.007-2.134l-2.133-1.067v5.792
	c8.535,4.115,15.85,5.639,21.794,5.639c11.278,0,18.441-5.181,21.642-8.23C307.278,571.185,310.174,559.296,306.667,549.39z
	 M265.213,527.291c-5.182-3.81-7.62-12.467-7.62-17.648c0.153-5.792,2.896-10.821,7.62-14.479V527.291z M295.847,575.147
	c-0.153,0.153-0.458,0.304-0.762,0.457v-33.225c3.047,2.439,5.487,5.182,6.858,8.84C304.839,559.145,302.4,568.898,295.847,575.147z
	"/>
<path fill="#FFDDAB" d="M532.502,484.769v71.586c0,13.723-11.163,24.886-24.886,24.886c-4.891,0-9.425-1.468-13.276-3.914v-92.557
	h-5.016v88.323c-4.055-4.429-6.593-10.272-6.593-16.737v-71.586h-5.016v71.586c0,16.476,13.418,29.886,29.901,29.886
	c16.484,0,29.901-13.41,29.901-29.886v-71.586H532.502z"/>
<path fill="#FFDDAB" d="M173.841,535.25c9.449-3.048,15.241-11.736,15.241-23.776c0-15.393-9.144-26.602-23.471-26.602h-26.977
	v99.453h5.03v-94.423h6.553v94.423h5.03v-47.703h10.364c0.914,0,1.829,0,2.743-0.305l24.843,47.704h6.096L173.841,535.25z
	 M165.916,531.592c-0.152,0-0.152,0-0.304,0h-10.364v-41.69h10.364c11.583,0,18.441,8.922,18.441,21.572
	c0,10.211-4.572,17.07-12.498,19.356C169.878,531.287,168.05,531.592,165.916,531.592z"/>
<polygon fill="#FFDDAB" points="443.022,653.737 414.217,703.728 414.217,752.956 409.187,752.956 409.187,703.728 382.82,658.31
	376.571,658.31 403.09,704.49 403.09,752.956 398.214,752.956 398.214,704.49 368.341,653.737 386.02,653.737 411.626,698.089
	437.23,653.737 "/>
<path fill="#FFDDAB" d="M170.279,41.963c6.177-3.908,10.317-10.751,10.317-18.58c0-12.16-9.89-22.043-22.043-22.043h-27.967v100.118
	h5.016V6.34h6.601v95.117h19.066c16.29,0,29.544-15.222,29.544-31.504C190.814,56.818,182.147,45.797,170.279,41.963z M147.219,6.34
	h11.334c9.392,0,17.027,7.65,17.027,17.042s-7.635,17.027-17.027,17.027h-11.334V6.34z M161.269,96.457h-14.05V45.41h11.334h2.716
	c13.522,0,24.528,11.014,24.528,24.543C185.798,83.468,174.791,96.457,161.269,96.457z"/>
</svg>
