<!-- Generator: Adobe Illustrator 24.1.2, SVG Export Plug-In  -->
<svg version="1.1" xmlns="http://www.w3.org/2000/svg" xmlns:xlink="http://www.w3.org/1999/xlink" x="0px" y="0px"
	 width="519.179px" height="81.723px" viewBox="0 0 519.179 81.723" overflow="visible" enable-background="new 0 0 519.179 81.723"
	 xml:space="preserve">
<defs>
</defs>
<path fill="#FFDDAB" d="M66.29,0.542c-8.171,0-14.832,9.604-14.832,20.816c0,8.007,3.437,15.8,8.713,19.063
	c1.823,1.151,3.934,1.765,6.09,1.772c2.716-0.033,5.339-0.993,7.436-2.721c4.56-3.611,7.397-10.873,7.397-18.114
	C81.132,10.224,74.462,0.542,66.29,0.542z M57.17,8.045v26.596c-2.304-3.36-3.689-8.413-3.689-13.293
	c-0.064-4.683,1.216-9.286,3.689-13.264V8.045z M72.477,37.884c-3.164,2.686-7.703,3.015-11.221,0.813
	c-0.747-0.474-1.441-1.026-2.072-1.646V5.683c1.875-1.918,4.425-3.026,7.106-3.088c7.068,0,12.809,8.713,12.809,18.792
	c0,6.642-2.537,13.303-6.622,16.536V37.884z"/>
<path fill="#FFDDAB" d="M386.337,40.828L399.272,5.77l1.278,3.456l-11.618,31.601h2.13l3.873-10.427h13.438l3.873,10.427h2.13
	L399.272,0l-15.103,40.828H386.337z M407.637,28.513h-12.102l6.061-16.352L407.637,28.513z"/>
<path fill="#FFDDAB" d="M100.186,0.707L98.172,0.6h-4.667v39.985h2.014V2.614h2.653v37.971h0.968
	c5.257,0.157,10.288-2.14,13.612-6.216c3.011-3.848,4.614-8.611,4.541-13.496C117.293,11.637,111.891,1.268,100.186,0.707z
	 M111.233,33.092c-2.714,3.338-6.747,5.328-11.047,5.451v-35.9c10.359,0.542,15.094,9.953,15.094,18.221
	C115.365,25.282,113.937,29.597,111.233,33.092z"/>
<polygon fill="#FFDDAB" points="375.784,2.885 375.784,0.871 353.158,0.871 353.158,40.886 355.172,40.886 355.172,2.885
	357.525,2.885 357.525,40.886 375.784,40.886 375.784,38.862 359.538,38.862 359.538,19.838 368.155,19.838 368.155,17.824
	359.538,17.824 359.538,2.885 "/>
<polygon fill="#FFDDAB" points="152.283,3.03 152.283,1.017 129.647,1.017 129.647,41.031 131.671,41.031 131.671,3.03
	134.023,3.03 134.023,41.031 152.283,41.031 152.283,39.017 136.037,39.017 136.037,19.983 144.654,19.983 144.654,17.969
	136.037,17.969 136.037,3.03 "/>
<polygon fill="#FFDDAB" points="479.756,2.837 479.756,0.823 457.12,0.823 457.12,40.837 459.143,40.837 459.143,2.837
	461.496,2.837 461.496,40.837 479.756,40.837 479.756,38.823 463.51,38.823 463.51,19.789 472.117,19.789 472.117,17.776
	463.51,17.776 463.51,2.837 "/>
<polygon fill="#FFDDAB" points="341.405,0.91 341.405,40.915 339.43,40.915 339.449,19.857 324.268,19.857 324.249,40.915
	322.215,40.915 322.215,2.943 319.669,2.943 319.669,40.915 317.646,40.915 317.646,0.91 324.249,0.91 324.268,17.834
	339.449,17.834 339.43,0.91 "/>
<polygon fill="#FFDDAB" points="305.757,0.958 296.152,0.958 294.139,0.958 291.786,0.958 289.772,0.958 280.168,0.958
	280.168,2.972 289.772,2.972 289.772,40.992 291.786,40.992 291.786,2.972 294.139,2.972 294.139,40.992 296.152,40.992
	296.152,2.972 305.757,2.972 "/>
<polygon fill="#FFDDAB" points="443.391,1.384 433.797,1.384 431.773,1.384 429.43,1.384 427.407,1.384 417.812,1.384
	417.812,3.408 427.407,3.408 427.407,41.428 429.43,41.428 429.43,3.408 431.773,3.408 431.773,41.428 433.797,41.428
	433.797,3.408 443.391,3.408 "/>
<path fill="#FFDDAB" d="M34.728,8.83l-0.862-2.42l-2.333-6.322l-1.936,5.228l-6.332,17.166l-0.223-0.639l-1.84-4.976L15.055,0.077
	L0,40.992h2.091L15.055,5.896l1.288,3.447L4.647,40.992h2.149l10.572-28.784l2.585,6.951l3.321,9.004l3.689-9.895l4.55-12.383
	l1.046,2.904l-3.505,9.507l-3.689,9.895h2.217l3.621-9.895l2.488-6.661l10.814,29.355h2.091L34.728,8.83z"/>
<path fill="#5A528B" d="M273.904,37.41l-1.181-3.34l-3.214-8.713l-2.624,7.213l-8.714,23.652l-0.339-0.881l-2.537-6.855
	l-8.471-23.129l-20.748,56.367h2.904l17.863-48.408l1.781,4.744l-16.091,43.567h2.963l14.522-39.695l3.553,9.585l4.57,12.402
	l5.083-13.632l6.264-17.059l1.404,4.105l-4.841,13.099l-5.083,13.632h3.147l4.996-13.632l3.389-9.149l14.852,40.44h2.905
	L273.904,37.41z"/>
<path fill="#FFDDAB" d="M178.365,21.261c3.815-1.23,6.148-4.734,6.148-9.585c0-6.206-3.689-10.727-9.469-10.727h-10.873V41.05h2.023
	V2.982h2.643V41.06h2.023V21.842h4.182c0.372,0.019,0.745-0.024,1.104-0.126l10.021,19.237h2.43L178.365,21.261z M175.17,19.789
	h-4.299V2.982h4.173c4.667,0,7.436,3.602,7.436,8.713c0,4.115-1.84,6.884-5.044,7.803C176.697,19.697,175.935,19.795,175.17,19.789z
	"/>
<path fill="#FFDDAB" d="M505.974,21.135c3.815-1.23,6.148-4.734,6.148-9.585c0-6.206-3.689-10.727-9.469-10.727H491.78v40.101h2.023
	V2.846h2.672v38.078h2.023V21.687h4.182c0.372,0.019,0.745-0.024,1.104-0.126l10.02,19.237h2.459L505.974,21.135z M502.779,19.663
	h-4.299V2.846h4.182c4.667,0,7.436,3.602,7.436,8.713c0,4.115-1.84,6.884-5.044,7.803c-0.742,0.199-1.507,0.297-2.275,0.29V19.663z"
	/>
<polygon fill="#5A528B" points="223.753,56.773 0.116,56.773 0.116,54.304 225.002,54.304 "/>
<polygon fill="#5A528B" points="519.179,56.773 289.395,56.773 288.301,54.304 519.179,54.304 "/>
<polygon fill="#FFDDAB" points="225.989,1.181 225.989,40.624 223.918,40.624 205.871,5.402 205.871,40.624 203.857,40.624
	203.857,3.185 201.262,3.185 201.262,40.624 199.249,40.624 199.249,1.181 205.871,1.181 205.871,1.22 223.985,36.51 223.985,1.181
	"/>
</svg>
