<!-- Generator: Adobe Illustrator 24.1.2, SVG Export Plug-In  -->
<svg version="1.1" xmlns="http://www.w3.org/2000/svg" xmlns:xlink="http://www.w3.org/1999/xlink" x="0px" y="0px"
	 width="971.169px" height="170.522px" viewBox="0 0 971.169 170.522"
	 overflow="visible" enable-background="new 0 0 971.169 170.522" xml:space="preserve">
<defs>
</defs>
<g>
	<path fill="#FFFFFF" d="M172.4,32.964c0,8.613-2.233,16.656-6.276,22.651c-4.569,6.742-11.015,10.298-18.659,10.298h-41.828
		l0.384-3.534c1.944-17.927,3.061-37.903,3.319-59.349L109.376,0h38.095C163.839,0.007,172.4,16.589,172.4,32.964z"/>
</g>
<g>
	<path fill="#FFFFFF" d="M147.471,170.514H61.848l5.752-4.901c12.05-11.614,21.594-28.839,28.366-51.202
		c2.676-8.82,4.953-18.6,6.764-29.083l0.392-2.233h44.349C205.068,83.102,205.068,170.514,147.471,170.514z"/>
</g>
<path fill="#FFFFFF" d="M92.121,0.007L92.033,6.72c-1.124,159.802-55.401,163.794-77.24,163.802H0l14.401-21.025
	c31.656,0,57.087-43.403,57.087-130.934L40.32,18.519l7.075-18.512H92.121z"/>
<path fill="#FFFFFF" d="M325.707,38.546v57.346c0,7.519-0.51,19.37-9.94,25.743c-3.696,2.421-8.794,3.823-13.891,3.823
	c-6.117,0-13.381-2.039-19.498-7.901l10.067-12.107c1.657,2.421,4.333,4.588,8.284,4.588c3.568,0,5.607-1.529,6.499-2.931
	c2.039-2.931,1.911-8.538,1.911-13.763V38.546H325.707z"/>
<path fill="#FFFFFF" d="M393.888,74.356c5.48,4.97,9.303,12.616,9.303,21.664c0,8.921-3.823,16.567-9.303,21.537
	c-4.715,4.333-11.852,7.774-22.301,7.774c-10.45,0-17.587-3.441-22.302-7.774c-5.48-4.97-9.303-12.616-9.303-21.537
	c0-9.048,3.823-16.694,9.303-21.664c4.715-4.333,11.852-7.774,22.302-7.774C382.037,66.582,389.173,70.023,393.888,74.356z
	 M387.134,96.02c0-8.666-6.627-15.675-15.547-15.675c-8.921,0-15.548,7.009-15.548,15.675c0,8.411,6.499,15.547,15.548,15.547
	C380.635,111.567,387.134,104.431,387.134,96.02z"/>
<path fill="#FFFFFF" d="M415.172,30.645h15.547v44.858c2.931-4.078,8.156-8.92,17.077-8.92c4.843,0,11.979,1.402,16.312,6.754
	c3.823,4.715,4.333,10.195,4.333,15.547v34.663h-15.547V93.471c0-3.058-0.128-7.901-2.931-10.832
	c-2.422-2.549-5.735-2.803-7.264-2.803c-4.078,0-7.265,1.401-9.558,4.842c-2.294,3.568-2.422,7.519-2.422,10.705v28.163h-15.547
	V30.645z"/>
<path fill="#FFFFFF" d="M483.227,68.366h15.547v7.136c2.931-4.078,8.156-8.92,17.077-8.92c4.843,0,11.98,1.402,16.312,6.754
	c3.824,4.715,4.333,10.195,4.333,15.547v34.663h-15.547V93.471c0-3.058-0.128-7.901-2.931-10.832
	c-2.421-2.549-5.735-2.803-7.264-2.803c-4.078,0-7.265,1.401-9.558,4.842c-2.294,3.568-2.422,7.519-2.422,10.705v28.163h-15.547
	V68.366z"/>
<path fill="#FFFFFF" d="M624.53,38.412c4.715,0,13.891,0,20.772,5.352c4.97,3.823,7.901,10.45,7.901,17.587
	c0,10.959-7.264,15.42-9.558,16.694c5.607,0.892,8.921,3.313,11.087,5.352c5.097,4.843,6.117,11.469,6.117,15.93
	c0,4.97-1.402,11.979-7.264,17.204c-6.372,5.607-14.145,6.882-21.536,6.882h-28.546v-85H624.53z M620.07,73.712h4.715
	c2.549,0,12.871-0.255,12.871-11.087c0-7.774-5.989-10.705-12.744-10.705h-4.842V73.712z M620.07,109.904h7.136
	c3.058,0,7.646-0.128,11.342-2.294c4.078-2.421,5.225-6.499,5.225-9.813c0-2.676-0.892-7.264-6.245-9.685
	c-3.568-1.657-7.774-1.657-11.342-1.657h-6.117V109.904z"/>
<path fill="#FFFFFF" d="M717.179,68.232h15.548v55.18h-15.548v-7.136c-5.607,8.028-12.998,8.921-16.949,8.921
	c-16.95,0-28.164-13.253-28.164-29.438c0-16.312,11.087-29.31,27.399-29.31c4.205,0,12.489,0.764,17.713,8.92V68.232z
	 M688.123,95.758c0,8.794,6.372,15.675,15.292,15.675c8.921,0,15.292-6.881,15.292-15.675c0-8.793-6.371-15.547-15.292-15.547
	C694.495,80.211,688.123,86.965,688.123,95.758z"/>
<path fill="#FFFFFF" d="M747.511,68.232h15.547v8.284c2.422-4.715,5.735-7.009,6.882-7.646c2.422-1.529,5.48-2.421,9.176-2.421
	c2.676,0,4.842,0.637,6.627,1.274l-2.039,14.528c-2.039-1.402-4.078-2.039-7.264-2.039c-2.931,0-7.265,0.637-10.323,4.46
	c-2.931,3.696-3.059,8.411-3.059,12.234v26.507h-15.547V68.232z"/>
<path fill="#FFFFFF" d="M836.082,68.232h15.547v52.632c0,8.411-0.764,17.204-7.645,24.085c-3.824,3.823-10.45,7.774-21.792,7.774
	c-10.705,0-17.077-3.186-20.645-6.372c-4.333-3.696-7.646-10.195-8.921-16.439h16.821c0.638,2.548,2.039,5.097,3.824,6.626
	c3.058,2.804,7.264,2.931,9.43,2.931c4.46,0,7.391-1.529,9.43-3.441c3.568-3.441,3.95-7.774,3.95-12.234v-7.774
	c-5.352,8.156-12.743,9.175-16.949,9.175c-7.391,0-13.763-2.294-19.116-7.519c-4.078-4.078-8.793-11.214-8.793-21.919
	c0-8.665,3.187-16.694,8.539-21.919c4.843-4.715,11.597-7.391,18.988-7.391c10.323,0,15.164,5.607,17.331,8.92V68.232z
	 M812.251,84.034c-2.549,2.294-4.969,5.989-4.969,11.724c0,4.843,1.784,8.411,4.078,10.833c3.313,3.568,7.519,4.842,11.214,4.842
	c3.824,0,7.646-1.402,10.323-3.823c3.186-2.931,4.97-7.391,4.97-11.852c0-5.225-2.294-8.793-4.461-11.087
	c-3.058-3.186-6.626-4.46-10.832-4.46C817.603,80.211,814.163,82.25,812.251,84.034z"/>
<path fill="#FFFFFF" d="M920.574,107.992c-1.656,4.078-7.901,17.204-27.144,17.204c-8.921,0-15.675-2.549-21.155-7.774
	c-6.116-5.735-8.665-12.871-8.665-21.537c0-10.96,4.461-17.714,8.411-21.664c6.499-6.372,14.145-7.774,20.772-7.774
	c11.215,0,17.714,4.46,21.537,9.048c5.862,7.009,6.627,15.675,6.627,21.664v1.275h-41.289c0,3.313,0.891,6.881,2.676,9.303
	c1.656,2.294,5.097,5.225,11.086,5.225c5.863,0,10.323-2.804,12.871-7.264L920.574,107.992z M906.301,88.495
	c-1.274-7.519-7.391-11.087-13.125-11.087c-5.735,0-11.724,3.696-12.999,11.087H906.301z"/>
<path fill="#FFFFFF" d="M932.938,68.232h15.547v8.284c2.422-4.715,5.735-7.009,6.882-7.646c2.422-1.529,5.48-2.421,9.176-2.421
	c2.676,0,4.843,0.637,6.626,1.274L969.13,82.25c-2.039-1.402-4.078-2.039-7.264-2.039c-2.931,0-7.265,0.637-10.323,4.46
	c-2.931,3.696-3.059,8.411-3.059,12.234v26.507h-15.547V68.232z"/>
</svg>
