<!-- Generator: Adobe Illustrator 24.1.2, SVG Export Plug-In  -->
<svg version="1.1" xmlns="http://www.w3.org/2000/svg" xmlns:xlink="http://www.w3.org/1999/xlink" x="0px" y="0px"
	 width="257.913px" height="230.66px" viewBox="0 0 257.913 230.66" overflow="visible" enable-background="new 0 0 257.913 230.66"
	 xml:space="preserve">
<defs>
</defs>
<g>
	<path d="M233.2,44.59c0,11.65-3.02,22.53-8.49,30.64c-6.18,9.12-14.9,13.93-25.24,13.93h-56.58l0.52-4.78
		c2.63-24.25,4.14-51.27,4.49-80.28l0.05-4.1h51.53C221.62,0.01,233.2,22.44,233.2,44.59z"/>
</g>
<g>
	<path d="M199.48,230.65H83.66l7.78-6.63c16.3-15.71,29.21-39.01,38.37-69.26c3.62-11.93,6.7-25.16,9.15-39.34l0.53-3.02h59.99
		C277.39,112.41,277.39,230.65,199.48,230.65z"/>
</g>
<path d="M124.61,0.01l-0.12,9.08c-1.52,216.16-74.94,221.56-104.48,221.57H0l19.48-28.44c42.82,0,77.22-58.71,77.22-177.11
	l-42.16-0.06l9.57-25.04H124.61z"/>
</svg>
