<!-- Generator: Adobe Illustrator 23.0.1, SVG Export Plug-In  -->
<svg version="1.1" xmlns="http://www.w3.org/2000/svg" xmlns:xlink="http://www.w3.org/1999/xlink" x="0px" y="0px"
	 width="129.18px" height="48.51px" viewBox="0 0 129.18 48.51" style="enable-background:new 0 0 129.18 48.51;"
	 xml:space="preserve">
<style type="text/css">
	.st0{fill:#FFFFFF;}
</style>
<defs>
</defs>
<g>
	<g>
		<g>
			<g>
				<path class="st0" d="M47.45,9.07c0,2.37-0.61,4.58-1.73,6.23c-1.26,1.86-3.03,2.84-5.14,2.84H29.07l0.11-0.97
					c0.53-4.93,0.84-10.43,0.91-16.33L30.1,0h10.48C45.09,0,47.45,4.56,47.45,9.07z"/>
			</g>
		</g>
		<g>
			<g>
				<path class="st0" d="M40.59,46.93l-23.57,0l1.58-1.35c3.32-3.2,5.94-7.94,7.81-14.09c0.74-2.43,1.36-5.12,1.86-8l0.11-0.61
					l12.21,0C56.44,22.87,56.44,46.93,40.59,46.93z"/>
			</g>
		</g>
		<g>
			<path class="st0" d="M25.35,0l-0.02,1.85C25.02,45.83,10.08,46.93,4.07,46.93H0l3.96-5.79c8.71,0,15.71-11.95,15.71-36.03
				L11.1,5.1L13.04,0H25.35z"/>
		</g>
	</g>
	<g>
		<path class="st0" d="M71.22,1.13h2.75v11.15c0,1.52-0.48,2.73-1.42,3.63c-0.95,0.89-2.2,1.34-3.76,1.34
			c-1.66,0-2.94-0.42-3.84-1.26s-1.35-2-1.35-3.49h2.75c0,0.84,0.21,1.48,0.63,1.9s1.02,0.64,1.82,0.64c0.74,0,1.33-0.25,1.77-0.74
			s0.66-1.17,0.66-2.04V1.13z"/>
		<path class="st0" d="M76.37,11.01c0-1.16,0.23-2.2,0.69-3.13c0.46-0.93,1.1-1.64,1.93-2.14C79.82,5.25,80.77,5,81.85,5
			c1.59,0,2.89,0.51,3.88,1.54c0.99,1.03,1.53,2.39,1.61,4.08l0.01,0.62c0,1.16-0.22,2.21-0.67,3.12s-1.09,1.63-1.92,2.13
			c-0.83,0.5-1.8,0.75-2.89,0.75c-1.67,0-3-0.56-4-1.67c-1-1.11-1.5-2.59-1.5-4.44V11.01z M79.02,11.24c0,1.22,0.25,2.17,0.75,2.85
			c0.5,0.69,1.2,1.03,2.1,1.03c0.89,0,1.59-0.35,2.09-1.05c0.5-0.7,0.75-1.72,0.75-3.07c0-1.19-0.26-2.14-0.77-2.84
			c-0.51-0.7-1.21-1.05-2.09-1.05c-0.87,0-1.55,0.34-2.06,1.03C79.28,8.84,79.02,9.87,79.02,11.24z"/>
		<path class="st0" d="M92.21,6.5C93.08,5.5,94.17,5,95.5,5c2.52,0,3.8,1.44,3.83,4.31v7.72h-2.65V9.41c0-0.82-0.18-1.39-0.53-1.73
			c-0.35-0.34-0.87-0.51-1.56-0.51c-1.06,0-1.86,0.47-2.38,1.42v8.44h-2.65V0.26h2.65V6.5z"/>
		<path class="st0" d="M104.47,5.21l0.08,1.36c0.87-1.05,2.02-1.58,3.44-1.58c2.46,0,3.71,1.41,3.76,4.23v7.81h-2.65V9.37
			c0-0.75-0.16-1.3-0.49-1.67c-0.32-0.36-0.85-0.54-1.59-0.54c-1.07,0-1.87,0.48-2.39,1.45v8.41h-2.65V5.21H104.47z"/>
		<path class="st0" d="M64.71,43.86v-15.9h5.45c1.8,0,3.17,0.36,4.1,1.08c0.94,0.72,1.41,1.79,1.41,3.22c0,0.73-0.2,1.38-0.59,1.96
			c-0.39,0.58-0.97,1.03-1.72,1.35c0.86,0.23,1.52,0.67,1.99,1.32c0.47,0.64,0.7,1.42,0.7,2.32c0,1.49-0.48,2.64-1.44,3.44
			c-0.96,0.8-2.33,1.2-4.11,1.2H64.71z M67.47,34.65h2.71c0.86,0,1.53-0.19,2.01-0.58s0.73-0.94,0.73-1.65
			c0-0.79-0.22-1.35-0.67-1.7c-0.45-0.35-1.14-0.52-2.09-0.52h-2.69V34.65z M67.47,36.68v4.97h3.07c0.87,0,1.54-0.21,2.03-0.64
			c0.49-0.43,0.73-1.03,0.73-1.79c0-1.65-0.84-2.5-2.53-2.53H67.47z"/>
		<path class="st0" d="M85.62,43.86c-0.12-0.23-0.22-0.59-0.31-1.1c-0.84,0.88-1.88,1.32-3.1,1.32c-1.19,0-2.15-0.34-2.9-1.02
			c-0.75-0.68-1.13-1.51-1.13-2.51c0-1.26,0.47-2.23,1.4-2.9c0.93-0.67,2.27-1.01,4.01-1.01h1.63v-0.77c0-0.61-0.17-1.1-0.51-1.47
			c-0.34-0.37-0.86-0.55-1.56-0.55c-0.6,0-1.1,0.15-1.49,0.45c-0.39,0.3-0.58,0.69-0.58,1.15h-2.65c0-0.65,0.21-1.25,0.64-1.82
			c0.43-0.56,1.01-1.01,1.75-1.33c0.74-0.32,1.56-0.48,2.47-0.48c1.38,0,2.49,0.35,3.31,1.04c0.82,0.7,1.24,1.67,1.27,2.93v5.33
			c0,1.06,0.15,1.91,0.45,2.54v0.19H85.62z M82.7,41.95c0.52,0,1.02-0.13,1.48-0.38c0.46-0.25,0.81-0.6,1.04-1.03v-2.23h-1.43
			c-0.98,0-1.72,0.17-2.22,0.51c-0.5,0.34-0.74,0.83-0.74,1.45c0,0.51,0.17,0.92,0.51,1.22C81.68,41.8,82.13,41.95,82.7,41.95z"/>
		<path class="st0" d="M96.84,34.47c-0.35-0.06-0.71-0.09-1.08-0.09c-1.22,0-2.03,0.47-2.46,1.4v8.08h-2.65V32.04h2.53l0.07,1.32
			c0.64-1.03,1.53-1.54,2.66-1.54c0.38,0,0.69,0.05,0.94,0.15L96.84,34.47z"/>
		<path class="st0" d="M97.84,37.86c0-1.83,0.43-3.3,1.29-4.39c0.86-1.1,2.01-1.64,3.43-1.64c1.35,0,2.41,0.47,3.18,1.41l0.12-1.19
			h2.39V43.5c0,1.55-0.48,2.77-1.45,3.67c-0.96,0.9-2.26,1.34-3.9,1.34c-0.87,0-1.71-0.18-2.54-0.54c-0.83-0.36-1.45-0.83-1.88-1.41
			l1.26-1.59c0.82,0.97,1.82,1.45,3.01,1.45c0.88,0,1.58-0.24,2.09-0.71c0.51-0.48,0.76-1.18,0.76-2.1v-0.8
			c-0.76,0.85-1.78,1.28-3.06,1.28c-1.38,0-2.51-0.55-3.39-1.65C98.28,41.33,97.84,39.81,97.84,37.86z M100.49,38.09
			c0,1.19,0.24,2.12,0.73,2.8c0.48,0.68,1.16,1.02,2.01,1.02c1.07,0,1.86-0.46,2.38-1.38v-5.2c-0.5-0.9-1.29-1.34-2.36-1.34
			c-0.87,0-1.55,0.35-2.04,1.04C100.73,35.73,100.49,36.75,100.49,38.09z"/>
		<path class="st0" d="M116.18,44.08c-1.68,0-3.04-0.53-4.09-1.59s-1.57-2.47-1.57-4.23v-0.33c0-1.18,0.23-2.23,0.68-3.16
			c0.45-0.93,1.09-1.65,1.92-2.17c0.82-0.52,1.74-0.78,2.75-0.78c1.61,0,2.85,0.51,3.73,1.54s1.32,2.48,1.32,4.36v1.07h-7.72
			c0.08,0.98,0.41,1.75,0.98,2.31c0.57,0.57,1.29,0.85,2.16,0.85c1.22,0,2.21-0.49,2.97-1.47l1.43,1.36
			c-0.47,0.71-1.11,1.25-1.89,1.64C118.05,43.88,117.17,44.08,116.18,44.08z M115.87,33.96c-0.73,0-1.32,0.25-1.76,0.76
			s-0.73,1.22-0.86,2.13h5.05v-0.2c-0.06-0.89-0.29-1.56-0.71-2.01S116.6,33.96,115.87,33.96z"/>
		<path class="st0" d="M129.16,34.47c-0.35-0.06-0.71-0.09-1.08-0.09c-1.22,0-2.03,0.47-2.46,1.4v8.08h-2.65V32.04h2.53l0.07,1.32
			c0.64-1.03,1.53-1.54,2.66-1.54c0.38,0,0.69,0.05,0.94,0.15L129.16,34.47z"/>
	</g>
</g>
</svg>
