<!-- Generator: Adobe Illustrator 23.0.1, SVG Export Plug-In  -->
<svg version="1.1" xmlns="http://www.w3.org/2000/svg" xmlns:xlink="http://www.w3.org/1999/xlink" x="0px" y="0px"
	 width="257.91px" height="230.65px" viewBox="0 0 257.91 230.65" style="enable-background:new 0 0 257.91 230.65;"
	 xml:space="preserve">
<style type="text/css">
	.st0{fill:#ffffff;}
</style>
<defs>
</defs>
<g>
	<path class="st0" d="M233.2,44.58c0,11.65-3.02,22.53-8.49,30.64c-6.18,9.12-14.9,13.93-25.24,13.93h-56.58l0.52-4.78
		c2.63-24.25,4.14-51.27,4.49-80.28l0.05-4.1h51.53C221.62,0,233.2,22.43,233.2,44.58z"/>
</g>
<g>
	<path class="st0" d="M199.48,230.64l-115.82,0l7.78-6.63c16.3-15.71,29.21-39.01,38.37-69.26c3.62-11.93,6.7-25.16,9.15-39.34
		l0.53-3.02l59.99,0C277.39,112.4,277.39,230.64,199.48,230.64z"/>
</g>
<path class="st0" d="M124.61,0l-0.12,9.08c-1.52,216.16-74.94,221.56-104.48,221.57H0l19.48-28.44c42.82,0,77.22-58.71,77.22-177.11
	l-42.16-0.06L64.11,0H124.61z"/>
</svg>
