<!-- Generator: Adobe Illustrator 24.0.1, SVG Export Plug-In  -->
<svg version="1.1" xmlns="http://www.w3.org/2000/svg" xmlns:xlink="http://www.w3.org/1999/xlink" x="0px" y="0px"
	 width="210.54px" height="210.54px" viewBox="0 0 210.54 210.54" enable-background="new 0 0 210.54 210.54" xml:space="preserve">
<defs>
</defs>
<rect fill="#6DA560" width="210.54" height="210.54"/>
<g>
	<g>
		<path fill="#FFFFFF" d="M74.724,102.071v4.748c0,4.377-1.502,7.975-4.488,10.793c-2.856,2.717-6.315,4.071-10.367,4.071
			c-3.922,0-7.261-1.391-10.005-4.163c-2.735-2.773-4.108-6.092-4.108-9.977v-1.474l8.494-0.649l0.195,2.077
			c0.13,1.474,0.658,2.68,1.595,3.626c0.937,0.946,2.133,1.409,3.607,1.409c4.099,0,6.148-1.91,6.148-5.721v-3.542
			c0-6.092-3.199-9.134-9.56-9.134v-7.678l4.358-6.853H45.756v-7.937h24.517v7.947h-0.046l-4.479,6.853
			C71.376,89.108,74.724,95.636,74.724,102.071z"/>
		<path fill="#FFFFFF" d="M107.141,102.071v4.748c0,4.377-1.502,7.975-4.488,10.793c-2.856,2.717-6.315,4.071-10.367,4.071
			c-3.922,0-7.261-1.391-10.005-4.163c-2.735-2.773-4.108-6.092-4.108-9.977v-1.474l8.494-0.649l0.195,2.077
			c0.13,1.474,0.658,2.68,1.586,3.626c0.927,0.946,2.133,1.409,3.607,1.409c4.099,0,6.148-1.91,6.148-5.721v-3.542
			c0-6.092-3.19-9.134-9.551-9.134v-7.678l4.358-6.853H74.065v-7.937h28.625v7.882l-4.516,6.917
			C103.794,89.108,107.141,95.636,107.141,102.071z"/>
		<path fill="#FFFFFF" d="M166.292,83.488v26.335c0,3.264-1.428,6.055-4.275,8.373c-2.847,2.327-6.259,3.477-10.246,3.477H137.25
			V82.978h9.236v31.305h5.564c1.474,0,2.717-0.427,3.718-1.289c1.011-0.862,1.511-1.864,1.511-3.032V84.035
			c0-1.178-0.519-2.188-1.539-3.032c-1.029-0.844-2.263-1.261-3.691-1.261h-22.783c0.389,1.382,0.584,2.921,0.584,4.618
			l-0.083,6.111c0,3.551-1.307,6.611-3.895,9.106l5.758,22.097h-10.284l-4.59-18.481h-6.092c-0.269-3.143-0.899-6.259-1.855-9.328
			h8.271c0.927,0,1.678-0.306,2.318-0.946c0.631-0.64,0.937-1.382,0.937-2.29v-7.817c0-2.29-0.974-3.264-3.255-3.264h-10.719v-7.882
			h10.599c0.083,0,0.176,0,0.269,0l0,0h34.522c4.034,0,7.455,1.168,10.283,3.477C164.874,77.461,166.292,80.243,166.292,83.488z"/>
	</g>
	<g>
		<path fill="#FFFFFF" d="M49.836,131.466c-0.352-0.491-0.964-0.723-1.595-0.723c-0.751,0-1.493,0.334-1.493,1.178
			c0,1.827,4.33,0.788,4.33,4.034c0,1.957-1.549,2.912-3.338,2.912c-1.131,0-2.244-0.352-2.995-1.243l1.224-1.187
			c0.399,0.603,1.085,0.955,1.808,0.955c0.751,0,1.595-0.417,1.595-1.252c0-2.003-4.33-0.853-4.33-4.117
			c0-1.882,1.678-2.763,3.366-2.763c0.955,0,1.91,0.269,2.615,0.946L49.836,131.466z"/>
		<path fill="#FFFFFF" d="M55.557,130.983h-2.8v-1.474h7.223v1.474h-2.8v7.659h-1.623V130.983z"/>
		<path fill="#FFFFFF" d="M62.02,129.509h3.171c1.753,0,3.403,0.566,3.403,2.615c0,1.317-0.76,2.281-2.114,2.476l2.42,4.034h-1.957
			l-2.114-3.867h-1.187v3.867H62.02C62.02,138.633,62.02,129.509,62.02,129.509z M64.913,133.376c0.918,0,1.984-0.074,1.984-1.261
			c0-1.085-1.001-1.215-1.845-1.215h-1.409v2.476H64.913z"/>
		<path fill="#FFFFFF" d="M71.07,129.509h6.046v1.474h-4.423v2.244h4.191v1.474h-4.191v2.476h4.655v1.474H71.07V129.509z"/>
		<path fill="#FFFFFF" d="M79.879,129.509h6.046v1.474h-4.423v2.244h4.191v1.474h-4.191v2.476h4.655v1.474h-6.278V129.509z"/>
		<path fill="#FFFFFF" d="M90.552,130.983h-2.8v-1.474h7.223v1.474h-2.8v7.659h-1.623C90.552,138.643,90.552,130.983,90.552,130.983
			z"/>
		<path fill="#FFFFFF" d="M111.555,138.643h-5.313c-2.837,0-4.979-1.79-4.979-4.757c0-2.68,2.188-4.599,4.794-4.599
			c2.606,0,4.794,1.919,4.794,4.599c0,1.91-1.048,2.912-1.919,3.422v0.028h2.615v1.307H111.555z M102.969,133.923
			c0,1.873,1.298,3.245,3.079,3.245c1.808,0,3.106-1.382,3.106-3.245c0-1.817-1.289-3.171-3.134-3.171
			C104.258,130.752,102.969,132.105,102.969,133.923z"/>
		<path fill="#FFFFFF" d="M120.986,135.286c0,2.207-1.586,3.589-3.672,3.589c-2.086,0-3.672-1.382-3.672-3.589v-5.777h1.623v5.721
			c0,0.899,0.491,2.086,2.049,2.086s2.049-1.187,2.049-2.086v-5.721h1.623V135.286z"/>
		<path fill="#FFFFFF" d="M126.855,129.509h1.409l3.932,9.134h-1.855l-0.853-2.086h-3.959l-0.825,2.086h-1.817L126.855,129.509z
			 M128.923,135.156l-1.409-3.718l-1.428,3.718H128.923z"/>
		<path fill="#FFFFFF" d="M134.144,129.509h3.171c1.753,0,3.403,0.566,3.403,2.615c0,1.317-0.76,2.281-2.114,2.476l2.42,4.034
			h-1.957l-2.114-3.867h-1.187v3.867h-1.623V129.509z M137.027,133.376c0.918,0,1.984-0.074,1.984-1.261
			c0-1.085-1.001-1.215-1.845-1.215h-1.409v2.476H137.027z"/>
		<path fill="#FFFFFF" d="M144.835,130.983h-2.8v-1.474h7.223v1.474h-2.8v7.659h-1.623L144.835,130.983L144.835,130.983z"/>
		<path fill="#FFFFFF" d="M151.289,129.509h6.046v1.474h-4.423v2.244h4.191v1.474h-4.191v2.476h4.655v1.474h-6.278V129.509z"/>
		<path fill="#FFFFFF" d="M161.962,130.983h-2.8v-1.474h7.223v1.474h-2.8v7.659h-1.623L161.962,130.983L161.962,130.983z"/>
	</g>
	<path fill="#FFFFFF" stroke="#231F20" stroke-width="9.4434" stroke-miterlimit="10" d="M138.4,73.019"/>
</g>
</svg>
