<!-- Generator: Adobe Illustrator 23.0.1, SVG Export Plug-In  -->
<svg version="1.1" xmlns="http://www.w3.org/2000/svg" xmlns:xlink="http://www.w3.org/1999/xlink" x="0px" y="0px"
	 width="505.15px" height="279.09px" viewBox="0 0 505.15 279.09" style="enable-background:new 0 0 505.15 279.09;"
	 xml:space="preserve">
<style type="text/css">
	.st0{fill:#FFFEFF;}
</style>
<defs>
</defs>
<g>
	<g>
		<path class="st0" d="M124.51,126.28v19.71c0,18.16-6.23,33.1-18.65,44.81C94,202.09,79.63,207.7,62.81,207.7
			c-16.29,0-30.14-5.76-41.54-17.3C9.89,178.9,4.2,165.08,4.2,148.97v-6.09l35.26-2.7l0.8,8.64c0.54,6.13,2.74,11.14,6.61,15.06
			c3.87,3.92,8.86,5.85,14.98,5.85c17.03,0,25.54-7.92,25.54-23.74v-14.71c0-25.3-13.27-37.94-39.7-37.94V61.46L65.78,33H4.2V0
			h101.81v33h-0.18L87.24,61.46C110.6,72.44,124.51,99.55,124.51,126.28z"/>
	</g>
	<g>
		<path class="st0" d="M259.12,126.28v19.71c0,18.16-6.23,33.1-18.65,44.81c-11.87,11.29-26.24,16.9-43.06,16.9
			c-16.29,0-30.14-5.76-41.54-17.3c-11.37-11.5-17.07-25.31-17.07-41.42v-6.09l35.26-2.7l0.81,8.64c0.53,6.13,2.73,11.14,6.6,15.06
			c3.85,3.92,8.86,5.85,14.98,5.85c17.03,0,25.52-7.92,25.52-23.74v-14.71c0-25.3-13.25-37.94-39.68-37.94V61.46L200.39,33h-78.63V0
			h118.85v32.73l-18.75,28.73C245.22,72.44,259.12,99.55,259.12,126.28z"/>
	</g>
	<g>
		<path class="st0" d="M504.74,49.11v109.36c0,13.56-5.93,25.16-17.74,34.77c-11.83,9.65-26.01,14.46-42.56,14.46h-60.29V46.99
			h38.36v130h23.1c6.13,0,11.29-1.78,15.45-5.36c4.19-3.58,6.28-7.74,6.28-12.59V51.39c0-4.9-2.15-9.1-6.4-12.59
			c-4.28-3.51-9.39-5.25-15.32-5.25H351c1.61,5.72,2.42,12.15,2.42,19.17l-0.35,25.37c0,14.75-5.43,27.47-16.16,37.81l23.93,91.77
			h-42.72l-19.04-76.75H273.8c-1.12-13.07-3.75-25.97-7.71-38.76h34.37c3.84,0,6.97-1.28,9.61-3.93c2.62-2.64,3.91-5.74,3.91-9.49
			V46.27c0-9.5-4.04-13.54-13.52-13.54h-44.5V0h44.03c0.36,0,0.75,0,1.11,0.01V0h143.34c16.75,0,30.97,4.84,42.69,14.46
			C498.86,24.08,504.74,35.62,504.74,49.11z"/>
	</g>
</g>
<g>
	<path class="st0" d="M21.15,248.35c-1.45-2.04-4.02-3-6.64-3c-3.11,0-6.21,1.39-6.21,4.87c0,7.6,17.99,3.27,17.99,16.76
		c0,8.14-6.42,12.1-13.87,12.1c-4.71,0-9.32-1.45-12.42-5.14l5.09-4.93c1.66,2.52,4.5,3.96,7.5,3.96c3.11,0,6.64-1.71,6.64-5.19
		c0-8.3-17.99-3.53-17.99-17.08c0-7.82,6.96-11.46,13.98-11.46c3.96,0,7.92,1.12,10.87,3.91L21.15,248.35z"/>
	<path class="st0" d="M44.92,246.32H33.3v-6.1h29.98v6.1H51.67v31.8h-6.75V246.32z"/>
	<path class="st0" d="M71.74,240.22h13.17c7.28,0,14.14,2.36,14.14,10.87c0,5.46-3.16,9.48-8.78,10.28l10.07,16.76H92.2l-8.78-16.06
		h-4.93v16.06h-6.75V240.22z M83.74,256.28c3.8,0,8.25-0.32,8.25-5.25c0-4.5-4.18-5.03-7.66-5.03h-5.84v10.28H83.74z"/>
	<path class="st0" d="M109.33,240.22h25.11v6.1h-18.37v9.32h17.4v6.1h-17.4v10.28h19.33v6.1h-26.08V240.22z"/>
	<path class="st0" d="M145.9,240.22h25.11v6.1h-18.37v9.32h17.4v6.1h-17.4v10.28h19.33v6.1H145.9V240.22z"/>
	<path class="st0" d="M190.23,246.32h-11.62v-6.1h29.98v6.1h-11.62v31.8h-6.75V246.32z"/>
	<path class="st0" d="M277.44,278.12h-22.06c-11.78,0-20.67-7.44-20.67-19.76c0-11.14,9.1-19.11,19.92-19.11s19.92,7.98,19.92,19.11
		c0,7.92-4.34,12.1-7.98,14.19v0.11h10.87V278.12z M241.78,258.53c0,7.76,5.41,13.49,12.8,13.49c7.5,0,12.9-5.73,12.9-13.49
		c0-7.55-5.35-13.17-13.01-13.17C247.14,245.36,241.78,250.98,241.78,258.53z"/>
	<path class="st0" d="M316.58,264.2c0,9.16-6.59,14.88-15.26,14.88s-15.26-5.73-15.26-14.88v-23.99h6.75v23.77
		c0,3.75,2.04,8.67,8.51,8.67s8.51-4.93,8.51-8.67v-23.77h6.75V264.2z"/>
	<path class="st0" d="M340.99,240.22h5.84l16.33,37.91h-7.71l-3.53-8.67h-16.44l-3.43,8.67h-7.55L340.99,240.22z M349.56,263.67
		l-5.84-15.42l-5.94,15.42H349.56z"/>
	<path class="st0" d="M371.24,240.22h13.17c7.28,0,14.14,2.36,14.14,10.87c0,5.46-3.16,9.48-8.78,10.28l10.07,16.76h-8.14
		l-8.78-16.06h-4.93v16.06h-6.75V240.22z M383.24,256.28c3.8,0,8.25-0.32,8.25-5.25c0-4.5-4.18-5.03-7.66-5.03h-5.84v10.28H383.24z"
		/>
	<path class="st0" d="M415.63,246.32h-11.62v-6.1h29.98v6.1h-11.62v31.8h-6.75V246.32z"/>
	<path class="st0" d="M442.45,240.22h25.11v6.1H449.2v9.32h17.4v6.1h-17.4v10.28h19.33v6.1h-26.08V240.22z"/>
	<path class="st0" d="M486.78,246.32h-11.62v-6.1h29.98v6.1h-11.62v31.8h-6.75V246.32z"/>
</g>
</svg>
